STARTFONT 2.1
FONT -Misc-Fixed-Medium-R-Normal--13-120-75-75-C-70-ISO10646-1
SIZE 13 75 75
FONTBOUNDINGBOX 7 13 0 -2

STARTPROPERTIES 25
FONTNAME_REGISTRY ""
FOUNDRY "Misc"
FAMILY_NAME "Fixed"
WEIGHT_NAME "Medium"
SLANT "R"
SETWIDTH_NAME "Normal"
ADD_STYLE_NAME ""
PIXEL_SIZE 13
POINT_SIZE 120
RESOLUTION_X 75
RESOLUTION_Y 75
SPACING "C"
AVERAGE_WIDTH 70
CHARSET_REGISTRY "ISO10646"
CHARSET_ENCODING "1"
COPYRIGHT "Public domain font.  Share and enjoy."
DESTINATION 1
CAP_HEIGHT 9
X_HEIGHT 6
_GBDFED_INFO "Edited with gbdfed 1.3."
WEIGHT 10
QUAD_WIDTH 7
DEFAULT_CHAR 0
FONT_DESCENT 2
FONT_ASCENT 11
ENDPROPERTIES

CHARS 3226

STARTCHAR char0
ENCODING 0
SWIDTH 497 0
DWIDTH 7 0
BBX 7 13 0 -2
BITMAP
00
00
AC
00
84
00
84
00
84
00
D4
00
00
ENDCHAR

STARTCHAR space
ENCODING 32
SWIDTH 497 0
DWIDTH 7 0
BBX 7 13 0 -2
BITMAP
00
00
00
00
00
00
00
00
00
00
00
00
00
ENDCHAR

STARTCHAR exclam
ENCODING 33
SWIDTH 497 0
DWIDTH 7 0
BBX 7 13 0 -2
BITMAP
00
00
10
10
10
10
10
10
10
00
10
00
00
ENDCHAR

STARTCHAR quotedbl
ENCODING 34
SWIDTH 497 0
DWIDTH 7 0
BBX 7 13 0 -2
BITMAP
00
00
28
28
28
00
00
00
00
00
00
00
00
ENDCHAR

STARTCHAR numbersign
ENCODING 35
SWIDTH 497 0
DWIDTH 7 0
BBX 7 13 0 -2
BITMAP
00
00
00
28
28
7C
28
7C
28
28
00
00
00
ENDCHAR

STARTCHAR dollar
ENCODING 36
SWIDTH 497 0
DWIDTH 7 0
BBX 7 13 0 -2
BITMAP
00
00
00
10
3C
50
38
14
78
10
00
00
00
ENDCHAR

STARTCHAR percent
ENCODING 37
SWIDTH 497 0
DWIDTH 7 0
BBX 7 13 0 -2
BITMAP
00
00
44
A4
48
10
10
20
48
94
88
00
00
ENDCHAR

STARTCHAR ampersand
ENCODING 38
SWIDTH 497 0
DWIDTH 7 0
BBX 7 13 0 -2
BITMAP
00
00
00
00
60
90
90
60
94
88
74
00
00
ENDCHAR

STARTCHAR quotesingle
ENCODING 39
SWIDTH 497 0
DWIDTH 7 0
BBX 7 13 0 -2
BITMAP
00
00
10
10
10
00
00
00
00
00
00
00
00
ENDCHAR

STARTCHAR parenleft
ENCODING 40
SWIDTH 497 0
DWIDTH 7 0
BBX 7 13 0 -2
BITMAP
00
00
08
10
10
20
20
20
10
10
08
00
00
ENDCHAR

STARTCHAR parenright
ENCODING 41
SWIDTH 497 0
DWIDTH 7 0
BBX 7 13 0 -2
BITMAP
00
00
20
10
10
08
08
08
10
10
20
00
00
ENDCHAR

STARTCHAR asterisk
ENCODING 42
SWIDTH 497 0
DWIDTH 7 0
BBX 7 13 0 -2
BITMAP
00
00
00
00
48
30
FC
30
48
00
00
00
00
ENDCHAR

STARTCHAR plus
ENCODING 43
SWIDTH 497 0
DWIDTH 7 0
BBX 7 13 0 -2
BITMAP
00
00
00
00
10
10
7C
10
10
00
00
00
00
ENDCHAR

STARTCHAR comma
ENCODING 44
SWIDTH 497 0
DWIDTH 7 0
BBX 7 13 0 -2
BITMAP
00
00
00
00
00
00
00
00
00
38
30
40
00
ENDCHAR

STARTCHAR hyphen
ENCODING 45
SWIDTH 497 0
DWIDTH 7 0
BBX 7 13 0 -2
BITMAP
00
00
00
00
00
00
7C
00
00
00
00
00
00
ENDCHAR

STARTCHAR period
ENCODING 46
SWIDTH 497 0
DWIDTH 7 0
BBX 7 13 0 -2
BITMAP
00
00
00
00
00
00
00
00
00
10
38
10
00
ENDCHAR

STARTCHAR slash
ENCODING 47
SWIDTH 497 0
DWIDTH 7 0
BBX 7 13 0 -2
BITMAP
00
00
04
04
08
08
10
20
20
40
40
00
00
ENDCHAR

STARTCHAR zero
ENCODING 48
SWIDTH 497 0
DWIDTH 7 0
BBX 7 13 0 -2
BITMAP
00
00
30
48
84
84
84
84
84
48
30
00
00
ENDCHAR

STARTCHAR one
ENCODING 49
SWIDTH 497 0
DWIDTH 7 0
BBX 7 13 0 -2
BITMAP
00
00
10
30
50
10
10
10
10
10
7C
00
00
ENDCHAR

STARTCHAR two
ENCODING 50
SWIDTH 497 0
DWIDTH 7 0
BBX 7 13 0 -2
BITMAP
00
00
78
84
84
04
08
30
40
80
FC
00
00
ENDCHAR

STARTCHAR three
ENCODING 51
SWIDTH 497 0
DWIDTH 7 0
BBX 7 13 0 -2
BITMAP
00
00
FC
04
08
10
38
04
04
84
78
00
00
ENDCHAR

STARTCHAR four
ENCODING 52
SWIDTH 497 0
DWIDTH 7 0
BBX 7 13 0 -2
BITMAP
00
00
08
18
28
48
88
88
FC
08
08
00
00
ENDCHAR

STARTCHAR five
ENCODING 53
SWIDTH 497 0
DWIDTH 7 0
BBX 7 13 0 -2
BITMAP
00
00
FC
80
80
B8
C4
04
04
84
78
00
00
ENDCHAR

STARTCHAR six
ENCODING 54
SWIDTH 497 0
DWIDTH 7 0
BBX 7 13 0 -2
BITMAP
00
00
38
40
80
80
B8
C4
84
84
78
00
00
ENDCHAR

STARTCHAR seven
ENCODING 55
SWIDTH 497 0
DWIDTH 7 0
BBX 7 13 0 -2
BITMAP
00
00
FC
04
08
10
10
20
20
40
40
00
00
ENDCHAR

STARTCHAR eight
ENCODING 56
SWIDTH 497 0
DWIDTH 7 0
BBX 7 13 0 -2
BITMAP
00
00
78
84
84
84
78
84
84
84
78
00
00
ENDCHAR

STARTCHAR nine
ENCODING 57
SWIDTH 497 0
DWIDTH 7 0
BBX 7 13 0 -2
BITMAP
00
00
78
84
84
8C
74
04
04
08
70
00
00
ENDCHAR

STARTCHAR colon
ENCODING 58
SWIDTH 497 0
DWIDTH 7 0
BBX 7 13 0 -2
BITMAP
00
00
00
00
10
38
10
00
00
10
38
10
00
ENDCHAR

STARTCHAR semicolon
ENCODING 59
SWIDTH 497 0
DWIDTH 7 0
BBX 7 13 0 -2
BITMAP
00
00
00
00
10
38
10
00
00
38
30
40
00
ENDCHAR

STARTCHAR less
ENCODING 60
SWIDTH 497 0
DWIDTH 7 0
BBX 7 13 0 -2
BITMAP
00
00
04
08
10
20
40
20
10
08
04
00
00
ENDCHAR

STARTCHAR equal
ENCODING 61
SWIDTH 497 0
DWIDTH 7 0
BBX 7 13 0 -2
BITMAP
00
00
00
00
00
FC
00
00
FC
00
00
00
00
ENDCHAR

STARTCHAR greater
ENCODING 62
SWIDTH 497 0
DWIDTH 7 0
BBX 7 13 0 -2
BITMAP
00
00
40
20
10
08
04
08
10
20
40
00
00
ENDCHAR

STARTCHAR question
ENCODING 63
SWIDTH 497 0
DWIDTH 7 0
BBX 7 13 0 -2
BITMAP
00
00
78
84
84
04
08
10
10
00
10
00
00
ENDCHAR

STARTCHAR at
ENCODING 64
SWIDTH 497 0
DWIDTH 7 0
BBX 7 13 0 -2
BITMAP
00
00
78
84
84
9C
A4
AC
94
80
78
00
00
ENDCHAR

STARTCHAR A
ENCODING 65
SWIDTH 497 0
DWIDTH 7 0
BBX 7 13 0 -2
BITMAP
00
00
30
48
84
84
84
FC
84
84
84
00
00
ENDCHAR

STARTCHAR B
ENCODING 66
SWIDTH 497 0
DWIDTH 7 0
BBX 7 13 0 -2
BITMAP
00
00
F8
44
44
44
78
44
44
44
F8
00
00
ENDCHAR

STARTCHAR C
ENCODING 67
SWIDTH 497 0
DWIDTH 7 0
BBX 7 13 0 -2
BITMAP
00
00
78
84
80
80
80
80
80
84
78
00
00
ENDCHAR

STARTCHAR D
ENCODING 68
SWIDTH 497 0
DWIDTH 7 0
BBX 7 13 0 -2
BITMAP
00
00
F8
44
44
44
44
44
44
44
F8
00
00
ENDCHAR

STARTCHAR E
ENCODING 69
SWIDTH 497 0
DWIDTH 7 0
BBX 7 13 0 -2
BITMAP
00
00
FC
80
80
80
F0
80
80
80
FC
00
00
ENDCHAR

STARTCHAR F
ENCODING 70
SWIDTH 497 0
DWIDTH 7 0
BBX 7 13 0 -2
BITMAP
00
00
FC
80
80
80
F0
80
80
80
80
00
00
ENDCHAR

STARTCHAR G
ENCODING 71
SWIDTH 497 0
DWIDTH 7 0
BBX 7 13 0 -2
BITMAP
00
00
78
84
80
80
80
9C
84
8C
74
00
00
ENDCHAR

STARTCHAR H
ENCODING 72
SWIDTH 497 0
DWIDTH 7 0
BBX 7 13 0 -2
BITMAP
00
00
84
84
84
84
FC
84
84
84
84
00
00
ENDCHAR

STARTCHAR I
ENCODING 73
SWIDTH 497 0
DWIDTH 7 0
BBX 7 13 0 -2
BITMAP
00
00
7C
10
10
10
10
10
10
10
7C
00
00
ENDCHAR

STARTCHAR J
ENCODING 74
SWIDTH 497 0
DWIDTH 7 0
BBX 7 13 0 -2
BITMAP
00
00
1C
08
08
08
08
08
08
88
70
00
00
ENDCHAR

STARTCHAR K
ENCODING 75
SWIDTH 497 0
DWIDTH 7 0
BBX 7 13 0 -2
BITMAP
00
00
84
88
90
A0
C0
A0
90
88
84
00
00
ENDCHAR

STARTCHAR L
ENCODING 76
SWIDTH 497 0
DWIDTH 7 0
BBX 7 13 0 -2
BITMAP
00
00
80
80
80
80
80
80
80
80
FC
00
00
ENDCHAR

STARTCHAR M
ENCODING 77
SWIDTH 497 0
DWIDTH 7 0
BBX 7 13 0 -2
BITMAP
00
00
84
CC
CC
B4
B4
84
84
84
84
00
00
ENDCHAR

STARTCHAR N
ENCODING 78
SWIDTH 497 0
DWIDTH 7 0
BBX 7 13 0 -2
BITMAP
00
00
84
84
C4
A4
94
8C
84
84
84
00
00
ENDCHAR

STARTCHAR O
ENCODING 79
SWIDTH 497 0
DWIDTH 7 0
BBX 7 13 0 -2
BITMAP
00
00
78
84
84
84
84
84
84
84
78
00
00
ENDCHAR

STARTCHAR P
ENCODING 80
SWIDTH 497 0
DWIDTH 7 0
BBX 7 13 0 -2
BITMAP
00
00
F8
84
84
84
F8
80
80
80
80
00
00
ENDCHAR

STARTCHAR Q
ENCODING 81
SWIDTH 497 0
DWIDTH 7 0
BBX 7 13 0 -2
BITMAP
00
00
78
84
84
84
84
84
A4
94
78
04
00
ENDCHAR

STARTCHAR R
ENCODING 82
SWIDTH 497 0
DWIDTH 7 0
BBX 7 13 0 -2
BITMAP
00
00
F8
84
84
84
F8
A0
90
88
84
00
00
ENDCHAR

STARTCHAR S
ENCODING 83
SWIDTH 497 0
DWIDTH 7 0
BBX 7 13 0 -2
BITMAP
00
00
78
84
80
80
78
04
04
84
78
00
00
ENDCHAR

STARTCHAR T
ENCODING 84
SWIDTH 497 0
DWIDTH 7 0
BBX 7 13 0 -2
BITMAP
00
00
7C
10
10
10
10
10
10
10
10
00
00
ENDCHAR

STARTCHAR U
ENCODING 85
SWIDTH 497 0
DWIDTH 7 0
BBX 7 13 0 -2
BITMAP
00
00
84
84
84
84
84
84
84
84
78
00
00
ENDCHAR

STARTCHAR V
ENCODING 86
SWIDTH 497 0
DWIDTH 7 0
BBX 7 13 0 -2
BITMAP
00
00
84
84
84
48
48
48
30
30
30
00
00
ENDCHAR

STARTCHAR W
ENCODING 87
SWIDTH 497 0
DWIDTH 7 0
BBX 7 13 0 -2
BITMAP
00
00
84
84
84
84
B4
B4
CC
CC
84
00
00
ENDCHAR

STARTCHAR X
ENCODING 88
SWIDTH 497 0
DWIDTH 7 0
BBX 7 13 0 -2
BITMAP
00
00
84
84
48
48
30
48
48
84
84
00
00
ENDCHAR

STARTCHAR Y
ENCODING 89
SWIDTH 497 0
DWIDTH 7 0
BBX 7 13 0 -2
BITMAP
00
00
44
44
28
28
10
10
10
10
10
00
00
ENDCHAR

STARTCHAR Z
ENCODING 90
SWIDTH 497 0
DWIDTH 7 0
BBX 7 13 0 -2
BITMAP
00
00
FC
04
08
10
30
20
40
80
FC
00
00
ENDCHAR

STARTCHAR bracketleft
ENCODING 91
SWIDTH 497 0
DWIDTH 7 0
BBX 7 13 0 -2
BITMAP
00
78
40
40
40
40
40
40
40
40
40
78
00
ENDCHAR

STARTCHAR backslash
ENCODING 92
SWIDTH 497 0
DWIDTH 7 0
BBX 7 13 0 -2
BITMAP
00
00
40
40
20
20
10
08
08
04
04
00
00
ENDCHAR

STARTCHAR bracketright
ENCODING 93
SWIDTH 497 0
DWIDTH 7 0
BBX 7 13 0 -2
BITMAP
00
78
08
08
08
08
08
08
08
08
08
78
00
ENDCHAR

STARTCHAR asciicircum
ENCODING 94
SWIDTH 497 0
DWIDTH 7 0
BBX 7 13 0 -2
BITMAP
00
00
10
28
44
00
00
00
00
00
00
00
00
ENDCHAR

STARTCHAR underscore
ENCODING 95
SWIDTH 497 0
DWIDTH 7 0
BBX 7 13 0 -2
BITMAP
00
00
00
00
00
00
00
00
00
00
00
FC
00
ENDCHAR

STARTCHAR grave
ENCODING 96
SWIDTH 497 0
DWIDTH 7 0
BBX 7 13 0 -2
BITMAP
00
20
10
00
00
00
00
00
00
00
00
00
00
ENDCHAR

STARTCHAR a
ENCODING 97
SWIDTH 497 0
DWIDTH 7 0
BBX 7 13 0 -2
BITMAP
00
00
00
00
00
78
04
7C
84
8C
74
00
00
ENDCHAR

STARTCHAR b
ENCODING 98
SWIDTH 497 0
DWIDTH 7 0
BBX 7 13 0 -2
BITMAP
00
00
80
80
80
B8
C4
84
84
C4
B8
00
00
ENDCHAR

STARTCHAR c
ENCODING 99
SWIDTH 497 0
DWIDTH 7 0
BBX 7 13 0 -2
BITMAP
00
00
00
00
00
78
84
80
80
84
78
00
00
ENDCHAR

STARTCHAR d
ENCODING 100
SWIDTH 497 0
DWIDTH 7 0
BBX 7 13 0 -2
BITMAP
00
00
04
04
04
74
8C
84
84
8C
74
00
00
ENDCHAR

STARTCHAR e
ENCODING 101
SWIDTH 497 0
DWIDTH 7 0
BBX 7 13 0 -2
BITMAP
00
00
00
00
00
78
84
FC
80
84
78
00
00
ENDCHAR

STARTCHAR f
ENCODING 102
SWIDTH 497 0
DWIDTH 7 0
BBX 7 13 0 -2
BITMAP
00
00
38
44
40
40
F0
40
40
40
40
00
00
ENDCHAR

STARTCHAR g
ENCODING 103
SWIDTH 497 0
DWIDTH 7 0
BBX 7 13 0 -2
BITMAP
00
00
00
00
00
74
88
88
70
80
78
84
78
ENDCHAR

STARTCHAR h
ENCODING 104
SWIDTH 497 0
DWIDTH 7 0
BBX 7 13 0 -2
BITMAP
00
00
80
80
80
B8
C4
84
84
84
84
00
00
ENDCHAR

STARTCHAR i
ENCODING 105
SWIDTH 497 0
DWIDTH 7 0
BBX 7 13 0 -2
BITMAP
00
00
00
10
00
30
10
10
10
10
7C
00
00
ENDCHAR

STARTCHAR j
ENCODING 106
SWIDTH 497 0
DWIDTH 7 0
BBX 7 13 0 -2
BITMAP
00
00
00
04
00
0C
04
04
04
04
44
44
38
ENDCHAR

STARTCHAR k
ENCODING 107
SWIDTH 497 0
DWIDTH 7 0
BBX 7 13 0 -2
BITMAP
00
00
80
80
80
88
90
E0
90
88
84
00
00
ENDCHAR

STARTCHAR l
ENCODING 108
SWIDTH 497 0
DWIDTH 7 0
BBX 7 13 0 -2
BITMAP
00
00
30
10
10
10
10
10
10
10
7C
00
00
ENDCHAR

STARTCHAR m
ENCODING 109
SWIDTH 497 0
DWIDTH 7 0
BBX 7 13 0 -2
BITMAP
00
00
00
00
00
68
54
54
54
54
44
00
00
ENDCHAR

STARTCHAR n
ENCODING 110
SWIDTH 497 0
DWIDTH 7 0
BBX 7 13 0 -2
BITMAP
00
00
00
00
00
B8
C4
84
84
84
84
00
00
ENDCHAR

STARTCHAR o
ENCODING 111
SWIDTH 497 0
DWIDTH 7 0
BBX 7 13 0 -2
BITMAP
00
00
00
00
00
78
84
84
84
84
78
00
00
ENDCHAR

STARTCHAR p
ENCODING 112
SWIDTH 497 0
DWIDTH 7 0
BBX 7 13 0 -2
BITMAP
00
00
00
00
00
B8
C4
84
C4
B8
80
80
80
ENDCHAR

STARTCHAR q
ENCODING 113
SWIDTH 497 0
DWIDTH 7 0
BBX 7 13 0 -2
BITMAP
00
00
00
00
00
74
8C
84
8C
74
04
04
04
ENDCHAR

STARTCHAR r
ENCODING 114
SWIDTH 497 0
DWIDTH 7 0
BBX 7 13 0 -2
BITMAP
00
00
00
00
00
B8
44
40
40
40
40
00
00
ENDCHAR

STARTCHAR s
ENCODING 115
SWIDTH 497 0
DWIDTH 7 0
BBX 7 13 0 -2
BITMAP
00
00
00
00
00
78
84
60
18
84
78
00
00
ENDCHAR

STARTCHAR t
ENCODING 116
SWIDTH 497 0
DWIDTH 7 0
BBX 7 13 0 -2
BITMAP
00
00
00
40
40
F0
40
40
40
44
38
00
00
ENDCHAR

STARTCHAR u
ENCODING 117
SWIDTH 497 0
DWIDTH 7 0
BBX 7 13 0 -2
BITMAP
00
00
00
00
00
84
84
84
84
8C
74
00
00
ENDCHAR

STARTCHAR v
ENCODING 118
SWIDTH 497 0
DWIDTH 7 0
BBX 7 13 0 -2
BITMAP
00
00
00
00
00
44
44
44
28
28
10
00
00
ENDCHAR

STARTCHAR w
ENCODING 119
SWIDTH 497 0
DWIDTH 7 0
BBX 7 13 0 -2
BITMAP
00
00
00
00
00
44
44
54
54
54
28
00
00
ENDCHAR

STARTCHAR x
ENCODING 120
SWIDTH 497 0
DWIDTH 7 0
BBX 7 13 0 -2
BITMAP
00
00
00
00
00
84
48
30
30
48
84
00
00
ENDCHAR

STARTCHAR y
ENCODING 121
SWIDTH 497 0
DWIDTH 7 0
BBX 7 13 0 -2
BITMAP
00
00
00
00
00
84
84
84
8C
74
04
84
78
ENDCHAR

STARTCHAR z
ENCODING 122
SWIDTH 497 0
DWIDTH 7 0
BBX 7 13 0 -2
BITMAP
00
00
00
00
00
FC
08
10
20
40
FC
00
00
ENDCHAR

STARTCHAR braceleft
ENCODING 123
SWIDTH 497 0
DWIDTH 7 0
BBX 7 13 0 -2
BITMAP
00
1C
20
20
20
10
60
10
20
20
20
1C
00
ENDCHAR

STARTCHAR bar
ENCODING 124
SWIDTH 497 0
DWIDTH 7 0
BBX 7 13 0 -2
BITMAP
00
00
10
10
10
10
10
10
10
10
10
00
00
ENDCHAR

STARTCHAR braceright
ENCODING 125
SWIDTH 497 0
DWIDTH 7 0
BBX 7 13 0 -2
BITMAP
00
70
08
08
08
10
0C
10
08
08
08
70
00
ENDCHAR

STARTCHAR asciitilde
ENCODING 126
SWIDTH 497 0
DWIDTH 7 0
BBX 7 13 0 -2
BITMAP
00
00
24
54
48
00
00
00
00
00
00
00
00
ENDCHAR

STARTCHAR space
ENCODING 160
SWIDTH 497 0
DWIDTH 7 0
BBX 7 13 0 -2
BITMAP
00
00
00
00
00
00
00
00
00
00
00
00
00
ENDCHAR

STARTCHAR exclamdown
ENCODING 161
SWIDTH 497 0
DWIDTH 7 0
BBX 7 13 0 -2
BITMAP
00
00
10
00
10
10
10
10
10
10
10
00
00
ENDCHAR

STARTCHAR cent
ENCODING 162
SWIDTH 497 0
DWIDTH 7 0
BBX 7 13 0 -2
BITMAP
00
00
10
38
54
50
50
54
38
10
00
00
00
ENDCHAR

STARTCHAR sterling
ENCODING 163
SWIDTH 497 0
DWIDTH 7 0
BBX 7 13 0 -2
BITMAP
00
00
38
44
40
40
E0
40
40
44
B8
00
00
ENDCHAR

STARTCHAR currency
ENCODING 164
SWIDTH 497 0
DWIDTH 7 0
BBX 7 13 0 -2
BITMAP
00
00
00
00
84
78
48
48
78
84
00
00
00
ENDCHAR

STARTCHAR yen
ENCODING 165
SWIDTH 497 0
DWIDTH 7 0
BBX 7 13 0 -2
BITMAP
00
00
88
88
50
50
F8
20
F8
20
20
00
00
ENDCHAR

STARTCHAR brokenbar
ENCODING 166
SWIDTH 497 0
DWIDTH 7 0
BBX 7 13 0 -2
BITMAP
00
00
10
10
10
10
00
10
10
10
10
00
00
ENDCHAR

STARTCHAR section
ENCODING 167
SWIDTH 497 0
DWIDTH 7 0
BBX 7 13 0 -2
BITMAP
00
30
48
40
30
48
48
30
08
48
30
00
00
ENDCHAR

STARTCHAR dieresis
ENCODING 168
SWIDTH 497 0
DWIDTH 7 0
BBX 7 13 0 -2
BITMAP
00
00
48
48
00
00
00
00
00
00
00
00
00
ENDCHAR

STARTCHAR copyright
ENCODING 169
SWIDTH 497 0
DWIDTH 7 0
BBX 7 13 0 -2
BITMAP
00
00
78
84
B4
A4
A4
A4
B4
84
78
00
00
ENDCHAR

STARTCHAR ordfeminine
ENCODING 170
SWIDTH 497 0
DWIDTH 7 0
BBX 7 13 0 -2
BITMAP
00
00
38
04
3C
44
3C
00
7C
00
00
00
00
ENDCHAR

STARTCHAR guillemotleft
ENCODING 171
SWIDTH 497 0
DWIDTH 7 0
BBX 7 13 0 -2
BITMAP
00
00
00
14
28
50
A0
50
28
14
00
00
00
ENDCHAR

STARTCHAR logicalnot
ENCODING 172
SWIDTH 497 0
DWIDTH 7 0
BBX 7 13 0 -2
BITMAP
00
00
00
00
00
00
7C
04
04
00
00
00
00
ENDCHAR

STARTCHAR hyphen
ENCODING 173
SWIDTH 497 0
DWIDTH 7 0
BBX 7 13 0 -2
BITMAP
00
00
00
00
00
00
78
00
00
00
00
00
00
ENDCHAR

STARTCHAR registered
ENCODING 174
SWIDTH 497 0
DWIDTH 7 0
BBX 7 13 0 -2
BITMAP
00
00
78
84
B4
AC
AC
B4
AC
84
78
00
00
ENDCHAR

STARTCHAR macron
ENCODING 175
SWIDTH 497 0
DWIDTH 7 0
BBX 7 13 0 -2
BITMAP
00
00
7C
00
00
00
00
00
00
00
00
00
00
ENDCHAR

STARTCHAR degree
ENCODING 176
SWIDTH 497 0
DWIDTH 7 0
BBX 7 13 0 -2
BITMAP
00
00
30
48
48
30
00
00
00
00
00
00
00
ENDCHAR

STARTCHAR plusminus
ENCODING 177
SWIDTH 497 0
DWIDTH 7 0
BBX 7 13 0 -2
BITMAP
00
00
00
10
10
7C
10
10
00
7C
00
00
00
ENDCHAR

STARTCHAR twosuperior
ENCODING 178
SWIDTH 497 0
DWIDTH 7 0
BBX 7 13 0 -2
BITMAP
00
20
50
10
20
40
70
00
00
00
00
00
00
ENDCHAR

STARTCHAR threesuperior
ENCODING 179
SWIDTH 497 0
DWIDTH 7 0
BBX 7 13 0 -2
BITMAP
00
70
10
20
10
50
20
00
00
00
00
00
00
ENDCHAR

STARTCHAR acute
ENCODING 180
SWIDTH 497 0
DWIDTH 7 0
BBX 7 13 0 -2
BITMAP
00
10
20
00
00
00
00
00
00
00
00
00
00
ENDCHAR

STARTCHAR mu
ENCODING 181
SWIDTH 497 0
DWIDTH 7 0
BBX 7 13 0 -2
BITMAP
00
00
00
00
00
84
84
84
84
CC
B4
80
00
ENDCHAR

STARTCHAR paragraph
ENCODING 182
SWIDTH 497 0
DWIDTH 7 0
BBX 7 13 0 -2
BITMAP
00
00
7C
E8
E8
E8
68
28
28
28
28
00
00
ENDCHAR

STARTCHAR periodcentered
ENCODING 183
SWIDTH 497 0
DWIDTH 7 0
BBX 7 13 0 -2
BITMAP
00
00
00
00
00
00
30
00
00
00
00
00
00
ENDCHAR

STARTCHAR cedilla
ENCODING 184
SWIDTH 497 0
DWIDTH 7 0
BBX 7 13 0 -2
BITMAP
00
00
00
00
00
00
00
00
00
00
00
10
20
ENDCHAR

STARTCHAR onesuperior
ENCODING 185
SWIDTH 497 0
DWIDTH 7 0
BBX 7 13 0 -2
BITMAP
00
20
60
20
20
20
70
00
00
00
00
00
00
ENDCHAR

STARTCHAR ordmasculine
ENCODING 186
SWIDTH 497 0
DWIDTH 7 0
BBX 7 13 0 -2
BITMAP
00
00
30
48
48
30
00
78
00
00
00
00
00
ENDCHAR

STARTCHAR guillemotright
ENCODING 187
SWIDTH 497 0
DWIDTH 7 0
BBX 7 13 0 -2
BITMAP
00
00
00
A0
50
28
14
28
50
A0
00
00
00
ENDCHAR

STARTCHAR onequarter
ENCODING 188
SWIDTH 497 0
DWIDTH 7 0
BBX 7 13 0 -2
BITMAP
00
40
C0
40
40
44
EC
14
14
1C
04
00
00
ENDCHAR

STARTCHAR onehalf
ENCODING 189
SWIDTH 497 0
DWIDTH 7 0
BBX 7 13 0 -2
BITMAP
00
40
C0
40
40
48
F4
04
08
10
1C
00
00
ENDCHAR

STARTCHAR threequarters
ENCODING 190
SWIDTH 497 0
DWIDTH 7 0
BBX 7 13 0 -2
BITMAP
00
E0
20
40
20
A4
4C
14
14
1C
04
00
00
ENDCHAR

STARTCHAR questiondown
ENCODING 191
SWIDTH 497 0
DWIDTH 7 0
BBX 7 13 0 -2
BITMAP
00
00
20
00
20
20
40
80
84
84
78
00
00
ENDCHAR

STARTCHAR Agrave
ENCODING 192
SWIDTH 497 0
DWIDTH 7 0
BBX 7 13 0 -2
BITMAP
00
20
10
00
30
48
84
84
FC
84
84
00
00
ENDCHAR

STARTCHAR Aacute
ENCODING 193
SWIDTH 497 0
DWIDTH 7 0
BBX 7 13 0 -2
BITMAP
00
10
20
00
30
48
84
84
FC
84
84
00
00
ENDCHAR

STARTCHAR Acircumflex
ENCODING 194
SWIDTH 497 0
DWIDTH 7 0
BBX 7 13 0 -2
BITMAP
00
30
48
00
30
48
84
84
FC
84
84
00
00
ENDCHAR

STARTCHAR Atilde
ENCODING 195
SWIDTH 497 0
DWIDTH 7 0
BBX 7 13 0 -2
BITMAP
00
64
98
00
30
48
84
84
FC
84
84
00
00
ENDCHAR

STARTCHAR Adieresis
ENCODING 196
SWIDTH 497 0
DWIDTH 7 0
BBX 7 13 0 -2
BITMAP
00
48
48
00
30
48
84
84
FC
84
84
00
00
ENDCHAR

STARTCHAR Aring
ENCODING 197
SWIDTH 497 0
DWIDTH 7 0
BBX 7 13 0 -2
BITMAP
00
30
48
30
30
48
84
84
FC
84
84
00
00
ENDCHAR

STARTCHAR AE
ENCODING 198
SWIDTH 497 0
DWIDTH 7 0
BBX 7 13 0 -2
BITMAP
00
00
5C
A0
A0
A0
B8
E0
A0
A0
BC
00
00
ENDCHAR

STARTCHAR Ccedilla
ENCODING 199
SWIDTH 497 0
DWIDTH 7 0
BBX 7 13 0 -2
BITMAP
00
00
78
84
80
80
80
80
80
84
78
10
20
ENDCHAR

STARTCHAR Egrave
ENCODING 200
SWIDTH 497 0
DWIDTH 7 0
BBX 7 13 0 -2
BITMAP
00
20
10
00
FC
80
80
F0
80
80
FC
00
00
ENDCHAR

STARTCHAR Eacute
ENCODING 201
SWIDTH 497 0
DWIDTH 7 0
BBX 7 13 0 -2
BITMAP
00
10
20
00
FC
80
80
F0
80
80
FC
00
00
ENDCHAR

STARTCHAR Ecircumflex
ENCODING 202
SWIDTH 497 0
DWIDTH 7 0
BBX 7 13 0 -2
BITMAP
00
30
48
00
FC
80
80
F0
80
80
FC
00
00
ENDCHAR

STARTCHAR Edieresis
ENCODING 203
SWIDTH 497 0
DWIDTH 7 0
BBX 7 13 0 -2
BITMAP
00
48
48
00
FC
80
80
F0
80
80
FC
00
00
ENDCHAR

STARTCHAR Igrave
ENCODING 204
SWIDTH 497 0
DWIDTH 7 0
BBX 7 13 0 -2
BITMAP
00
20
10
00
7C
10
10
10
10
10
7C
00
00
ENDCHAR

STARTCHAR Iacute
ENCODING 205
SWIDTH 497 0
DWIDTH 7 0
BBX 7 13 0 -2
BITMAP
00
10
20
00
7C
10
10
10
10
10
7C
00
00
ENDCHAR

STARTCHAR Icircumflex
ENCODING 206
SWIDTH 497 0
DWIDTH 7 0
BBX 7 13 0 -2
BITMAP
00
10
28
00
7C
10
10
10
10
10
7C
00
00
ENDCHAR

STARTCHAR Idieresis
ENCODING 207
SWIDTH 497 0
DWIDTH 7 0
BBX 7 13 0 -2
BITMAP
00
44
44
00
7C
10
10
10
10
10
7C
00
00
ENDCHAR

STARTCHAR Eth
ENCODING 208
SWIDTH 497 0
DWIDTH 7 0
BBX 7 13 0 -2
BITMAP
00
00
F8
44
44
44
E4
44
44
44
F8
00
00
ENDCHAR

STARTCHAR Ntilde
ENCODING 209
SWIDTH 497 0
DWIDTH 7 0
BBX 7 13 0 -2
BITMAP
00
64
98
00
84
C4
A4
A4
94
8C
84
00
00
ENDCHAR

STARTCHAR Ograve
ENCODING 210
SWIDTH 497 0
DWIDTH 7 0
BBX 7 13 0 -2
BITMAP
00
20
10
00
78
84
84
84
84
84
78
00
00
ENDCHAR

STARTCHAR Oacute
ENCODING 211
SWIDTH 497 0
DWIDTH 7 0
BBX 7 13 0 -2
BITMAP
00
10
20
00
78
84
84
84
84
84
78
00
00
ENDCHAR

STARTCHAR Ocircumflex
ENCODING 212
SWIDTH 497 0
DWIDTH 7 0
BBX 7 13 0 -2
BITMAP
00
30
48
00
78
84
84
84
84
84
78
00
00
ENDCHAR

STARTCHAR Otilde
ENCODING 213
SWIDTH 497 0
DWIDTH 7 0
BBX 7 13 0 -2
BITMAP
00
64
98
00
78
84
84
84
84
84
78
00
00
ENDCHAR

STARTCHAR Odieresis
ENCODING 214
SWIDTH 497 0
DWIDTH 7 0
BBX 7 13 0 -2
BITMAP
00
48
48
00
78
84
84
84
84
84
78
00
00
ENDCHAR

STARTCHAR multiply
ENCODING 215
SWIDTH 497 0
DWIDTH 7 0
BBX 7 13 0 -2
BITMAP
00
00
00
00
84
48
30
30
48
84
00
00
00
ENDCHAR

STARTCHAR Oslash
ENCODING 216
SWIDTH 497 0
DWIDTH 7 0
BBX 7 13 0 -2
BITMAP
00
04
78
8C
94
94
A4
A4
A4
C4
78
80
00
ENDCHAR

STARTCHAR Ugrave
ENCODING 217
SWIDTH 497 0
DWIDTH 7 0
BBX 7 13 0 -2
BITMAP
00
20
10
00
84
84
84
84
84
84
78
00
00
ENDCHAR

STARTCHAR Uacute
ENCODING 218
SWIDTH 497 0
DWIDTH 7 0
BBX 7 13 0 -2
BITMAP
00
10
20
00
84
84
84
84
84
84
78
00
00
ENDCHAR

STARTCHAR Ucircumflex
ENCODING 219
SWIDTH 497 0
DWIDTH 7 0
BBX 7 13 0 -2
BITMAP
00
30
48
00
84
84
84
84
84
84
78
00
00
ENDCHAR

STARTCHAR Udieresis
ENCODING 220
SWIDTH 497 0
DWIDTH 7 0
BBX 7 13 0 -2
BITMAP
00
48
48
00
84
84
84
84
84
84
78
00
00
ENDCHAR

STARTCHAR Yacute
ENCODING 221
SWIDTH 497 0
DWIDTH 7 0
BBX 7 13 0 -2
BITMAP
00
08
10
00
44
44
28
10
10
10
10
00
00
ENDCHAR

STARTCHAR Thorn
ENCODING 222
SWIDTH 497 0
DWIDTH 7 0
BBX 7 13 0 -2
BITMAP
00
00
80
F8
84
84
84
F8
80
80
80
00
00
ENDCHAR

STARTCHAR germandbls
ENCODING 223
SWIDTH 497 0
DWIDTH 7 0
BBX 7 13 0 -2
BITMAP
00
00
30
48
48
50
50
48
44
44
58
00
00
ENDCHAR

STARTCHAR agrave
ENCODING 224
SWIDTH 497 0
DWIDTH 7 0
BBX 7 13 0 -2
BITMAP
00
00
20
10
00
78
04
7C
84
8C
74
00
00
ENDCHAR

STARTCHAR aacute
ENCODING 225
SWIDTH 497 0
DWIDTH 7 0
BBX 7 13 0 -2
BITMAP
00
00
10
20
00
78
04
7C
84
8C
74
00
00
ENDCHAR

STARTCHAR acircumflex
ENCODING 226
SWIDTH 497 0
DWIDTH 7 0
BBX 7 13 0 -2
BITMAP
00
00
30
48
00
78
04
7C
84
8C
74
00
00
ENDCHAR

STARTCHAR atilde
ENCODING 227
SWIDTH 497 0
DWIDTH 7 0
BBX 7 13 0 -2
BITMAP
00
00
64
98
00
78
04
7C
84
8C
74
00
00
ENDCHAR

STARTCHAR adieresis
ENCODING 228
SWIDTH 497 0
DWIDTH 7 0
BBX 7 13 0 -2
BITMAP
00
00
48
48
00
78
04
7C
84
8C
74
00
00
ENDCHAR

STARTCHAR aring
ENCODING 229
SWIDTH 497 0
DWIDTH 7 0
BBX 7 13 0 -2
BITMAP
00
30
48
30
00
78
04
7C
84
8C
74
00
00
ENDCHAR

STARTCHAR ae
ENCODING 230
SWIDTH 497 0
DWIDTH 7 0
BBX 7 13 0 -2
BITMAP
00
00
00
00
00
68
14
7C
90
94
68
00
00
ENDCHAR

STARTCHAR ccedilla
ENCODING 231
SWIDTH 497 0
DWIDTH 7 0
BBX 7 13 0 -2
BITMAP
00
00
00
00
00
78
84
80
80
84
78
10
20
ENDCHAR

STARTCHAR egrave
ENCODING 232
SWIDTH 497 0
DWIDTH 7 0
BBX 7 13 0 -2
BITMAP
00
00
20
10
00
78
84
FC
80
84
78
00
00
ENDCHAR

STARTCHAR eacute
ENCODING 233
SWIDTH 497 0
DWIDTH 7 0
BBX 7 13 0 -2
BITMAP
00
00
10
20
00
78
84
FC
80
84
78
00
00
ENDCHAR

STARTCHAR ecircumflex
ENCODING 234
SWIDTH 497 0
DWIDTH 7 0
BBX 7 13 0 -2
BITMAP
00
00
30
48
00
78
84
FC
80
84
78
00
00
ENDCHAR

STARTCHAR edieresis
ENCODING 235
SWIDTH 497 0
DWIDTH 7 0
BBX 7 13 0 -2
BITMAP
00
00
48
48
00
78
84
FC
80
84
78
00
00
ENDCHAR

STARTCHAR igrave
ENCODING 236
SWIDTH 497 0
DWIDTH 7 0
BBX 7 13 0 -2
BITMAP
00
00
20
10
00
30
10
10
10
10
7C
00
00
ENDCHAR

STARTCHAR iacute
ENCODING 237
SWIDTH 497 0
DWIDTH 7 0
BBX 7 13 0 -2
BITMAP
00
00
10
20
00
30
10
10
10
10
7C
00
00
ENDCHAR

STARTCHAR icircumflex
ENCODING 238
SWIDTH 497 0
DWIDTH 7 0
BBX 7 13 0 -2
BITMAP
00
00
30
48
00
30
10
10
10
10
7C
00
00
ENDCHAR

STARTCHAR idieresis
ENCODING 239
SWIDTH 497 0
DWIDTH 7 0
BBX 7 13 0 -2
BITMAP
00
00
48
48
00
30
10
10
10
10
7C
00
00
ENDCHAR

STARTCHAR eth
ENCODING 240
SWIDTH 497 0
DWIDTH 7 0
BBX 7 13 0 -2
BITMAP
00
48
30
50
08
78
84
84
84
84
78
00
00
ENDCHAR

STARTCHAR ntilde
ENCODING 241
SWIDTH 497 0
DWIDTH 7 0
BBX 7 13 0 -2
BITMAP
00
00
64
98
00
B8
C4
84
84
84
84
00
00
ENDCHAR

STARTCHAR ograve
ENCODING 242
SWIDTH 497 0
DWIDTH 7 0
BBX 7 13 0 -2
BITMAP
00
00
20
10
00
78
84
84
84
84
78
00
00
ENDCHAR

STARTCHAR oacute
ENCODING 243
SWIDTH 497 0
DWIDTH 7 0
BBX 7 13 0 -2
BITMAP
00
00
10
20
00
78
84
84
84
84
78
00
00
ENDCHAR

STARTCHAR ocircumflex
ENCODING 244
SWIDTH 497 0
DWIDTH 7 0
BBX 7 13 0 -2
BITMAP
00
00
30
48
00
78
84
84
84
84
78
00
00
ENDCHAR

STARTCHAR otilde
ENCODING 245
SWIDTH 497 0
DWIDTH 7 0
BBX 7 13 0 -2
BITMAP
00
00
64
98
00
78
84
84
84
84
78
00
00
ENDCHAR

STARTCHAR odieresis
ENCODING 246
SWIDTH 497 0
DWIDTH 7 0
BBX 7 13 0 -2
BITMAP
00
00
48
48
00
78
84
84
84
84
78
00
00
ENDCHAR

STARTCHAR divide
ENCODING 247
SWIDTH 497 0
DWIDTH 7 0
BBX 7 13 0 -2
BITMAP
00
00
00
10
10
00
7C
00
10
10
00
00
00
ENDCHAR

STARTCHAR oslash
ENCODING 248
SWIDTH 497 0
DWIDTH 7 0
BBX 7 13 0 -2
BITMAP
00
00
00
00
04
78
8C
94
A4
C4
78
80
00
ENDCHAR

STARTCHAR ugrave
ENCODING 249
SWIDTH 497 0
DWIDTH 7 0
BBX 7 13 0 -2
BITMAP
00
00
20
10
00
84
84
84
84
8C
74
00
00
ENDCHAR

STARTCHAR uacute
ENCODING 250
SWIDTH 497 0
DWIDTH 7 0
BBX 7 13 0 -2
BITMAP
00
00
10
20
00
84
84
84
84
8C
74
00
00
ENDCHAR

STARTCHAR ucircumflex
ENCODING 251
SWIDTH 497 0
DWIDTH 7 0
BBX 7 13 0 -2
BITMAP
00
00
30
48
00
84
84
84
84
8C
74
00
00
ENDCHAR

STARTCHAR udieresis
ENCODING 252
SWIDTH 497 0
DWIDTH 7 0
BBX 7 13 0 -2
BITMAP
00
00
48
48
00
84
84
84
84
8C
74
00
00
ENDCHAR

STARTCHAR yacute
ENCODING 253
SWIDTH 497 0
DWIDTH 7 0
BBX 7 13 0 -2
BITMAP
00
00
10
20
00
84
84
84
8C
74
04
84
78
ENDCHAR

STARTCHAR thorn
ENCODING 254
SWIDTH 497 0
DWIDTH 7 0
BBX 7 13 0 -2
BITMAP
00
00
00
80
80
B8
C4
84
84
C4
B8
80
80
ENDCHAR

STARTCHAR ydieresis
ENCODING 255
SWIDTH 497 0
DWIDTH 7 0
BBX 7 13 0 -2
BITMAP
00
00
48
48
00
84
84
84
8C
74
04
84
78
ENDCHAR

STARTCHAR Amacron
ENCODING 256
SWIDTH 497 0
DWIDTH 7 0
BBX 7 13 0 -2
BITMAP
00
78
00
30
48
84
84
FC
84
84
84
00
00
ENDCHAR

STARTCHAR amacron
ENCODING 257
SWIDTH 497 0
DWIDTH 7 0
BBX 7 13 0 -2
BITMAP
00
00
00
78
00
78
04
7C
84
8C
74
00
00
ENDCHAR

STARTCHAR Abreve
ENCODING 258
SWIDTH 497 0
DWIDTH 7 0
BBX 7 13 0 -2
BITMAP
00
84
78
00
30
48
84
84
FC
84
84
00
00
ENDCHAR

STARTCHAR abreve
ENCODING 259
SWIDTH 497 0
DWIDTH 7 0
BBX 7 13 0 -2
BITMAP
00
00
84
78
00
78
04
7C
84
8C
74
00
00
ENDCHAR

STARTCHAR Aogonek
ENCODING 260
SWIDTH 497 0
DWIDTH 7 0
BBX 7 13 0 -2
BITMAP
00
00
30
48
84
84
84
FC
84
84
84
08
06
ENDCHAR

STARTCHAR aogonek
ENCODING 261
SWIDTH 497 0
DWIDTH 7 0
BBX 7 13 0 -2
BITMAP
00
00
00
00
00
78
04
7C
84
84
7C
08
06
ENDCHAR

STARTCHAR Cacute
ENCODING 262
SWIDTH 497 0
DWIDTH 7 0
BBX 7 13 0 -2
BITMAP
00
10
20
00
78
84
80
80
80
84
78
00
00
ENDCHAR

STARTCHAR cacute
ENCODING 263
SWIDTH 497 0
DWIDTH 7 0
BBX 7 13 0 -2
BITMAP
00
00
08
10
00
78
84
80
80
84
78
00
00
ENDCHAR

STARTCHAR Ccircumflex
ENCODING 264
SWIDTH 497 0
DWIDTH 7 0
BBX 7 13 0 -2
BITMAP
00
30
48
00
78
84
80
80
80
84
78
00
00
ENDCHAR

STARTCHAR ccircumflex
ENCODING 265
SWIDTH 497 0
DWIDTH 7 0
BBX 7 13 0 -2
BITMAP
00
00
30
48
00
78
84
80
80
84
78
00
00
ENDCHAR

STARTCHAR Cdotaccent
ENCODING 266
SWIDTH 497 0
DWIDTH 7 0
BBX 7 13 0 -2
BITMAP
00
30
00
78
84
80
80
80
80
84
78
00
00
ENDCHAR

STARTCHAR cdotaccent
ENCODING 267
SWIDTH 497 0
DWIDTH 7 0
BBX 7 13 0 -2
BITMAP
00
00
00
30
00
78
84
80
80
84
78
00
00
ENDCHAR

STARTCHAR Ccaron
ENCODING 268
SWIDTH 497 0
DWIDTH 7 0
BBX 7 13 0 -2
BITMAP
00
48
30
00
78
84
80
80
80
84
78
00
00
ENDCHAR

STARTCHAR ccaron
ENCODING 269
SWIDTH 497 0
DWIDTH 7 0
BBX 7 13 0 -2
BITMAP
00
00
48
30
00
78
84
80
80
84
78
00
00
ENDCHAR

STARTCHAR Dcaron
ENCODING 270
SWIDTH 497 0
DWIDTH 7 0
BBX 7 13 0 -2
BITMAP
00
48
30
00
F8
44
44
44
44
44
F8
00
00
ENDCHAR

STARTCHAR dcaron
ENCODING 271
SWIDTH 497 0
DWIDTH 7 0
BBX 7 13 0 -2
BITMAP
00
48
30
04
04
74
8C
84
84
8C
74
00
00
ENDCHAR

STARTCHAR Dcroat
ENCODING 272
SWIDTH 497 0
DWIDTH 7 0
BBX 7 13 0 -2
BITMAP
00
00
F8
44
44
44
E4
44
44
44
F8
00
00
ENDCHAR

STARTCHAR dcroat
ENCODING 273
SWIDTH 497 0
DWIDTH 7 0
BBX 7 13 0 -2
BITMAP
00
00
04
1E
04
74
8C
84
84
8C
74
00
00
ENDCHAR

STARTCHAR Emacron
ENCODING 274
SWIDTH 497 0
DWIDTH 7 0
BBX 7 13 0 -2
BITMAP
00
00
78
00
FC
80
80
F0
80
80
FC
00
00
ENDCHAR

STARTCHAR emacron
ENCODING 275
SWIDTH 497 0
DWIDTH 7 0
BBX 7 13 0 -2
BITMAP
00
00
00
78
00
78
84
FC
80
84
78
00
00
ENDCHAR

STARTCHAR Ebreve
ENCODING 276
SWIDTH 497 0
DWIDTH 7 0
BBX 7 13 0 -2
BITMAP
00
84
78
00
FC
80
80
F0
80
80
FC
00
00
ENDCHAR

STARTCHAR ebreve
ENCODING 277
SWIDTH 497 0
DWIDTH 7 0
BBX 7 13 0 -2
BITMAP
00
00
84
78
00
78
84
FC
80
84
78
00
00
ENDCHAR

STARTCHAR Edotaccent
ENCODING 278
SWIDTH 497 0
DWIDTH 7 0
BBX 7 13 0 -2
BITMAP
00
30
00
FC
80
80
F0
80
80
80
FC
00
00
ENDCHAR

STARTCHAR edotaccent
ENCODING 279
SWIDTH 497 0
DWIDTH 7 0
BBX 7 13 0 -2
BITMAP
00
00
00
30
00
78
84
FC
80
84
78
00
00
ENDCHAR

STARTCHAR Eogonek
ENCODING 280
SWIDTH 497 0
DWIDTH 7 0
BBX 7 13 0 -2
BITMAP
00
00
FC
80
80
80
F0
80
80
80
FC
20
18
ENDCHAR

STARTCHAR eogonek
ENCODING 281
SWIDTH 497 0
DWIDTH 7 0
BBX 7 13 0 -2
BITMAP
00
00
00
00
00
78
84
FC
80
84
78
40
30
ENDCHAR

STARTCHAR Ecaron
ENCODING 282
SWIDTH 497 0
DWIDTH 7 0
BBX 7 13 0 -2
BITMAP
00
48
30
00
FC
80
80
F0
80
80
FC
00
00
ENDCHAR

STARTCHAR ecaron
ENCODING 283
SWIDTH 497 0
DWIDTH 7 0
BBX 7 13 0 -2
BITMAP
00
00
48
30
00
78
84
FC
80
84
78
00
00
ENDCHAR

STARTCHAR Gcircumflex
ENCODING 284
SWIDTH 497 0
DWIDTH 7 0
BBX 7 13 0 -2
BITMAP
00
30
48
00
78
84
80
9C
84
8C
74
00
00
ENDCHAR

STARTCHAR gcircumflex
ENCODING 285
SWIDTH 497 0
DWIDTH 7 0
BBX 7 13 0 -2
BITMAP
00
00
30
48
00
74
88
88
70
80
78
84
78
ENDCHAR

STARTCHAR Gbreve
ENCODING 286
SWIDTH 497 0
DWIDTH 7 0
BBX 7 13 0 -2
BITMAP
00
84
78
00
78
84
80
9C
84
8C
74
00
00
ENDCHAR

STARTCHAR gbreve
ENCODING 287
SWIDTH 497 0
DWIDTH 7 0
BBX 7 13 0 -2
BITMAP
00
00
84
78
00
74
88
88
70
80
78
84
78
ENDCHAR

STARTCHAR Gdotaccent
ENCODING 288
SWIDTH 497 0
DWIDTH 7 0
BBX 7 13 0 -2
BITMAP
00
30
00
78
84
80
80
9C
84
8C
74
00
00
ENDCHAR

STARTCHAR gdotaccent
ENCODING 289
SWIDTH 497 0
DWIDTH 7 0
BBX 7 13 0 -2
BITMAP
00
00
00
30
00
74
88
88
70
80
78
84
78
ENDCHAR

STARTCHAR Gcommaaccent
ENCODING 290
SWIDTH 497 0
DWIDTH 7 0
BBX 7 13 0 -2
BITMAP
00
00
78
84
80
80
80
9C
84
8C
74
10
20
ENDCHAR

STARTCHAR gcommaaccent
ENCODING 291
SWIDTH 497 0
DWIDTH 7 0
BBX 7 13 0 -2
BITMAP
00
10
20
30
00
74
88
88
70
80
78
84
78
ENDCHAR

STARTCHAR Hcircumflex
ENCODING 292
SWIDTH 497 0
DWIDTH 7 0
BBX 7 13 0 -2
BITMAP
00
30
48
00
84
84
84
FC
84
84
84
00
00
ENDCHAR

STARTCHAR hcircumflex
ENCODING 293
SWIDTH 497 0
DWIDTH 7 0
BBX 7 13 0 -2
BITMAP
00
18
24
80
80
80
B8
C4
84
84
84
00
00
ENDCHAR

STARTCHAR Hbar
ENCODING 294
SWIDTH 497 0
DWIDTH 7 0
BBX 7 13 0 -2
BITMAP
00
00
44
44
FE
44
7C
44
44
44
44
00
00
ENDCHAR

STARTCHAR hbar
ENCODING 295
SWIDTH 497 0
DWIDTH 7 0
BBX 7 13 0 -2
BITMAP
00
00
40
F8
40
58
64
44
44
44
44
00
00
ENDCHAR

STARTCHAR Itilde
ENCODING 296
SWIDTH 497 0
DWIDTH 7 0
BBX 7 13 0 -2
BITMAP
00
24
58
00
7C
10
10
10
10
10
7C
00
00
ENDCHAR

STARTCHAR itilde
ENCODING 297
SWIDTH 497 0
DWIDTH 7 0
BBX 7 13 0 -2
BITMAP
00
00
24
58
00
30
10
10
10
10
7C
00
00
ENDCHAR

STARTCHAR Imacron
ENCODING 298
SWIDTH 497 0
DWIDTH 7 0
BBX 7 13 0 -2
BITMAP
00
7C
00
7C
10
10
10
10
10
10
7C
00
00
ENDCHAR

STARTCHAR imacron
ENCODING 299
SWIDTH 497 0
DWIDTH 7 0
BBX 7 13 0 -2
BITMAP
00
00
00
7C
00
30
10
10
10
10
7C
00
00
ENDCHAR

STARTCHAR Ibreve
ENCODING 300
SWIDTH 497 0
DWIDTH 7 0
BBX 7 13 0 -2
BITMAP
00
44
38
00
7C
10
10
10
10
10
7C
00
00
ENDCHAR

STARTCHAR ibreve
ENCODING 301
SWIDTH 497 0
DWIDTH 7 0
BBX 7 13 0 -2
BITMAP
00
00
44
38
00
30
10
10
10
10
7C
00
00
ENDCHAR

STARTCHAR Iogonek
ENCODING 302
SWIDTH 497 0
DWIDTH 7 0
BBX 7 13 0 -2
BITMAP
00
00
7C
10
10
10
10
10
10
10
7C
20
18
ENDCHAR

STARTCHAR iogonek
ENCODING 303
SWIDTH 497 0
DWIDTH 7 0
BBX 7 13 0 -2
BITMAP
00
00
00
10
00
30
10
10
10
10
7C
20
18
ENDCHAR

STARTCHAR Idotaccent
ENCODING 304
SWIDTH 497 0
DWIDTH 7 0
BBX 7 13 0 -2
BITMAP
00
10
00
7C
10
10
10
10
10
10
7C
00
00
ENDCHAR

STARTCHAR dotlessi
ENCODING 305
SWIDTH 497 0
DWIDTH 7 0
BBX 7 13 0 -2
BITMAP
00
00
00
00
00
30
10
10
10
10
7C
00
00
ENDCHAR

STARTCHAR IJ
ENCODING 306
SWIDTH 497 0
DWIDTH 7 0
BBX 7 13 0 -2
BITMAP
00
00
9C
88
88
88
88
88
88
A8
90
00
00
ENDCHAR

STARTCHAR ij
ENCODING 307
SWIDTH 497 0
DWIDTH 7 0
BBX 7 13 0 -2
BITMAP
00
00
00
44
00
4C
44
44
44
44
54
14
08
ENDCHAR

STARTCHAR Jcircumflex
ENCODING 308
SWIDTH 497 0
DWIDTH 7 0
BBX 7 13 0 -2
BITMAP
00
18
24
00
1C
08
08
08
08
88
70
00
00
ENDCHAR

STARTCHAR jcircumflex
ENCODING 309
SWIDTH 497 0
DWIDTH 7 0
BBX 7 13 0 -2
BITMAP
00
00
18
24
00
18
08
08
08
08
88
88
70
ENDCHAR

STARTCHAR Kcommaaccent
ENCODING 310
SWIDTH 497 0
DWIDTH 7 0
BBX 7 13 0 -2
BITMAP
00
00
84
88
90
A0
C0
A0
90
88
84
40
80
ENDCHAR

STARTCHAR kcommaaccent
ENCODING 311
SWIDTH 497 0
DWIDTH 7 0
BBX 7 13 0 -2
BITMAP
00
00
80
80
80
88
90
E0
90
88
84
40
80
ENDCHAR

STARTCHAR kgreenlandic
ENCODING 312
SWIDTH 497 0
DWIDTH 7 0
BBX 7 13 0 -2
BITMAP
00
00
00
00
84
88
90
E0
90
88
84
00
00
ENDCHAR

STARTCHAR Lacute
ENCODING 313
SWIDTH 497 0
DWIDTH 7 0
BBX 7 13 0 -2
BITMAP
00
40
80
00
80
80
80
80
80
80
FC
00
00
ENDCHAR

STARTCHAR lacute
ENCODING 314
SWIDTH 497 0
DWIDTH 7 0
BBX 7 13 0 -2
BITMAP
00
10
20
00
30
10
10
10
10
10
7C
00
00
ENDCHAR

STARTCHAR Lcommaaccent
ENCODING 315
SWIDTH 497 0
DWIDTH 7 0
BBX 7 13 0 -2
BITMAP
00
00
80
80
80
80
80
80
80
80
FC
10
20
ENDCHAR

STARTCHAR lcommaaccent
ENCODING 316
SWIDTH 497 0
DWIDTH 7 0
BBX 7 13 0 -2
BITMAP
00
00
30
10
10
10
10
10
10
10
7C
10
20
ENDCHAR

STARTCHAR Lcaron
ENCODING 317
SWIDTH 497 0
DWIDTH 7 0
BBX 7 13 0 -2
BITMAP
00
90
60
00
80
80
80
80
80
80
FC
00
00
ENDCHAR

STARTCHAR lcaron
ENCODING 318
SWIDTH 497 0
DWIDTH 7 0
BBX 7 13 0 -2
BITMAP
00
48
30
00
30
10
10
10
10
10
7C
00
00
ENDCHAR

STARTCHAR Ldot
ENCODING 319
SWIDTH 497 0
DWIDTH 7 0
BBX 7 13 0 -2
BITMAP
00
00
80
80
80
90
90
80
80
80
FC
00
00
ENDCHAR

STARTCHAR ldot
ENCODING 320
SWIDTH 497 0
DWIDTH 7 0
BBX 7 13 0 -2
BITMAP
00
00
60
20
20
24
24
20
20
20
F8
00
00
ENDCHAR

STARTCHAR Lslash
ENCODING 321
SWIDTH 497 0
DWIDTH 7 0
BBX 7 13 0 -2
BITMAP
00
00
40
40
50
60
C0
40
40
40
7C
00
00
ENDCHAR

STARTCHAR lslash
ENCODING 322
SWIDTH 497 0
DWIDTH 7 0
BBX 7 13 0 -2
BITMAP
00
00
60
20
28
30
60
20
20
20
F8
00
00
ENDCHAR

STARTCHAR Nacute
ENCODING 323
SWIDTH 497 0
DWIDTH 7 0
BBX 7 13 0 -2
BITMAP
00
10
20
00
84
C4
A4
A4
94
8C
84
00
00
ENDCHAR

STARTCHAR nacute
ENCODING 324
SWIDTH 497 0
DWIDTH 7 0
BBX 7 13 0 -2
BITMAP
00
00
10
20
00
B8
C4
84
84
84
84
00
00
ENDCHAR

STARTCHAR Ncommaaccent
ENCODING 325
SWIDTH 497 0
DWIDTH 7 0
BBX 7 13 0 -2
BITMAP
00
00
84
84
C4
A4
94
8C
84
84
84
40
80
ENDCHAR

STARTCHAR ncommaaccent
ENCODING 326
SWIDTH 497 0
DWIDTH 7 0
BBX 7 13 0 -2
BITMAP
00
00
00
00
00
B8
C4
84
84
84
84
40
80
ENDCHAR

STARTCHAR Ncaron
ENCODING 327
SWIDTH 497 0
DWIDTH 7 0
BBX 7 13 0 -2
BITMAP
00
48
30
00
84
C4
A4
A4
94
8C
84
00
00
ENDCHAR

STARTCHAR ncaron
ENCODING 328
SWIDTH 497 0
DWIDTH 7 0
BBX 7 13 0 -2
BITMAP
00
00
48
30
00
B8
C4
84
84
84
84
00
00
ENDCHAR

STARTCHAR napostrophe
ENCODING 329
SWIDTH 497 0
DWIDTH 7 0
BBX 7 13 0 -2
BITMAP
00
C0
40
80
00
58
64
44
44
44
44
00
00
ENDCHAR

STARTCHAR Eng
ENCODING 330
SWIDTH 497 0
DWIDTH 7 0
BBX 7 13 0 -2
BITMAP
00
00
84
84
C4
A4
94
8C
84
84
84
04
18
ENDCHAR

STARTCHAR eng
ENCODING 331
SWIDTH 497 0
DWIDTH 7 0
BBX 7 13 0 -2
BITMAP
00
00
00
00
00
B8
C4
84
84
84
84
04
18
ENDCHAR

STARTCHAR Omacron
ENCODING 332
SWIDTH 497 0
DWIDTH 7 0
BBX 7 13 0 -2
BITMAP
00
00
78
00
78
84
84
84
84
84
78
00
00
ENDCHAR

STARTCHAR omacron
ENCODING 333
SWIDTH 497 0
DWIDTH 7 0
BBX 7 13 0 -2
BITMAP
00
00
00
78
00
78
84
84
84
84
78
00
00
ENDCHAR

STARTCHAR Obreve
ENCODING 334
SWIDTH 497 0
DWIDTH 7 0
BBX 7 13 0 -2
BITMAP
00
84
78
00
78
84
84
84
84
84
78
00
00
ENDCHAR

STARTCHAR obreve
ENCODING 335
SWIDTH 497 0
DWIDTH 7 0
BBX 7 13 0 -2
BITMAP
00
00
84
78
00
78
84
84
84
84
78
00
00
ENDCHAR

STARTCHAR Ohungarumlaut
ENCODING 336
SWIDTH 497 0
DWIDTH 7 0
BBX 7 13 0 -2
BITMAP
00
24
48
00
78
84
84
84
84
84
78
00
00
ENDCHAR

STARTCHAR ohungarumlaut
ENCODING 337
SWIDTH 497 0
DWIDTH 7 0
BBX 7 13 0 -2
BITMAP
00
00
24
48
00
78
84
84
84
84
78
00
00
ENDCHAR

STARTCHAR OE
ENCODING 338
SWIDTH 497 0
DWIDTH 7 0
BBX 7 13 0 -2
BITMAP
00
00
7C
90
90
90
9C
90
90
90
7C
00
00
ENDCHAR

STARTCHAR oe
ENCODING 339
SWIDTH 497 0
DWIDTH 7 0
BBX 7 13 0 -2
BITMAP
00
00
00
00
00
68
94
9C
90
94
68
00
00
ENDCHAR

STARTCHAR Racute
ENCODING 340
SWIDTH 497 0
DWIDTH 7 0
BBX 7 13 0 -2
BITMAP
00
10
20
00
F8
84
84
F8
90
88
84
00
00
ENDCHAR

STARTCHAR racute
ENCODING 341
SWIDTH 497 0
DWIDTH 7 0
BBX 7 13 0 -2
BITMAP
00
00
10
20
00
B8
44
40
40
40
40
00
00
ENDCHAR

STARTCHAR Rcommaaccent
ENCODING 342
SWIDTH 497 0
DWIDTH 7 0
BBX 7 13 0 -2
BITMAP
00
00
F8
84
84
84
FC
A0
90
88
84
40
80
ENDCHAR

STARTCHAR rcommaaccent
ENCODING 343
SWIDTH 497 0
DWIDTH 7 0
BBX 7 13 0 -2
BITMAP
00
00
00
00
00
B8
44
40
40
40
40
40
80
ENDCHAR

STARTCHAR Rcaron
ENCODING 344
SWIDTH 497 0
DWIDTH 7 0
BBX 7 13 0 -2
BITMAP
00
48
30
00
F8
84
84
F8
90
88
84
00
00
ENDCHAR

STARTCHAR rcaron
ENCODING 345
SWIDTH 497 0
DWIDTH 7 0
BBX 7 13 0 -2
BITMAP
00
00
48
30
00
B8
44
40
40
40
40
00
00
ENDCHAR

STARTCHAR Sacute
ENCODING 346
SWIDTH 497 0
DWIDTH 7 0
BBX 7 13 0 -2
BITMAP
00
10
20
00
78
84
80
78
04
84
78
00
00
ENDCHAR

STARTCHAR sacute
ENCODING 347
SWIDTH 497 0
DWIDTH 7 0
BBX 7 13 0 -2
BITMAP
00
00
10
20
00
78
84
60
18
84
78
00
00
ENDCHAR

STARTCHAR Scircumflex
ENCODING 348
SWIDTH 497 0
DWIDTH 7 0
BBX 7 13 0 -2
BITMAP
00
30
48
00
78
84
80
78
04
84
78
00
00
ENDCHAR

STARTCHAR scircumflex
ENCODING 349
SWIDTH 497 0
DWIDTH 7 0
BBX 7 13 0 -2
BITMAP
00
00
30
48
00
78
84
60
18
84
78
00
00
ENDCHAR

STARTCHAR Scedilla
ENCODING 350
SWIDTH 497 0
DWIDTH 7 0
BBX 7 13 0 -2
BITMAP
00
00
78
84
80
80
78
04
04
84
78
10
20
ENDCHAR

STARTCHAR scedilla
ENCODING 351
SWIDTH 497 0
DWIDTH 7 0
BBX 7 13 0 -2
BITMAP
00
00
00
00
00
78
84
60
18
84
78
10
20
ENDCHAR

STARTCHAR Scaron
ENCODING 352
SWIDTH 497 0
DWIDTH 7 0
BBX 7 13 0 -2
BITMAP
00
48
30
00
78
84
80
78
04
84
78
00
00
ENDCHAR

STARTCHAR scaron
ENCODING 353
SWIDTH 497 0
DWIDTH 7 0
BBX 7 13 0 -2
BITMAP
00
00
48
30
00
78
84
60
18
84
78
00
00
ENDCHAR

STARTCHAR Tcommaaccent
ENCODING 354
SWIDTH 497 0
DWIDTH 7 0
BBX 7 13 0 -2
BITMAP
00
00
7C
10
10
10
10
10
10
10
10
08
10
ENDCHAR

STARTCHAR tcommaaccent
ENCODING 355
SWIDTH 497 0
DWIDTH 7 0
BBX 7 13 0 -2
BITMAP
00
00
00
40
40
F0
40
40
40
44
38
10
20
ENDCHAR

STARTCHAR Tcaron
ENCODING 356
SWIDTH 497 0
DWIDTH 7 0
BBX 7 13 0 -2
BITMAP
00
24
18
00
7C
10
10
10
10
10
10
00
00
ENDCHAR

STARTCHAR tcaron
ENCODING 357
SWIDTH 497 0
DWIDTH 7 0
BBX 7 13 0 -2
BITMAP
00
48
30
00
40
F0
40
40
40
44
38
00
00
ENDCHAR

STARTCHAR Tbar
ENCODING 358
SWIDTH 497 0
DWIDTH 7 0
BBX 7 13 0 -2
BITMAP
00
00
7C
10
10
10
7C
10
10
10
10
00
00
ENDCHAR

STARTCHAR tbar
ENCODING 359
SWIDTH 497 0
DWIDTH 7 0
BBX 7 13 0 -2
BITMAP
00
00
40
F0
40
40
F0
40
40
44
38
00
00
ENDCHAR

STARTCHAR Utilde
ENCODING 360
SWIDTH 497 0
DWIDTH 7 0
BBX 7 13 0 -2
BITMAP
00
64
98
00
84
84
84
84
84
84
78
00
00
ENDCHAR

STARTCHAR utilde
ENCODING 361
SWIDTH 497 0
DWIDTH 7 0
BBX 7 13 0 -2
BITMAP
00
00
64
98
00
84
84
84
84
8C
74
00
00
ENDCHAR

STARTCHAR Umacron
ENCODING 362
SWIDTH 497 0
DWIDTH 7 0
BBX 7 13 0 -2
BITMAP
00
00
78
00
84
84
84
84
84
84
78
00
00
ENDCHAR

STARTCHAR umacron
ENCODING 363
SWIDTH 497 0
DWIDTH 7 0
BBX 7 13 0 -2
BITMAP
00
00
00
78
00
84
84
84
84
8C
74
00
00
ENDCHAR

STARTCHAR Ubreve
ENCODING 364
SWIDTH 497 0
DWIDTH 7 0
BBX 7 13 0 -2
BITMAP
00
84
78
00
84
84
84
84
84
84
78
00
00
ENDCHAR

STARTCHAR ubreve
ENCODING 365
SWIDTH 497 0
DWIDTH 7 0
BBX 7 13 0 -2
BITMAP
00
00
84
78
00
84
84
84
84
8C
74
00
00
ENDCHAR

STARTCHAR Uring
ENCODING 366
SWIDTH 497 0
DWIDTH 7 0
BBX 7 13 0 -2
BITMAP
00
30
48
30
84
84
84
84
84
84
78
00
00
ENDCHAR

STARTCHAR uring
ENCODING 367
SWIDTH 497 0
DWIDTH 7 0
BBX 7 13 0 -2
BITMAP
00
30
48
30
00
84
84
84
84
8C
74
00
00
ENDCHAR

STARTCHAR Uhungarumlaut
ENCODING 368
SWIDTH 497 0
DWIDTH 7 0
BBX 7 13 0 -2
BITMAP
00
24
48
00
84
84
84
84
84
84
78
00
00
ENDCHAR

STARTCHAR uhungarumlaut
ENCODING 369
SWIDTH 497 0
DWIDTH 7 0
BBX 7 13 0 -2
BITMAP
00
00
24
48
00
84
84
84
84
8C
74
00
00
ENDCHAR

STARTCHAR Uogonek
ENCODING 370
SWIDTH 497 0
DWIDTH 7 0
BBX 7 13 0 -2
BITMAP
00
00
84
84
84
84
84
84
84
84
78
20
10
ENDCHAR

STARTCHAR uogonek
ENCODING 371
SWIDTH 497 0
DWIDTH 7 0
BBX 7 13 0 -2
BITMAP
00
00
00
00
00
84
84
84
84
8C
74
20
10
ENDCHAR

STARTCHAR Wcircumflex
ENCODING 372
SWIDTH 497 0
DWIDTH 7 0
BBX 7 13 0 -2
BITMAP
00
30
48
00
84
84
B4
B4
CC
CC
84
00
00
ENDCHAR

STARTCHAR wcircumflex
ENCODING 373
SWIDTH 497 0
DWIDTH 7 0
BBX 7 13 0 -2
BITMAP
00
00
10
28
00
44
44
54
54
54
28
00
00
ENDCHAR

STARTCHAR Ycircumflex
ENCODING 374
SWIDTH 497 0
DWIDTH 7 0
BBX 7 13 0 -2
BITMAP
00
10
28
00
44
44
28
10
10
10
10
00
00
ENDCHAR

STARTCHAR ycircumflex
ENCODING 375
SWIDTH 497 0
DWIDTH 7 0
BBX 7 13 0 -2
BITMAP
00
00
30
48
00
84
84
84
8C
74
04
84
78
ENDCHAR

STARTCHAR Ydieresis
ENCODING 376
SWIDTH 497 0
DWIDTH 7 0
BBX 7 13 0 -2
BITMAP
00
44
44
00
44
44
28
10
10
10
10
00
00
ENDCHAR

STARTCHAR Zacute
ENCODING 377
SWIDTH 497 0
DWIDTH 7 0
BBX 7 13 0 -2
BITMAP
00
10
20
00
FC
08
10
20
40
80
FC
00
00
ENDCHAR

STARTCHAR zacute
ENCODING 378
SWIDTH 497 0
DWIDTH 7 0
BBX 7 13 0 -2
BITMAP
00
00
10
20
00
FC
08
10
20
40
FC
00
00
ENDCHAR

STARTCHAR Zdotaccent
ENCODING 379
SWIDTH 497 0
DWIDTH 7 0
BBX 7 13 0 -2
BITMAP
00
30
00
FC
04
08
10
20
40
80
FC
00
00
ENDCHAR

STARTCHAR zdotaccent
ENCODING 380
SWIDTH 497 0
DWIDTH 7 0
BBX 7 13 0 -2
BITMAP
00
00
00
30
00
FC
08
10
20
40
FC
00
00
ENDCHAR

STARTCHAR Zcaron
ENCODING 381
SWIDTH 497 0
DWIDTH 7 0
BBX 7 13 0 -2
BITMAP
00
48
30
00
FC
08
10
20
40
80
FC
00
00
ENDCHAR

STARTCHAR zcaron
ENCODING 382
SWIDTH 497 0
DWIDTH 7 0
BBX 7 13 0 -2
BITMAP
00
00
48
30
00
FC
08
10
20
40
FC
00
00
ENDCHAR

STARTCHAR longs
ENCODING 383
SWIDTH 497 0
DWIDTH 7 0
BBX 7 13 0 -2
BITMAP
00
00
30
48
40
C0
40
40
40
40
40
00
00
ENDCHAR

STARTCHAR uni0180
ENCODING 384
SWIDTH 497 0
DWIDTH 7 0
BBX 7 13 0 -2
BITMAP
00
00
40
F0
40
78
44
44
44
44
78
00
00
ENDCHAR

STARTCHAR uni0181
ENCODING 385
SWIDTH 497 0
DWIDTH 7 0
BBX 7 13 0 -2
BITMAP
00
00
F8
24
24
24
38
24
24
24
38
00
00
ENDCHAR

STARTCHAR uni0182
ENCODING 386
SWIDTH 497 0
DWIDTH 7 0
BBX 7 13 0 -2
BITMAP
00
00
F8
40
40
40
78
44
44
44
F8
00
00
ENDCHAR

STARTCHAR uni0183
ENCODING 387
SWIDTH 497 0
DWIDTH 7 0
BBX 7 13 0 -2
BITMAP
00
00
F8
80
80
B8
C4
84
84
C4
B8
00
00
ENDCHAR

STARTCHAR uni0184
ENCODING 388
SWIDTH 497 0
DWIDTH 7 0
BBX 7 13 0 -2
BITMAP
00
00
20
60
E0
E0
38
24
24
24
78
00
00
ENDCHAR

STARTCHAR uni0185
ENCODING 389
SWIDTH 497 0
DWIDTH 7 0
BBX 7 13 0 -2
BITMAP
00
00
40
C0
C0
D8
64
44
44
64
58
00
00
ENDCHAR

STARTCHAR uni0186
ENCODING 390
SWIDTH 497 0
DWIDTH 7 0
BBX 7 13 0 -2
BITMAP
00
00
78
84
04
04
04
04
04
84
78
00
00
ENDCHAR

STARTCHAR uni0187
ENCODING 391
SWIDTH 497 0
DWIDTH 7 0
BBX 7 13 0 -2
BITMAP
00
06
7C
84
80
80
80
80
80
84
78
00
00
ENDCHAR

STARTCHAR uni0188
ENCODING 392
SWIDTH 497 0
DWIDTH 7 0
BBX 7 13 0 -2
BITMAP
00
00
00
00
06
7C
84
80
80
84
78
00
00
ENDCHAR

STARTCHAR uni0189
ENCODING 393
SWIDTH 497 0
DWIDTH 7 0
BBX 7 13 0 -2
BITMAP
00
00
F8
44
44
44
E4
44
44
44
F8
00
00
ENDCHAR

STARTCHAR uni018A
ENCODING 394
SWIDTH 497 0
DWIDTH 7 0
BBX 7 13 0 -2
BITMAP
00
00
F8
24
24
24
24
24
24
24
38
00
00
ENDCHAR

STARTCHAR uni018B
ENCODING 395
SWIDTH 497 0
DWIDTH 7 0
BBX 7 13 0 -2
BITMAP
00
00
7C
04
04
7C
84
84
84
84
7C
00
00
ENDCHAR

STARTCHAR uni018C
ENCODING 396
SWIDTH 497 0
DWIDTH 7 0
BBX 7 13 0 -2
BITMAP
00
00
3C
04
04
34
4C
44
44
4C
34
00
00
ENDCHAR

STARTCHAR uni018D
ENCODING 397
SWIDTH 497 0
DWIDTH 7 0
BBX 7 13 0 -2
BITMAP
00
00
00
00
00
78
84
84
84
84
78
48
30
ENDCHAR

STARTCHAR uni018E
ENCODING 398
SWIDTH 497 0
DWIDTH 7 0
BBX 7 13 0 -2
BITMAP
00
00
FC
04
04
04
3C
04
04
04
FC
00
00
ENDCHAR

STARTCHAR uni018F
ENCODING 399
SWIDTH 497 0
DWIDTH 7 0
BBX 7 13 0 -2
BITMAP
00
00
78
84
04
04
FC
84
84
84
78
00
00
ENDCHAR

STARTCHAR uni0190
ENCODING 400
SWIDTH 497 0
DWIDTH 7 0
BBX 7 13 0 -2
BITMAP
00
00
78
84
80
80
70
80
80
84
78
00
00
ENDCHAR

STARTCHAR uni0191
ENCODING 401
SWIDTH 497 0
DWIDTH 7 0
BBX 7 13 0 -2
BITMAP
00
00
7C
40
40
40
70
40
40
40
40
80
00
ENDCHAR

STARTCHAR florin
ENCODING 402
SWIDTH 497 0
DWIDTH 7 0
BBX 7 13 0 -2
BITMAP
00
00
18
24
20
20
78
20
20
20
A0
40
00
ENDCHAR

STARTCHAR uni0193
ENCODING 403
SWIDTH 497 0
DWIDTH 7 0
BBX 7 13 0 -2
BITMAP
00
0C
78
88
80
80
80
B8
88
98
68
00
00
ENDCHAR

STARTCHAR uni0194
ENCODING 404
SWIDTH 497 0
DWIDTH 7 0
BBX 7 13 0 -2
BITMAP
00
00
84
84
84
48
48
48
30
48
48
30
00
ENDCHAR

STARTCHAR uni0195
ENCODING 405
SWIDTH 497 0
DWIDTH 7 0
BBX 7 13 0 -2
BITMAP
00
00
80
80
80
C8
A4
A4
A4
A4
98
00
00
ENDCHAR

STARTCHAR uni0196
ENCODING 406
SWIDTH 497 0
DWIDTH 7 0
BBX 7 13 0 -2
BITMAP
00
00
60
20
20
20
20
20
20
20
18
00
00
ENDCHAR

STARTCHAR uni0197
ENCODING 407
SWIDTH 497 0
DWIDTH 7 0
BBX 7 13 0 -2
BITMAP
00
00
7C
10
10
10
38
10
10
10
7C
00
00
ENDCHAR

STARTCHAR uni0198
ENCODING 408
SWIDTH 497 0
DWIDTH 7 0
BBX 7 13 0 -2
BITMAP
00
00
84
8A
92
A0
C0
A0
90
88
84
00
00
ENDCHAR

STARTCHAR uni0199
ENCODING 409
SWIDTH 497 0
DWIDTH 7 0
BBX 7 13 0 -2
BITMAP
00
60
90
80
80
88
90
E0
90
88
84
00
00
ENDCHAR

STARTCHAR uni019A
ENCODING 410
SWIDTH 497 0
DWIDTH 7 0
BBX 7 13 0 -2
BITMAP
00
00
30
10
10
10
7C
10
10
10
7C
00
00
ENDCHAR

STARTCHAR uni019B
ENCODING 411
SWIDTH 497 0
DWIDTH 7 0
BBX 7 13 0 -2
BITMAP
00
04
68
10
30
50
98
28
28
44
44
00
00
ENDCHAR

STARTCHAR uni019C
ENCODING 412
SWIDTH 497 0
DWIDTH 7 0
BBX 7 13 0 -2
BITMAP
00
00
54
54
54
54
54
54
54
54
2C
00
00
ENDCHAR

STARTCHAR uni019D
ENCODING 413
SWIDTH 497 0
DWIDTH 7 0
BBX 7 13 0 -2
BITMAP
00
00
44
44
64
54
4C
44
44
44
44
80
00
ENDCHAR

STARTCHAR uni019E
ENCODING 414
SWIDTH 497 0
DWIDTH 7 0
BBX 7 13 0 -2
BITMAP
00
00
00
00
00
B8
C4
84
84
84
84
04
04
ENDCHAR

STARTCHAR uni019F
ENCODING 415
SWIDTH 497 0
DWIDTH 7 0
BBX 7 13 0 -2
BITMAP
00
00
00
00
00
78
84
FC
84
84
78
00
00
ENDCHAR

STARTCHAR Ohorn
ENCODING 416
SWIDTH 497 0
DWIDTH 7 0
BBX 7 13 0 -2
BITMAP
00
02
7A
84
84
84
84
84
84
84
78
00
00
ENDCHAR

STARTCHAR ohorn
ENCODING 417
SWIDTH 497 0
DWIDTH 7 0
BBX 7 13 0 -2
BITMAP
00
00
00
00
02
7A
84
84
84
84
78
00
00
ENDCHAR

STARTCHAR uni01A2
ENCODING 418
SWIDTH 497 0
DWIDTH 7 0
BBX 7 13 0 -2
BITMAP
00
00
60
98
94
94
94
94
94
94
64
04
00
ENDCHAR

STARTCHAR uni01A3
ENCODING 419
SWIDTH 497 0
DWIDTH 7 0
BBX 7 13 0 -2
BITMAP
00
00
00
00
00
60
98
94
94
94
64
04
04
ENDCHAR

STARTCHAR uni01A4
ENCODING 420
SWIDTH 497 0
DWIDTH 7 0
BBX 7 13 0 -2
BITMAP
00
00
F8
24
24
24
38
20
20
20
20
00
00
ENDCHAR

STARTCHAR uni01A5
ENCODING 421
SWIDTH 497 0
DWIDTH 7 0
BBX 7 13 0 -2
BITMAP
00
00
00
04
08
B0
C8
88
C8
B0
80
80
80
ENDCHAR

STARTCHAR uni01A6
ENCODING 422
SWIDTH 497 0
DWIDTH 7 0
BBX 7 13 0 -2
BITMAP
00
80
80
F8
84
84
F8
C0
A0
90
88
04
00
ENDCHAR

STARTCHAR uni01A7
ENCODING 423
SWIDTH 497 0
DWIDTH 7 0
BBX 7 13 0 -2
BITMAP
00
00
78
84
04
04
78
80
80
84
78
00
00
ENDCHAR

STARTCHAR uni01A8
ENCODING 424
SWIDTH 497 0
DWIDTH 7 0
BBX 7 13 0 -2
BITMAP
00
00
00
00
00
78
84
18
60
84
78
00
00
ENDCHAR

STARTCHAR uni01A9
ENCODING 425
SWIDTH 497 0
DWIDTH 7 0
BBX 7 13 0 -2
BITMAP
00
00
FC
80
40
20
10
20
40
80
FC
00
00
ENDCHAR

STARTCHAR uni01AA
ENCODING 426
SWIDTH 497 0
DWIDTH 7 0
BBX 7 13 0 -2
BITMAP
20
50
30
10
10
10
10
10
10
14
08
00
00
ENDCHAR

STARTCHAR uni01AB
ENCODING 427
SWIDTH 497 0
DWIDTH 7 0
BBX 7 13 0 -2
BITMAP
00
00
00
40
40
F0
40
40
40
44
3C
04
18
ENDCHAR

STARTCHAR uni01AC
ENCODING 428
SWIDTH 497 0
DWIDTH 7 0
BBX 7 13 0 -2
BITMAP
00
00
7C
90
90
10
10
10
10
10
10
00
00
ENDCHAR

STARTCHAR uni01AD
ENCODING 429
SWIDTH 497 0
DWIDTH 7 0
BBX 7 13 0 -2
BITMAP
00
30
48
40
40
F0
40
40
40
44
38
00
00
ENDCHAR

STARTCHAR uni01AE
ENCODING 430
SWIDTH 497 0
DWIDTH 7 0
BBX 7 13 0 -2
BITMAP
00
00
F8
20
20
20
20
20
20
20
20
24
18
ENDCHAR

STARTCHAR Uhorn
ENCODING 431
SWIDTH 497 0
DWIDTH 7 0
BBX 7 13 0 -2
BITMAP
04
04
8C
88
88
88
88
88
88
88
70
00
00
ENDCHAR

STARTCHAR uhorn
ENCODING 432
SWIDTH 497 0
DWIDTH 7 0
BBX 7 13 0 -2
BITMAP
00
00
00
04
04
8C
88
88
88
98
68
00
00
ENDCHAR

STARTCHAR uni01B1
ENCODING 433
SWIDTH 497 0
DWIDTH 7 0
BBX 7 13 0 -2
BITMAP
00
00
48
48
84
84
84
84
84
48
30
00
00
ENDCHAR

STARTCHAR uni01B2
ENCODING 434
SWIDTH 497 0
DWIDTH 7 0
BBX 7 13 0 -2
BITMAP
00
00
88
88
84
84
84
84
84
48
30
00
00
ENDCHAR

STARTCHAR uni01B3
ENCODING 435
SWIDTH 497 0
DWIDTH 7 0
BBX 7 13 0 -2
BITMAP
00
00
84
44
28
28
10
10
10
10
10
00
00
ENDCHAR

STARTCHAR uni01B4
ENCODING 436
SWIDTH 497 0
DWIDTH 7 0
BBX 7 13 0 -2
BITMAP
00
00
00
00
02
84
84
84
8C
74
04
84
78
ENDCHAR

STARTCHAR uni01B5
ENCODING 437
SWIDTH 497 0
DWIDTH 7 0
BBX 7 13 0 -2
BITMAP
00
00
FC
04
08
10
78
20
40
80
FC
00
00
ENDCHAR

STARTCHAR uni01B6
ENCODING 438
SWIDTH 497 0
DWIDTH 7 0
BBX 7 13 0 -2
BITMAP
00
00
00
00
00
FC
08
78
20
40
FC
00
00
ENDCHAR

STARTCHAR uni01B7
ENCODING 439
SWIDTH 497 0
DWIDTH 7 0
BBX 7 13 0 -2
BITMAP
00
00
F8
10
20
70
08
04
04
84
78
00
00
ENDCHAR

STARTCHAR uni01B8
ENCODING 440
SWIDTH 497 0
DWIDTH 7 0
BBX 7 13 0 -2
BITMAP
00
00
7C
20
10
38
40
80
80
84
78
00
00
ENDCHAR

STARTCHAR uni01B9
ENCODING 441
SWIDTH 497 0
DWIDTH 7 0
BBX 7 13 0 -2
BITMAP
00
00
00
00
00
FC
40
20
70
80
80
84
78
ENDCHAR

STARTCHAR uni01BA
ENCODING 442
SWIDTH 497 0
DWIDTH 7 0
BBX 7 13 0 -2
BITMAP
00
00
00
00
00
FC
08
10
30
08
70
84
78
ENDCHAR

STARTCHAR uni01BB
ENCODING 443
SWIDTH 497 0
DWIDTH 7 0
BBX 7 13 0 -2
BITMAP
00
00
78
84
84
04
08
FC
40
80
FC
00
00
ENDCHAR

STARTCHAR uni01BC
ENCODING 444
SWIDTH 497 0
DWIDTH 7 0
BBX 7 13 0 -2
BITMAP
00
00
FC
84
80
C0
30
08
04
84
78
00
00
ENDCHAR

STARTCHAR uni01BD
ENCODING 445
SWIDTH 497 0
DWIDTH 7 0
BBX 7 13 0 -2
BITMAP
00
00
00
00
00
78
40
30
08
48
30
00
00
ENDCHAR

STARTCHAR uni01BE
ENCODING 446
SWIDTH 497 0
DWIDTH 7 0
BBX 7 13 0 -2
BITMAP
00
00
10
10
38
10
18
04
04
44
38
00
00
ENDCHAR

STARTCHAR uni01BF
ENCODING 447
SWIDTH 497 0
DWIDTH 7 0
BBX 7 13 0 -2
BITMAP
00
00
00
00
00
B8
C4
88
90
A0
C0
80
80
ENDCHAR

STARTCHAR uni01C0
ENCODING 448
SWIDTH 497 0
DWIDTH 7 0
BBX 7 13 0 -2
BITMAP
00
00
10
10
10
10
10
10
10
10
10
00
00
ENDCHAR

STARTCHAR uni01C1
ENCODING 449
SWIDTH 497 0
DWIDTH 7 0
BBX 7 13 0 -2
BITMAP
00
00
28
28
28
28
28
28
28
28
28
00
00
ENDCHAR

STARTCHAR uni01C2
ENCODING 450
SWIDTH 497 0
DWIDTH 7 0
BBX 7 13 0 -2
BITMAP
00
00
10
10
10
38
10
38
10
10
10
00
00
ENDCHAR

STARTCHAR uni01C3
ENCODING 451
SWIDTH 497 0
DWIDTH 7 0
BBX 7 13 0 -2
BITMAP
00
00
10
10
10
10
10
10
10
00
10
00
00
ENDCHAR

STARTCHAR uni01C4
ENCODING 452
SWIDTH 497 0
DWIDTH 7 0
BBX 7 13 0 -2
BITMAP
14
08
00
DC
A4
A8
A8
A8
B0
B0
DC
00
00
ENDCHAR

STARTCHAR uni01C5
ENCODING 453
SWIDTH 497 0
DWIDTH 7 0
BBX 7 13 0 -2
BITMAP
00
00
D4
A8
A0
BC
A4
A8
A8
B0
DC
00
00
ENDCHAR

STARTCHAR uni01C6
ENCODING 454
SWIDTH 497 0
DWIDTH 7 0
BBX 7 13 0 -2
BITMAP
00
00
34
28
20
7C
A4
A8
A8
B0
7C
00
00
ENDCHAR

STARTCHAR uni01C7
ENCODING 455
SWIDTH 497 0
DWIDTH 7 0
BBX 7 13 0 -2
BITMAP
00
00
84
84
84
84
84
84
84
94
E8
00
00
ENDCHAR

STARTCHAR uni01C8
ENCODING 456
SWIDTH 497 0
DWIDTH 7 0
BBX 7 13 0 -2
BITMAP
00
00
80
84
80
8C
84
84
84
84
F4
14
08
ENDCHAR

STARTCHAR uni01C9
ENCODING 457
SWIDTH 497 0
DWIDTH 7 0
BBX 7 13 0 -2
BITMAP
00
00
C0
44
40
4C
44
44
44
44
E4
04
18
ENDCHAR

STARTCHAR uni01CA
ENCODING 458
SWIDTH 497 0
DWIDTH 7 0
BBX 7 13 0 -2
BITMAP
00
00
96
92
D2
B2
92
92
92
9A
94
00
00
ENDCHAR

STARTCHAR uni01CB
ENCODING 459
SWIDTH 497 0
DWIDTH 7 0
BBX 7 13 0 -2
BITMAP
00
00
90
92
D0
B2
92
92
92
92
92
12
0C
ENDCHAR

STARTCHAR uni01CC
ENCODING 460
SWIDTH 497 0
DWIDTH 7 0
BBX 7 13 0 -2
BITMAP
00
00
00
04
00
CC
A4
A4
A4
A4
A4
24
18
ENDCHAR

STARTCHAR uni01CD
ENCODING 461
SWIDTH 497 0
DWIDTH 7 0
BBX 7 13 0 -2
BITMAP
00
48
30
00
30
48
84
84
FC
84
84
00
00
ENDCHAR

STARTCHAR uni01CE
ENCODING 462
SWIDTH 497 0
DWIDTH 7 0
BBX 7 13 0 -2
BITMAP
00
00
48
30
00
78
04
7C
84
8C
74
00
00
ENDCHAR

STARTCHAR uni01CF
ENCODING 463
SWIDTH 497 0
DWIDTH 7 0
BBX 7 13 0 -2
BITMAP
00
28
10
00
7C
10
10
10
10
10
7C
00
00
ENDCHAR

STARTCHAR uni01D0
ENCODING 464
SWIDTH 497 0
DWIDTH 7 0
BBX 7 13 0 -2
BITMAP
00
00
28
10
00
30
10
10
10
10
7C
00
00
ENDCHAR

STARTCHAR uni01D1
ENCODING 465
SWIDTH 497 0
DWIDTH 7 0
BBX 7 13 0 -2
BITMAP
00
48
30
00
78
84
84
84
84
84
78
00
00
ENDCHAR

STARTCHAR uni01D2
ENCODING 466
SWIDTH 497 0
DWIDTH 7 0
BBX 7 13 0 -2
BITMAP
00
00
48
30
00
78
84
84
84
84
78
00
00
ENDCHAR

STARTCHAR uni01D3
ENCODING 467
SWIDTH 497 0
DWIDTH 7 0
BBX 7 13 0 -2
BITMAP
00
48
30
00
84
84
84
84
84
84
78
00
00
ENDCHAR

STARTCHAR uni01D4
ENCODING 468
SWIDTH 497 0
DWIDTH 7 0
BBX 7 13 0 -2
BITMAP
00
00
48
30
00
84
84
84
84
8C
74
00
00
ENDCHAR

STARTCHAR uni01D5
ENCODING 469
SWIDTH 497 0
DWIDTH 7 0
BBX 7 13 0 -2
BITMAP
78
00
48
00
84
84
84
84
84
84
78
00
00
ENDCHAR

STARTCHAR uni01D6
ENCODING 470
SWIDTH 497 0
DWIDTH 7 0
BBX 7 13 0 -2
BITMAP
00
78
00
48
00
84
84
84
84
8C
74
00
00
ENDCHAR

STARTCHAR uni01D7
ENCODING 471
SWIDTH 497 0
DWIDTH 7 0
BBX 7 13 0 -2
BITMAP
10
20
88
00
84
84
84
84
84
84
78
00
00
ENDCHAR

STARTCHAR uni01D8
ENCODING 472
SWIDTH 497 0
DWIDTH 7 0
BBX 7 13 0 -2
BITMAP
00
10
20
88
00
84
84
84
84
8C
74
00
00
ENDCHAR

STARTCHAR uni01D9
ENCODING 473
SWIDTH 497 0
DWIDTH 7 0
BBX 7 13 0 -2
BITMAP
50
20
88
00
84
84
84
84
84
84
78
00
00
ENDCHAR

STARTCHAR uni01DA
ENCODING 474
SWIDTH 497 0
DWIDTH 7 0
BBX 7 13 0 -2
BITMAP
00
50
20
88
00
84
84
84
84
8C
74
00
00
ENDCHAR

STARTCHAR uni01DB
ENCODING 475
SWIDTH 497 0
DWIDTH 7 0
BBX 7 13 0 -2
BITMAP
40
20
88
00
84
84
84
84
84
84
78
00
00
ENDCHAR

STARTCHAR uni01DC
ENCODING 476
SWIDTH 497 0
DWIDTH 7 0
BBX 7 13 0 -2
BITMAP
00
40
20
88
00
84
84
84
84
8C
74
00
00
ENDCHAR

STARTCHAR uni01DD
ENCODING 477
SWIDTH 497 0
DWIDTH 7 0
BBX 7 13 0 -2
BITMAP
00
00
00
00
00
78
84
04
FC
84
78
00
00
ENDCHAR

STARTCHAR uni01DE
ENCODING 478
SWIDTH 497 0
DWIDTH 7 0
BBX 7 13 0 -2
BITMAP
78
00
48
00
30
48
84
84
FC
84
84
00
00
ENDCHAR

STARTCHAR uni01DF
ENCODING 479
SWIDTH 497 0
DWIDTH 7 0
BBX 7 13 0 -2
BITMAP
00
78
00
48
00
78
04
7C
84
8C
74
00
00
ENDCHAR

STARTCHAR uni01E0
ENCODING 480
SWIDTH 497 0
DWIDTH 7 0
BBX 7 13 0 -2
BITMAP
7C
00
10
00
30
48
84
84
FC
84
84
00
00
ENDCHAR

STARTCHAR uni01E1
ENCODING 481
SWIDTH 497 0
DWIDTH 7 0
BBX 7 13 0 -2
BITMAP
00
7C
00
10
00
78
04
7C
84
8C
74
00
00
ENDCHAR

STARTCHAR uni01E2
ENCODING 482
SWIDTH 497 0
DWIDTH 7 0
BBX 7 13 0 -2
BITMAP
7C
00
7C
A0
A0
A0
B8
E0
A0
A0
BC
00
00
ENDCHAR

STARTCHAR uni01E3
ENCODING 483
SWIDTH 497 0
DWIDTH 7 0
BBX 7 13 0 -2
BITMAP
00
00
00
7C
00
68
14
7C
90
94
68
00
00
ENDCHAR

STARTCHAR uni01E4
ENCODING 484
SWIDTH 497 0
DWIDTH 7 0
BBX 7 13 0 -2
BITMAP
00
00
78
84
80
80
9C
84
9E
84
78
00
00
ENDCHAR

STARTCHAR uni01E5
ENCODING 485
SWIDTH 497 0
DWIDTH 7 0
BBX 7 13 0 -2
BITMAP
00
00
00
00
00
74
88
88
70
80
78
9E
78
ENDCHAR

STARTCHAR Gcaron
ENCODING 486
SWIDTH 497 0
DWIDTH 7 0
BBX 7 13 0 -2
BITMAP
48
30
00
78
84
80
80
9C
84
8C
74
00
00
ENDCHAR

STARTCHAR gcaron
ENCODING 487
SWIDTH 497 0
DWIDTH 7 0
BBX 7 13 0 -2
BITMAP
00
00
48
30
00
74
88
88
70
80
78
84
78
ENDCHAR

STARTCHAR uni01E8
ENCODING 488
SWIDTH 497 0
DWIDTH 7 0
BBX 7 13 0 -2
BITMAP
48
30
84
88
90
A0
C0
A0
90
88
84
00
00
ENDCHAR

STARTCHAR uni01E9
ENCODING 489
SWIDTH 497 0
DWIDTH 7 0
BBX 7 13 0 -2
BITMAP
48
30
80
80
80
88
90
E0
90
88
84
00
00
ENDCHAR

STARTCHAR uni01EA
ENCODING 490
SWIDTH 497 0
DWIDTH 7 0
BBX 7 13 0 -2
BITMAP
00
00
78
84
84
84
84
84
84
84
78
20
30
ENDCHAR

STARTCHAR uni01EB
ENCODING 491
SWIDTH 497 0
DWIDTH 7 0
BBX 7 13 0 -2
BITMAP
00
00
00
00
00
78
84
84
84
84
78
20
30
ENDCHAR

STARTCHAR uni01EC
ENCODING 492
SWIDTH 497 0
DWIDTH 7 0
BBX 7 13 0 -2
BITMAP
78
00
78
84
84
84
84
84
84
84
78
20
30
ENDCHAR

STARTCHAR uni01ED
ENCODING 493
SWIDTH 497 0
DWIDTH 7 0
BBX 7 13 0 -2
BITMAP
00
00
00
78
00
78
84
84
84
84
78
20
30
ENDCHAR

STARTCHAR uni01EE
ENCODING 494
SWIDTH 497 0
DWIDTH 7 0
BBX 7 13 0 -2
BITMAP
48
30
00
FC
08
10
38
04
04
84
78
00
00
ENDCHAR

STARTCHAR uni01EF
ENCODING 495
SWIDTH 497 0
DWIDTH 7 0
BBX 7 13 0 -2
BITMAP
00
00
48
30
00
FC
08
10
38
04
04
84
78
ENDCHAR

STARTCHAR uni01F0
ENCODING 496
SWIDTH 497 0
DWIDTH 7 0
BBX 7 13 0 -2
BITMAP
00
00
24
18
00
18
08
08
08
08
88
88
70
ENDCHAR

STARTCHAR uni01F1
ENCODING 497
SWIDTH 497 0
DWIDTH 7 0
BBX 7 13 0 -2
BITMAP
00
00
DC
A4
A4
A8
A8
A8
B0
B0
DC
00
00
ENDCHAR

STARTCHAR uni01F2
ENCODING 498
SWIDTH 497 0
DWIDTH 7 0
BBX 7 13 0 -2
BITMAP
00
00
C0
A0
A0
BC
A4
A8
A8
B0
DC
00
00
ENDCHAR

STARTCHAR uni01F3
ENCODING 499
SWIDTH 497 0
DWIDTH 7 0
BBX 7 13 0 -2
BITMAP
00
00
20
20
20
7C
A4
A8
A8
B0
7C
00
00
ENDCHAR

STARTCHAR uni01F4
ENCODING 500
SWIDTH 497 0
DWIDTH 7 0
BBX 7 13 0 -2
BITMAP
10
20
00
78
84
80
80
9C
84
8C
74
00
00
ENDCHAR

STARTCHAR uni01F5
ENCODING 501
SWIDTH 497 0
DWIDTH 7 0
BBX 7 13 0 -2
BITMAP
00
00
10
20
00
74
88
88
70
80
78
84
78
ENDCHAR

STARTCHAR uni01F6
ENCODING 502
SWIDTH 497 0
DWIDTH 7 0
BBX 7 13 0 -2
BITMAP
00
00
90
90
90
F4
94
94
94
94
88
00
00
ENDCHAR

STARTCHAR uni01F7
ENCODING 503
SWIDTH 497 0
DWIDTH 7 0
BBX 7 13 0 -2
BITMAP
00
00
B8
C4
84
88
90
A0
C0
80
80
00
00
ENDCHAR

STARTCHAR uni01F8
ENCODING 504
SWIDTH 497 0
DWIDTH 7 0
BBX 7 13 0 -2
BITMAP
00
20
10
00
84
C4
A4
A4
94
8C
84
00
00
ENDCHAR

STARTCHAR uni01F9
ENCODING 505
SWIDTH 497 0
DWIDTH 7 0
BBX 7 13 0 -2
BITMAP
00
00
20
10
00
B8
C4
84
84
84
84
00
00
ENDCHAR

STARTCHAR Aringacute
ENCODING 506
SWIDTH 497 0
DWIDTH 7 0
BBX 7 13 0 -2
BITMAP
10
20
30
48
30
30
48
84
FC
84
84
00
00
ENDCHAR

STARTCHAR aringacute
ENCODING 507
SWIDTH 497 0
DWIDTH 7 0
BBX 7 13 0 -2
BITMAP
10
20
30
48
30
78
04
7C
84
8C
74
00
00
ENDCHAR

STARTCHAR AEacute
ENCODING 508
SWIDTH 497 0
DWIDTH 7 0
BBX 7 13 0 -2
BITMAP
10
20
00
7C
A0
A0
B8
E0
A0
A0
BC
00
00
ENDCHAR

STARTCHAR aeacute
ENCODING 509
SWIDTH 497 0
DWIDTH 7 0
BBX 7 13 0 -2
BITMAP
00
00
08
10
00
68
14
7C
90
94
68
00
00
ENDCHAR

STARTCHAR Oslashacute
ENCODING 510
SWIDTH 497 0
DWIDTH 7 0
BBX 7 13 0 -2
BITMAP
10
20
04
78
8C
94
94
A4
A4
C4
78
80
00
ENDCHAR

STARTCHAR oslashacute
ENCODING 511
SWIDTH 497 0
DWIDTH 7 0
BBX 7 13 0 -2
BITMAP
00
00
10
20
04
78
8C
94
A4
C4
78
80
00
ENDCHAR

STARTCHAR uni0200
ENCODING 512
SWIDTH 497 0
DWIDTH 7 0
BBX 7 13 0 -2
BITMAP
90
48
00
30
48
84
84
FC
84
84
84
00
00
ENDCHAR

STARTCHAR uni0201
ENCODING 513
SWIDTH 497 0
DWIDTH 7 0
BBX 7 13 0 -2
BITMAP
00
00
90
48
00
78
04
7C
84
8C
74
00
00
ENDCHAR

STARTCHAR uni0202
ENCODING 514
SWIDTH 497 0
DWIDTH 7 0
BBX 7 13 0 -2
BITMAP
78
84
00
30
48
84
84
FC
84
84
84
00
00
ENDCHAR

STARTCHAR uni0203
ENCODING 515
SWIDTH 497 0
DWIDTH 7 0
BBX 7 13 0 -2
BITMAP
00
00
78
84
00
78
04
7C
84
8C
74
00
00
ENDCHAR

STARTCHAR uni0204
ENCODING 516
SWIDTH 497 0
DWIDTH 7 0
BBX 7 13 0 -2
BITMAP
90
48
00
FC
80
80
F0
80
80
80
FC
00
00
ENDCHAR

STARTCHAR uni0205
ENCODING 517
SWIDTH 497 0
DWIDTH 7 0
BBX 7 13 0 -2
BITMAP
00
00
90
48
00
78
84
FC
80
84
78
00
00
ENDCHAR

STARTCHAR uni0206
ENCODING 518
SWIDTH 497 0
DWIDTH 7 0
BBX 7 13 0 -2
BITMAP
78
84
00
FC
80
80
F0
80
80
80
FC
00
00
ENDCHAR

STARTCHAR uni0207
ENCODING 519
SWIDTH 497 0
DWIDTH 7 0
BBX 7 13 0 -2
BITMAP
00
00
78
84
00
78
84
FC
80
84
78
00
00
ENDCHAR

STARTCHAR uni0208
ENCODING 520
SWIDTH 497 0
DWIDTH 7 0
BBX 7 13 0 -2
BITMAP
00
48
24
00
7C
10
10
10
10
10
7C
00
00
ENDCHAR

STARTCHAR uni0209
ENCODING 521
SWIDTH 497 0
DWIDTH 7 0
BBX 7 13 0 -2
BITMAP
00
00
48
24
00
30
10
10
10
10
7C
00
00
ENDCHAR

STARTCHAR uni020A
ENCODING 522
SWIDTH 497 0
DWIDTH 7 0
BBX 7 13 0 -2
BITMAP
00
38
44
00
7C
10
10
10
10
10
7C
00
00
ENDCHAR

STARTCHAR uni020B
ENCODING 523
SWIDTH 497 0
DWIDTH 7 0
BBX 7 13 0 -2
BITMAP
00
00
38
44
00
30
10
10
10
10
7C
00
00
ENDCHAR

STARTCHAR uni020C
ENCODING 524
SWIDTH 497 0
DWIDTH 7 0
BBX 7 13 0 -2
BITMAP
90
48
00
78
84
84
84
84
84
84
78
00
00
ENDCHAR

STARTCHAR uni020D
ENCODING 525
SWIDTH 497 0
DWIDTH 7 0
BBX 7 13 0 -2
BITMAP
00
00
90
48
00
78
84
84
84
84
78
00
00
ENDCHAR

STARTCHAR uni020E
ENCODING 526
SWIDTH 497 0
DWIDTH 7 0
BBX 7 13 0 -2
BITMAP
78
84
00
78
84
84
84
84
84
84
78
00
00
ENDCHAR

STARTCHAR uni020F
ENCODING 527
SWIDTH 497 0
DWIDTH 7 0
BBX 7 13 0 -2
BITMAP
00
00
78
84
00
78
84
84
84
84
78
00
00
ENDCHAR

STARTCHAR uni0210
ENCODING 528
SWIDTH 497 0
DWIDTH 7 0
BBX 7 13 0 -2
BITMAP
00
90
48
00
F8
84
84
F8
90
88
84
00
00
ENDCHAR

STARTCHAR uni0211
ENCODING 529
SWIDTH 497 0
DWIDTH 7 0
BBX 7 13 0 -2
BITMAP
00
00
90
48
00
B8
44
40
40
40
40
00
00
ENDCHAR

STARTCHAR uni0212
ENCODING 530
SWIDTH 497 0
DWIDTH 7 0
BBX 7 13 0 -2
BITMAP
00
78
84
00
F8
84
84
F8
90
88
84
00
00
ENDCHAR

STARTCHAR uni0213
ENCODING 531
SWIDTH 497 0
DWIDTH 7 0
BBX 7 13 0 -2
BITMAP
00
00
78
84
00
B8
44
40
40
40
40
00
00
ENDCHAR

STARTCHAR uni0214
ENCODING 532
SWIDTH 497 0
DWIDTH 7 0
BBX 7 13 0 -2
BITMAP
00
88
44
00
84
84
84
84
84
84
78
00
00
ENDCHAR

STARTCHAR uni0215
ENCODING 533
SWIDTH 497 0
DWIDTH 7 0
BBX 7 13 0 -2
BITMAP
00
00
88
44
00
84
84
84
84
8C
74
00
00
ENDCHAR

STARTCHAR uni0216
ENCODING 534
SWIDTH 497 0
DWIDTH 7 0
BBX 7 13 0 -2
BITMAP
00
78
84
00
84
84
84
84
84
84
78
00
00
ENDCHAR

STARTCHAR uni0217
ENCODING 535
SWIDTH 497 0
DWIDTH 7 0
BBX 7 13 0 -2
BITMAP
00
00
78
84
00
84
84
84
84
8C
74
00
00
ENDCHAR

STARTCHAR Scommaaccent
ENCODING 536
SWIDTH 497 0
DWIDTH 7 0
BBX 7 13 0 -2
BITMAP
00
00
78
84
80
80
78
04
04
84
78
10
20
ENDCHAR

STARTCHAR scommaaccent
ENCODING 537
SWIDTH 497 0
DWIDTH 7 0
BBX 7 13 0 -2
BITMAP
00
00
00
00
00
78
84
60
18
84
78
10
20
ENDCHAR

STARTCHAR Tcommaaccent
ENCODING 538
SWIDTH 497 0
DWIDTH 7 0
BBX 7 13 0 -2
BITMAP
00
00
7C
10
10
10
10
10
10
10
10
08
10
ENDCHAR

STARTCHAR tcommaaccent
ENCODING 539
SWIDTH 497 0
DWIDTH 7 0
BBX 7 13 0 -2
BITMAP
00
00
00
40
40
F0
40
40
40
44
38
10
20
ENDCHAR

STARTCHAR uni021C
ENCODING 540
SWIDTH 497 0
DWIDTH 7 0
BBX 7 13 0 -2
BITMAP
00
00
F8
10
20
70
08
04
04
84
78
00
00
ENDCHAR

STARTCHAR uni021D
ENCODING 541
SWIDTH 497 0
DWIDTH 7 0
BBX 7 13 0 -2
BITMAP
00
00
00
00
00
FC
08
10
38
04
04
84
78
ENDCHAR

STARTCHAR uni021E
ENCODING 542
SWIDTH 497 0
DWIDTH 7 0
BBX 7 13 0 -2
BITMAP
00
48
30
00
84
84
84
FC
84
84
84
00
00
ENDCHAR

STARTCHAR uni021F
ENCODING 543
SWIDTH 497 0
DWIDTH 7 0
BBX 7 13 0 -2
BITMAP
00
48
30
80
80
80
B8
C4
84
84
84
00
00
ENDCHAR

STARTCHAR uni0222
ENCODING 546
SWIDTH 497 0
DWIDTH 7 0
BBX 7 13 0 -2
BITMAP
00
00
48
84
84
84
78
84
84
84
78
00
00
ENDCHAR

STARTCHAR uni0223
ENCODING 547
SWIDTH 497 0
DWIDTH 7 0
BBX 7 13 0 -2
BITMAP
00
00
00
28
44
44
38
44
44
44
38
00
00
ENDCHAR

STARTCHAR uni0224
ENCODING 548
SWIDTH 497 0
DWIDTH 7 0
BBX 7 13 0 -2
BITMAP
00
00
FC
04
08
10
30
20
40
80
FC
04
18
ENDCHAR

STARTCHAR uni0225
ENCODING 549
SWIDTH 497 0
DWIDTH 7 0
BBX 7 13 0 -2
BITMAP
00
00
00
00
00
FC
08
10
20
40
FC
04
18
ENDCHAR

STARTCHAR uni0226
ENCODING 550
SWIDTH 497 0
DWIDTH 7 0
BBX 7 13 0 -2
BITMAP
00
30
00
30
48
84
84
FC
84
84
84
00
00
ENDCHAR

STARTCHAR uni0227
ENCODING 551
SWIDTH 497 0
DWIDTH 7 0
BBX 7 13 0 -2
BITMAP
00
00
00
30
00
78
04
7C
84
8C
74
00
00
ENDCHAR

STARTCHAR uni0228
ENCODING 552
SWIDTH 497 0
DWIDTH 7 0
BBX 7 13 0 -2
BITMAP
00
00
FC
80
80
80
F0
80
80
80
FC
10
60
ENDCHAR

STARTCHAR uni0229
ENCODING 553
SWIDTH 497 0
DWIDTH 7 0
BBX 7 13 0 -2
BITMAP
00
00
00
00
00
78
84
FC
80
84
78
08
30
ENDCHAR

STARTCHAR uni022A
ENCODING 554
SWIDTH 497 0
DWIDTH 7 0
BBX 7 13 0 -2
BITMAP
78
00
48
00
78
84
84
84
84
84
78
00
00
ENDCHAR

STARTCHAR uni022B
ENCODING 555
SWIDTH 497 0
DWIDTH 7 0
BBX 7 13 0 -2
BITMAP
00
78
00
48
00
78
84
84
84
84
78
00
00
ENDCHAR

STARTCHAR uni022C
ENCODING 556
SWIDTH 497 0
DWIDTH 7 0
BBX 7 13 0 -2
BITMAP
78
28
50
00
78
84
84
84
84
84
78
00
00
ENDCHAR

STARTCHAR uni022D
ENCODING 557
SWIDTH 497 0
DWIDTH 7 0
BBX 7 13 0 -2
BITMAP
78
00
28
50
00
78
84
84
84
84
78
00
00
ENDCHAR

STARTCHAR uni022E
ENCODING 558
SWIDTH 497 0
DWIDTH 7 0
BBX 7 13 0 -2
BITMAP
30
00
78
84
84
84
84
84
84
84
78
00
00
ENDCHAR

STARTCHAR uni022F
ENCODING 559
SWIDTH 497 0
DWIDTH 7 0
BBX 7 13 0 -2
BITMAP
00
00
00
30
00
78
84
84
84
84
78
00
00
ENDCHAR

STARTCHAR uni0230
ENCODING 560
SWIDTH 497 0
DWIDTH 7 0
BBX 7 13 0 -2
BITMAP
78
00
30
00
78
84
84
84
84
84
78
00
00
ENDCHAR

STARTCHAR uni0231
ENCODING 561
SWIDTH 497 0
DWIDTH 7 0
BBX 7 13 0 -2
BITMAP
00
78
00
30
00
78
84
84
84
84
78
00
00
ENDCHAR

STARTCHAR uni0232
ENCODING 562
SWIDTH 497 0
DWIDTH 7 0
BBX 7 13 0 -2
BITMAP
7C
00
44
44
28
10
10
10
10
10
10
00
00
ENDCHAR

STARTCHAR uni0233
ENCODING 563
SWIDTH 497 0
DWIDTH 7 0
BBX 7 13 0 -2
BITMAP
00
00
00
78
00
84
84
84
8C
74
04
84
78
ENDCHAR

STARTCHAR uni0250
ENCODING 592
SWIDTH 497 0
DWIDTH 7 0
BBX 7 13 0 -2
BITMAP
00
00
00
00
00
B8
C4
84
F8
80
78
00
00
ENDCHAR

STARTCHAR uni0251
ENCODING 593
SWIDTH 497 0
DWIDTH 7 0
BBX 7 13 0 -2
BITMAP
00
00
00
00
00
74
8C
84
84
8C
74
00
00
ENDCHAR

STARTCHAR uni0252
ENCODING 594
SWIDTH 497 0
DWIDTH 7 0
BBX 7 13 0 -2
BITMAP
00
00
00
00
00
B8
C4
84
84
C4
B8
00
00
ENDCHAR

STARTCHAR uni0253
ENCODING 595
SWIDTH 497 0
DWIDTH 7 0
BBX 7 13 0 -2
BITMAP
00
00
70
80
80
B8
C4
84
84
C4
B8
00
00
ENDCHAR

STARTCHAR uni0254
ENCODING 596
SWIDTH 497 0
DWIDTH 7 0
BBX 7 13 0 -2
BITMAP
00
00
00
00
00
78
84
04
04
84
78
00
00
ENDCHAR

STARTCHAR uni0255
ENCODING 597
SWIDTH 497 0
DWIDTH 7 0
BBX 7 13 0 -2
BITMAP
00
00
00
00
00
78
84
80
88
94
78
20
00
ENDCHAR

STARTCHAR uni0256
ENCODING 598
SWIDTH 497 0
DWIDTH 7 0
BBX 7 13 0 -2
BITMAP
00
00
08
08
08
78
88
88
88
88
78
06
00
ENDCHAR

STARTCHAR uni0257
ENCODING 599
SWIDTH 497 0
DWIDTH 7 0
BBX 7 13 0 -2
BITMAP
00
00
04
0A
0A
78
88
88
88
88
78
00
00
ENDCHAR

STARTCHAR uni0258
ENCODING 600
SWIDTH 497 0
DWIDTH 7 0
BBX 7 13 0 -2
BITMAP
00
00
00
00
00
78
84
FC
04
84
78
00
00
ENDCHAR

STARTCHAR uni0259
ENCODING 601
SWIDTH 497 0
DWIDTH 7 0
BBX 7 13 0 -2
BITMAP
00
00
00
00
00
78
84
04
FC
84
78
00
00
ENDCHAR

STARTCHAR uni025A
ENCODING 602
SWIDTH 497 0
DWIDTH 7 0
BBX 7 13 0 -2
BITMAP
00
00
00
00
00
70
88
0C
FA
88
70
00
00
ENDCHAR

STARTCHAR uni025B
ENCODING 603
SWIDTH 497 0
DWIDTH 7 0
BBX 7 13 0 -2
BITMAP
00
00
00
00
00
70
88
60
80
88
70
00
00
ENDCHAR

STARTCHAR uni025C
ENCODING 604
SWIDTH 497 0
DWIDTH 7 0
BBX 7 13 0 -2
BITMAP
00
00
00
00
00
70
88
30
08
88
70
00
00
ENDCHAR

STARTCHAR uni025D
ENCODING 605
SWIDTH 497 0
DWIDTH 7 0
BBX 7 13 0 -2
BITMAP
00
00
00
00
00
70
8C
32
08
88
70
00
00
ENDCHAR

STARTCHAR uni025E
ENCODING 606
SWIDTH 497 0
DWIDTH 7 0
BBX 7 13 0 -2
BITMAP
00
00
00
00
00
70
88
B0
88
88
70
00
00
ENDCHAR

STARTCHAR uni025F
ENCODING 607
SWIDTH 497 0
DWIDTH 7 0
BBX 7 13 0 -2
BITMAP
00
00
00
00
08
08
08
08
3C
08
08
88
70
ENDCHAR

STARTCHAR uni0260
ENCODING 608
SWIDTH 497 0
DWIDTH 7 0
BBX 7 13 0 -2
BITMAP
00
00
00
00
02
74
88
88
70
80
78
84
78
ENDCHAR

STARTCHAR uni0261
ENCODING 609
SWIDTH 497 0
DWIDTH 7 0
BBX 7 13 0 -2
BITMAP
00
00
00
00
00
74
8C
84
8C
74
04
84
78
ENDCHAR

STARTCHAR uni0262
ENCODING 610
SWIDTH 497 0
DWIDTH 7 0
BBX 7 13 0 -2
BITMAP
00
00
00
00
00
78
84
80
9C
84
78
00
00
ENDCHAR

STARTCHAR uni0263
ENCODING 611
SWIDTH 497 0
DWIDTH 7 0
BBX 7 13 0 -2
BITMAP
00
00
00
00
00
44
44
44
28
28
10
28
10
ENDCHAR

STARTCHAR uni0264
ENCODING 612
SWIDTH 497 0
DWIDTH 7 0
BBX 7 13 0 -2
BITMAP
00
00
00
00
00
44
44
28
10
28
10
00
00
ENDCHAR

STARTCHAR uni0265
ENCODING 613
SWIDTH 497 0
DWIDTH 7 0
BBX 7 13 0 -2
BITMAP
00
00
00
00
84
84
84
84
8C
74
04
04
04
ENDCHAR

STARTCHAR uni0266
ENCODING 614
SWIDTH 497 0
DWIDTH 7 0
BBX 7 13 0 -2
BITMAP
00
78
80
80
80
B8
C4
84
84
84
84
00
00
ENDCHAR

STARTCHAR uni0267
ENCODING 615
SWIDTH 497 0
DWIDTH 7 0
BBX 7 13 0 -2
BITMAP
00
78
80
80
80
B8
C4
84
84
84
84
04
38
ENDCHAR

STARTCHAR uni0268
ENCODING 616
SWIDTH 497 0
DWIDTH 7 0
BBX 7 13 0 -2
BITMAP
00
00
00
10
00
30
10
7C
10
10
7C
00
00
ENDCHAR

STARTCHAR uni0269
ENCODING 617
SWIDTH 497 0
DWIDTH 7 0
BBX 7 13 0 -2
BITMAP
00
00
00
00
00
40
40
40
40
48
30
00
00
ENDCHAR

STARTCHAR uni026A
ENCODING 618
SWIDTH 497 0
DWIDTH 7 0
BBX 7 13 0 -2
BITMAP
00
00
00
00
00
70
20
20
20
20
70
00
00
ENDCHAR

STARTCHAR uni026B
ENCODING 619
SWIDTH 497 0
DWIDTH 7 0
BBX 7 13 0 -2
BITMAP
00
00
30
10
10
34
58
10
10
10
7C
00
00
ENDCHAR

STARTCHAR uni026C
ENCODING 620
SWIDTH 497 0
DWIDTH 7 0
BBX 7 13 0 -2
BITMAP
00
00
30
10
10
30
50
3C
10
10
7C
00
00
ENDCHAR

STARTCHAR uni026D
ENCODING 621
SWIDTH 497 0
DWIDTH 7 0
BBX 7 13 0 -2
BITMAP
00
00
60
20
20
20
20
20
20
20
20
28
10
ENDCHAR

STARTCHAR uni026E
ENCODING 622
SWIDTH 497 0
DWIDTH 7 0
BBX 7 13 0 -2
BITMAP
00
00
80
80
80
B8
C4
84
84
88
00
90
60
ENDCHAR

STARTCHAR uni026F
ENCODING 623
SWIDTH 497 0
DWIDTH 7 0
BBX 7 13 0 -2
BITMAP
00
00
00
00
00
44
54
54
54
54
2C
00
00
ENDCHAR

STARTCHAR uni0270
ENCODING 624
SWIDTH 497 0
DWIDTH 7 0
BBX 7 13 0 -2
BITMAP
00
00
00
00
00
44
54
54
54
54
2C
04
04
ENDCHAR

STARTCHAR uni0271
ENCODING 625
SWIDTH 497 0
DWIDTH 7 0
BBX 7 13 0 -2
BITMAP
00
00
00
00
00
68
54
54
54
54
44
04
38
ENDCHAR

STARTCHAR uni0272
ENCODING 626
SWIDTH 497 0
DWIDTH 7 0
BBX 7 13 0 -2
BITMAP
00
00
00
00
00
58
64
44
44
44
44
80
00
ENDCHAR

STARTCHAR uni0273
ENCODING 627
SWIDTH 497 0
DWIDTH 7 0
BBX 7 13 0 -2
BITMAP
00
00
00
00
00
B0
C8
88
88
88
88
04
00
ENDCHAR

STARTCHAR uni0274
ENCODING 628
SWIDTH 497 0
DWIDTH 7 0
BBX 7 13 0 -2
BITMAP
00
00
00
00
00
84
C4
A4
94
8C
84
00
00
ENDCHAR

STARTCHAR uni0275
ENCODING 629
SWIDTH 497 0
DWIDTH 7 0
BBX 7 13 0 -2
BITMAP
00
00
00
00
00
78
84
FC
84
84
78
00
00
ENDCHAR

STARTCHAR uni0276
ENCODING 630
SWIDTH 497 0
DWIDTH 7 0
BBX 7 13 0 -2
BITMAP
00
00
00
00
00
7C
90
9C
90
90
7C
00
00
ENDCHAR

STARTCHAR uni0277
ENCODING 631
SWIDTH 497 0
DWIDTH 7 0
BBX 7 13 0 -2
BITMAP
00
00
00
00
00
70
88
A8
A8
A8
50
00
00
ENDCHAR

STARTCHAR uni0278
ENCODING 632
SWIDTH 497 0
DWIDTH 7 0
BBX 7 13 0 -2
BITMAP
00
00
00
20
20
70
A8
A8
A8
A8
70
20
20
ENDCHAR

STARTCHAR uni0279
ENCODING 633
SWIDTH 497 0
DWIDTH 7 0
BBX 7 13 0 -2
BITMAP
00
00
00
00
00
08
08
08
08
88
74
00
00
ENDCHAR

STARTCHAR uni027A
ENCODING 634
SWIDTH 497 0
DWIDTH 7 0
BBX 7 13 0 -2
BITMAP
00
00
08
08
08
08
08
08
08
88
74
00
00
ENDCHAR

STARTCHAR uni027B
ENCODING 635
SWIDTH 497 0
DWIDTH 7 0
BBX 7 13 0 -2
BITMAP
00
00
00
08
08
08
08
98
68
08
04
00
00
ENDCHAR

STARTCHAR uni027C
ENCODING 636
SWIDTH 497 0
DWIDTH 7 0
BBX 7 13 0 -2
BITMAP
00
00
00
00
00
B8
44
40
40
40
40
40
40
ENDCHAR

STARTCHAR uni027D
ENCODING 637
SWIDTH 497 0
DWIDTH 7 0
BBX 7 13 0 -2
BITMAP
00
00
00
00
00
B8
44
40
40
40
40
48
30
ENDCHAR

STARTCHAR uni027E
ENCODING 638
SWIDTH 497 0
DWIDTH 7 0
BBX 7 13 0 -2
BITMAP
00
00
00
00
00
38
44
40
40
40
40
00
00
ENDCHAR

STARTCHAR uni027F
ENCODING 639
SWIDTH 497 0
DWIDTH 7 0
BBX 7 13 0 -2
BITMAP
00
00
00
00
00
38
44
04
04
04
04
00
00
ENDCHAR

STARTCHAR uni0280
ENCODING 640
SWIDTH 497 0
DWIDTH 7 0
BBX 7 13 0 -2
BITMAP
00
00
00
00
00
F0
88
88
F0
90
88
00
00
ENDCHAR

STARTCHAR uni0281
ENCODING 641
SWIDTH 497 0
DWIDTH 7 0
BBX 7 13 0 -2
BITMAP
00
00
00
00
00
88
90
F0
88
88
F0
00
00
ENDCHAR

STARTCHAR uni0282
ENCODING 642
SWIDTH 497 0
DWIDTH 7 0
BBX 7 13 0 -2
BITMAP
00
00
00
00
00
78
84
60
18
84
F8
80
60
ENDCHAR

STARTCHAR uni0283
ENCODING 643
SWIDTH 497 0
DWIDTH 7 0
BBX 7 13 0 -2
BITMAP
00
00
08
14
10
10
10
10
10
10
10
50
20
ENDCHAR

STARTCHAR uni0284
ENCODING 644
SWIDTH 497 0
DWIDTH 7 0
BBX 7 13 0 -2
BITMAP
00
00
04
08
08
08
08
08
3C
08
08
88
70
ENDCHAR

STARTCHAR uni0285
ENCODING 645
SWIDTH 497 0
DWIDTH 7 0
BBX 7 13 0 -2
BITMAP
00
00
20
50
10
10
10
10
10
10
10
14
08
ENDCHAR

STARTCHAR uni0286
ENCODING 646
SWIDTH 497 0
DWIDTH 7 0
BBX 7 13 0 -2
BITMAP
00
00
08
14
10
10
10
10
10
38
54
50
20
ENDCHAR

STARTCHAR uni0287
ENCODING 647
SWIDTH 497 0
DWIDTH 7 0
BBX 7 13 0 -2
BITMAP
00
00
00
70
88
08
08
08
3C
08
08
00
00
ENDCHAR

STARTCHAR uni0288
ENCODING 648
SWIDTH 497 0
DWIDTH 7 0
BBX 7 13 0 -2
BITMAP
00
00
00
40
40
F0
40
40
40
40
40
44
38
ENDCHAR

STARTCHAR uni0289
ENCODING 649
SWIDTH 497 0
DWIDTH 7 0
BBX 7 13 0 -2
BITMAP
00
00
00
00
00
44
44
FE
44
4C
34
00
00
ENDCHAR

STARTCHAR uni028A
ENCODING 650
SWIDTH 497 0
DWIDTH 7 0
BBX 7 13 0 -2
BITMAP
00
00
00
00
00
CC
48
84
84
48
30
00
00
ENDCHAR

STARTCHAR uni028B
ENCODING 651
SWIDTH 497 0
DWIDTH 7 0
BBX 7 13 0 -2
BITMAP
00
00
00
00
00
88
84
84
84
88
70
00
00
ENDCHAR

STARTCHAR uni028C
ENCODING 652
SWIDTH 497 0
DWIDTH 7 0
BBX 7 13 0 -2
BITMAP
00
00
00
00
00
10
28
28
44
44
44
00
00
ENDCHAR

STARTCHAR uni028D
ENCODING 653
SWIDTH 497 0
DWIDTH 7 0
BBX 7 13 0 -2
BITMAP
00
00
00
00
00
28
54
54
54
44
44
00
00
ENDCHAR

STARTCHAR uni028E
ENCODING 654
SWIDTH 497 0
DWIDTH 7 0
BBX 7 13 0 -2
BITMAP
00
00
08
14
10
20
20
70
48
88
84
00
00
ENDCHAR

STARTCHAR uni028F
ENCODING 655
SWIDTH 497 0
DWIDTH 7 0
BBX 7 13 0 -2
BITMAP
00
00
00
00
00
44
28
10
10
10
10
00
00
ENDCHAR

STARTCHAR uni0290
ENCODING 656
SWIDTH 497 0
DWIDTH 7 0
BBX 7 13 0 -2
BITMAP
00
00
00
00
00
FC
08
10
20
40
F8
08
06
ENDCHAR

STARTCHAR uni0291
ENCODING 657
SWIDTH 497 0
DWIDTH 7 0
BBX 7 13 0 -2
BITMAP
00
00
00
00
00
FC
08
10
24
4A
FC
10
00
ENDCHAR

STARTCHAR uni0292
ENCODING 658
SWIDTH 497 0
DWIDTH 7 0
BBX 7 13 0 -2
BITMAP
00
00
00
00
00
FC
08
10
38
04
04
84
78
ENDCHAR

STARTCHAR uni0293
ENCODING 659
SWIDTH 497 0
DWIDTH 7 0
BBX 7 13 0 -2
BITMAP
00
00
00
00
00
FC
08
10
38
04
7E
84
78
ENDCHAR

STARTCHAR uni0294
ENCODING 660
SWIDTH 497 0
DWIDTH 7 0
BBX 7 13 0 -2
BITMAP
00
00
38
44
04
04
18
10
10
10
10
00
00
ENDCHAR

STARTCHAR uni0295
ENCODING 661
SWIDTH 497 0
DWIDTH 7 0
BBX 7 13 0 -2
BITMAP
00
00
38
44
40
40
30
10
10
10
10
00
00
ENDCHAR

STARTCHAR uni0296
ENCODING 662
SWIDTH 497 0
DWIDTH 7 0
BBX 7 13 0 -2
BITMAP
00
00
10
10
10
10
18
04
04
44
38
00
00
ENDCHAR

STARTCHAR uni0297
ENCODING 663
SWIDTH 497 0
DWIDTH 7 0
BBX 7 13 0 -2
BITMAP
00
00
30
48
40
40
40
40
40
48
30
00
00
ENDCHAR

STARTCHAR uni0298
ENCODING 664
SWIDTH 497 0
DWIDTH 7 0
BBX 7 13 0 -2
BITMAP
00
00
00
00
00
78
84
B4
B4
84
78
00
00
ENDCHAR

STARTCHAR uni0299
ENCODING 665
SWIDTH 497 0
DWIDTH 7 0
BBX 7 13 0 -2
BITMAP
00
00
00
00
00
F0
88
F0
88
88
F0
00
00
ENDCHAR

STARTCHAR uni029A
ENCODING 666
SWIDTH 497 0
DWIDTH 7 0
BBX 7 13 0 -2
BITMAP
00
00
00
00
00
70
88
68
88
88
70
00
00
ENDCHAR

STARTCHAR uni029B
ENCODING 667
SWIDTH 497 0
DWIDTH 7 0
BBX 7 13 0 -2
BITMAP
00
00
00
00
06
78
84
80
9C
84
78
00
00
ENDCHAR

STARTCHAR uni029C
ENCODING 668
SWIDTH 497 0
DWIDTH 7 0
BBX 7 13 0 -2
BITMAP
00
00
00
00
00
88
88
F8
88
88
88
00
00
ENDCHAR

STARTCHAR uni029D
ENCODING 669
SWIDTH 497 0
DWIDTH 7 0
BBX 7 13 0 -2
BITMAP
00
00
00
08
00
18
08
08
08
7C
88
88
70
ENDCHAR

STARTCHAR uni029E
ENCODING 670
SWIDTH 497 0
DWIDTH 7 0
BBX 7 13 0 -2
BITMAP
00
00
00
00
84
44
24
1C
24
44
04
04
04
ENDCHAR

STARTCHAR uni029F
ENCODING 671
SWIDTH 497 0
DWIDTH 7 0
BBX 7 13 0 -2
BITMAP
00
00
00
00
00
80
80
80
80
80
F8
00
00
ENDCHAR

STARTCHAR uni02A0
ENCODING 672
SWIDTH 497 0
DWIDTH 7 0
BBX 7 13 0 -2
BITMAP
00
00
00
00
06
68
98
88
98
68
08
08
08
ENDCHAR

STARTCHAR uni02A1
ENCODING 673
SWIDTH 497 0
DWIDTH 7 0
BBX 7 13 0 -2
BITMAP
00
00
38
44
04
04
18
10
7C
10
10
00
00
ENDCHAR

STARTCHAR uni02A2
ENCODING 674
SWIDTH 497 0
DWIDTH 7 0
BBX 7 13 0 -2
BITMAP
00
00
38
44
40
40
30
10
7C
10
10
00
00
ENDCHAR

STARTCHAR uni02A3
ENCODING 675
SWIDTH 497 0
DWIDTH 7 0
BBX 7 13 0 -2
BITMAP
00
00
20
20
20
7C
A4
A8
A8
B0
7C
00
00
ENDCHAR

STARTCHAR uni02A4
ENCODING 676
SWIDTH 497 0
DWIDTH 7 0
BBX 7 13 0 -2
BITMAP
00
00
20
20
20
7C
A4
A8
BC
A2
62
04
18
ENDCHAR

STARTCHAR uni02A5
ENCODING 677
SWIDTH 497 0
DWIDTH 7 0
BBX 7 13 0 -2
BITMAP
00
00
20
20
20
7C
A4
A8
A8
BC
7C
08
10
ENDCHAR

STARTCHAR uni02A6
ENCODING 678
SWIDTH 497 0
DWIDTH 7 0
BBX 7 13 0 -2
BITMAP
00
00
00
40
40
F8
54
50
48
44
38
00
00
ENDCHAR

STARTCHAR uni02A7
ENCODING 679
SWIDTH 497 0
DWIDTH 7 0
BBX 7 13 0 -2
BITMAP
00
00
04
4A
48
F8
48
48
48
48
48
28
10
ENDCHAR

STARTCHAR uni02A8
ENCODING 680
SWIDTH 497 0
DWIDTH 7 0
BBX 7 13 0 -2
BITMAP
00
00
00
40
40
F8
54
50
50
54
38
00
00
ENDCHAR

STARTCHAR uni02A9
ENCODING 681
SWIDTH 497 0
DWIDTH 7 0
BBX 7 13 0 -2
BITMAP
00
00
30
48
40
40
F8
54
54
54
54
04
18
ENDCHAR

STARTCHAR uni02AA
ENCODING 682
SWIDTH 497 0
DWIDTH 7 0
BBX 7 13 0 -2
BITMAP
00
00
C0
40
40
58
64
50
48
64
F8
00
00
ENDCHAR

STARTCHAR uni02AB
ENCODING 683
SWIDTH 497 0
DWIDTH 7 0
BBX 7 13 0 -2
BITMAP
00
00
C0
40
40
7C
44
48
50
60
FC
00
00
ENDCHAR

STARTCHAR uni02AC
ENCODING 684
SWIDTH 497 0
DWIDTH 7 0
BBX 7 13 0 -2
BITMAP
00
00
00
00
54
54
28
00
54
54
28
00
00
ENDCHAR

STARTCHAR uni02AD
ENCODING 685
SWIDTH 497 0
DWIDTH 7 0
BBX 7 13 0 -2
BITMAP
00
00
00
00
7C
44
00
7C
44
00
00
00
00
ENDCHAR

STARTCHAR uni02B0
ENCODING 688
SWIDTH 497 0
DWIDTH 7 0
BBX 7 13 0 -2
BITMAP
00
40
40
60
50
50
50
00
00
00
00
00
00
ENDCHAR

STARTCHAR uni02B1
ENCODING 689
SWIDTH 497 0
DWIDTH 7 0
BBX 7 13 0 -2
BITMAP
00
20
40
60
50
50
50
00
00
00
00
00
00
ENDCHAR

STARTCHAR uni02B2
ENCODING 690
SWIDTH 497 0
DWIDTH 7 0
BBX 7 13 0 -2
BITMAP
00
00
20
00
20
20
20
20
40
00
00
00
00
ENDCHAR

STARTCHAR uni02B3
ENCODING 691
SWIDTH 497 0
DWIDTH 7 0
BBX 7 13 0 -2
BITMAP
00
00
00
50
60
40
40
00
00
00
00
00
00
ENDCHAR

STARTCHAR uni02B4
ENCODING 692
SWIDTH 497 0
DWIDTH 7 0
BBX 7 13 0 -2
BITMAP
00
00
00
10
10
30
50
00
00
00
00
00
00
ENDCHAR

STARTCHAR uni02B5
ENCODING 693
SWIDTH 497 0
DWIDTH 7 0
BBX 7 13 0 -2
BITMAP
00
00
00
10
10
30
50
10
08
00
00
00
00
ENDCHAR

STARTCHAR uni02B6
ENCODING 694
SWIDTH 497 0
DWIDTH 7 0
BBX 7 13 0 -2
BITMAP
00
00
48
50
70
48
48
70
00
00
00
00
00
ENDCHAR

STARTCHAR uni02B7
ENCODING 695
SWIDTH 497 0
DWIDTH 7 0
BBX 7 13 0 -2
BITMAP
00
00
00
88
88
A8
50
00
00
00
00
00
00
ENDCHAR

STARTCHAR uni02B8
ENCODING 696
SWIDTH 497 0
DWIDTH 7 0
BBX 7 13 0 -2
BITMAP
00
00
00
50
50
50
30
10
60
00
00
00
00
ENDCHAR

STARTCHAR uni02B9
ENCODING 697
SWIDTH 497 0
DWIDTH 7 0
BBX 7 13 0 -2
BITMAP
00
00
10
10
20
20
00
00
00
00
00
00
00
ENDCHAR

STARTCHAR uni02BA
ENCODING 698
SWIDTH 497 0
DWIDTH 7 0
BBX 7 13 0 -2
BITMAP
00
00
24
24
48
48
00
00
00
00
00
00
00
ENDCHAR

STARTCHAR uni02BB
ENCODING 699
SWIDTH 497 0
DWIDTH 7 0
BBX 7 13 0 -2
BITMAP
00
00
54
54
A8
A8
00
00
00
00
00
00
00
ENDCHAR

STARTCHAR afii57929
ENCODING 700
SWIDTH 497 0
DWIDTH 7 0
BBX 7 13 0 -2
BITMAP
00
00
30
10
20
00
00
00
00
00
00
00
00
ENDCHAR

STARTCHAR afii64937
ENCODING 701
SWIDTH 497 0
DWIDTH 7 0
BBX 7 13 0 -2
BITMAP
00
00
30
20
10
00
00
00
00
00
00
00
00
ENDCHAR

STARTCHAR uni02BE
ENCODING 702
SWIDTH 497 0
DWIDTH 7 0
BBX 7 13 0 -2
BITMAP
00
00
30
08
08
30
00
00
00
00
00
00
00
ENDCHAR

STARTCHAR uni02BF
ENCODING 703
SWIDTH 497 0
DWIDTH 7 0
BBX 7 13 0 -2
BITMAP
00
00
30
40
40
30
00
00
00
00
00
00
00
ENDCHAR

STARTCHAR uni02C0
ENCODING 704
SWIDTH 497 0
DWIDTH 7 0
BBX 7 13 0 -2
BITMAP
00
00
10
28
08
10
10
00
00
00
00
00
00
ENDCHAR

STARTCHAR uni02C1
ENCODING 705
SWIDTH 497 0
DWIDTH 7 0
BBX 7 13 0 -2
BITMAP
00
00
10
28
20
10
10
00
00
00
00
00
00
ENDCHAR

STARTCHAR uni02C2
ENCODING 706
SWIDTH 497 0
DWIDTH 7 0
BBX 7 13 0 -2
BITMAP
00
00
08
10
20
10
08
00
00
00
00
00
00
ENDCHAR

STARTCHAR uni02C3
ENCODING 707
SWIDTH 497 0
DWIDTH 7 0
BBX 7 13 0 -2
BITMAP
00
00
20
10
08
10
20
00
00
00
00
00
00
ENDCHAR

STARTCHAR uni02C4
ENCODING 708
SWIDTH 497 0
DWIDTH 7 0
BBX 7 13 0 -2
BITMAP
00
00
10
28
44
00
00
00
00
00
00
00
00
ENDCHAR

STARTCHAR uni02C5
ENCODING 709
SWIDTH 497 0
DWIDTH 7 0
BBX 7 13 0 -2
BITMAP
00
00
44
28
10
00
00
00
00
00
00
00
00
ENDCHAR

STARTCHAR circumflex
ENCODING 710
SWIDTH 497 0
DWIDTH 7 0
BBX 7 13 0 -2
BITMAP
00
30
48
00
00
00
00
00
00
00
00
00
00
ENDCHAR

STARTCHAR caron
ENCODING 711
SWIDTH 497 0
DWIDTH 7 0
BBX 7 13 0 -2
BITMAP
00
48
30
00
00
00
00
00
00
00
00
00
00
ENDCHAR

STARTCHAR uni02C8
ENCODING 712
SWIDTH 497 0
DWIDTH 7 0
BBX 7 13 0 -2
BITMAP
00
10
10
10
00
00
00
00
00
00
00
00
00
ENDCHAR

STARTCHAR macron
ENCODING 713
SWIDTH 497 0
DWIDTH 7 0
BBX 7 13 0 -2
BITMAP
00
7C
00
00
00
00
00
00
00
00
00
00
00
ENDCHAR

STARTCHAR uni02CA
ENCODING 714
SWIDTH 497 0
DWIDTH 7 0
BBX 7 13 0 -2
BITMAP
00
00
08
10
20
00
00
00
00
00
00
00
00
ENDCHAR

STARTCHAR uni02CB
ENCODING 715
SWIDTH 497 0
DWIDTH 7 0
BBX 7 13 0 -2
BITMAP
00
00
20
10
08
00
00
00
00
00
00
00
00
ENDCHAR

STARTCHAR uni02CC
ENCODING 716
SWIDTH 497 0
DWIDTH 7 0
BBX 7 13 0 -2
BITMAP
00
00
00
00
00
00
00
00
00
10
10
10
00
ENDCHAR

STARTCHAR uni02CD
ENCODING 717
SWIDTH 497 0
DWIDTH 7 0
BBX 7 13 0 -2
BITMAP
00
00
00
00
00
00
00
00
00
00
00
38
00
ENDCHAR

STARTCHAR uni02CE
ENCODING 718
SWIDTH 497 0
DWIDTH 7 0
BBX 7 13 0 -2
BITMAP
00
00
00
00
00
00
00
00
00
00
20
10
08
ENDCHAR

STARTCHAR uni02CF
ENCODING 719
SWIDTH 497 0
DWIDTH 7 0
BBX 7 13 0 -2
BITMAP
00
00
00
00
00
00
00
00
00
00
08
10
20
ENDCHAR

STARTCHAR uni02D0
ENCODING 720
SWIDTH 497 0
DWIDTH 7 0
BBX 7 13 0 -2
BITMAP
00
00
00
00
00
38
10
00
00
10
38
00
00
ENDCHAR

STARTCHAR uni02D1
ENCODING 721
SWIDTH 497 0
DWIDTH 7 0
BBX 7 13 0 -2
BITMAP
00
00
00
00
00
38
10
00
00
00
00
00
00
ENDCHAR

STARTCHAR uni02D2
ENCODING 722
SWIDTH 497 0
DWIDTH 7 0
BBX 7 13 0 -2
BITMAP
00
00
00
00
00
00
30
08
08
30
00
00
00
ENDCHAR

STARTCHAR uni02D3
ENCODING 723
SWIDTH 497 0
DWIDTH 7 0
BBX 7 13 0 -2
BITMAP
00
00
00
00
00
00
30
40
40
30
00
00
00
ENDCHAR

STARTCHAR uni02D4
ENCODING 724
SWIDTH 497 0
DWIDTH 7 0
BBX 7 13 0 -2
BITMAP
00
00
00
00
10
10
7C
00
00
00
00
00
00
ENDCHAR

STARTCHAR uni02D5
ENCODING 725
SWIDTH 497 0
DWIDTH 7 0
BBX 7 13 0 -2
BITMAP
00
00
00
00
00
00
7C
10
10
00
00
00
00
ENDCHAR

STARTCHAR uni02D6
ENCODING 726
SWIDTH 497 0
DWIDTH 7 0
BBX 7 13 0 -2
BITMAP
00
00
00
00
10
10
7C
10
10
00
00
00
00
ENDCHAR

STARTCHAR uni02D7
ENCODING 727
SWIDTH 497 0
DWIDTH 7 0
BBX 7 13 0 -2
BITMAP
00
00
00
00
00
44
7C
44
00
00
00
00
00
ENDCHAR

STARTCHAR breve
ENCODING 728
SWIDTH 497 0
DWIDTH 7 0
BBX 7 13 0 -2
BITMAP
00
84
78
00
00
00
00
00
00
00
00
00
00
ENDCHAR

STARTCHAR dotaccent
ENCODING 729
SWIDTH 497 0
DWIDTH 7 0
BBX 7 13 0 -2
BITMAP
10
10
00
00
00
00
00
00
00
00
00
00
00
ENDCHAR

STARTCHAR ring
ENCODING 730
SWIDTH 497 0
DWIDTH 7 0
BBX 7 13 0 -2
BITMAP
00
30
48
30
00
00
00
00
00
00
00
00
00
ENDCHAR

STARTCHAR ogonek
ENCODING 731
SWIDTH 497 0
DWIDTH 7 0
BBX 7 13 0 -2
BITMAP
00
00
00
00
00
00
00
00
00
00
00
20
10
ENDCHAR

STARTCHAR tilde
ENCODING 732
SWIDTH 497 0
DWIDTH 7 0
BBX 7 13 0 -2
BITMAP
00
64
98
00
00
00
00
00
00
00
00
00
00
ENDCHAR

STARTCHAR hungarumlaut
ENCODING 733
SWIDTH 497 0
DWIDTH 7 0
BBX 7 13 0 -2
BITMAP
00
24
48
00
00
00
00
00
00
00
00
00
00
ENDCHAR

STARTCHAR uni02DE
ENCODING 734
SWIDTH 497 0
DWIDTH 7 0
BBX 7 13 0 -2
BITMAP
00
00
00
00
00
30
54
18
00
00
00
00
00
ENDCHAR

STARTCHAR uni02DF
ENCODING 735
SWIDTH 497 0
DWIDTH 7 0
BBX 7 13 0 -2
BITMAP
00
28
10
28
00
00
00
00
00
00
00
00
00
ENDCHAR

STARTCHAR uni02E0
ENCODING 736
SWIDTH 497 0
DWIDTH 7 0
BBX 7 13 0 -2
BITMAP
00
00
28
28
10
28
10
00
00
00
00
00
00
ENDCHAR

STARTCHAR uni02E1
ENCODING 737
SWIDTH 497 0
DWIDTH 7 0
BBX 7 13 0 -2
BITMAP
00
00
60
20
20
20
70
00
00
00
00
00
00
ENDCHAR

STARTCHAR uni02E2
ENCODING 738
SWIDTH 497 0
DWIDTH 7 0
BBX 7 13 0 -2
BITMAP
00
00
00
10
20
10
20
00
00
00
00
00
00
ENDCHAR

STARTCHAR uni02E3
ENCODING 739
SWIDTH 497 0
DWIDTH 7 0
BBX 7 13 0 -2
BITMAP
00
00
50
50
20
50
50
00
00
00
00
00
00
ENDCHAR

STARTCHAR uni02E4
ENCODING 740
SWIDTH 497 0
DWIDTH 7 0
BBX 7 13 0 -2
BITMAP
00
30
48
40
30
10
10
00
00
00
00
00
00
ENDCHAR

STARTCHAR uni02E5
ENCODING 741
SWIDTH 497 0
DWIDTH 7 0
BBX 7 13 0 -2
BITMAP
00
00
70
10
10
10
10
10
10
10
10
00
00
ENDCHAR

STARTCHAR uni02E6
ENCODING 742
SWIDTH 497 0
DWIDTH 7 0
BBX 7 13 0 -2
BITMAP
00
00
10
10
70
10
10
10
10
10
10
00
00
ENDCHAR

STARTCHAR uni02E7
ENCODING 743
SWIDTH 497 0
DWIDTH 7 0
BBX 7 13 0 -2
BITMAP
00
00
10
10
10
10
70
10
10
10
10
00
00
ENDCHAR

STARTCHAR uni02E8
ENCODING 744
SWIDTH 497 0
DWIDTH 7 0
BBX 7 13 0 -2
BITMAP
00
00
10
10
10
10
10
10
70
10
10
00
00
ENDCHAR

STARTCHAR uni02E9
ENCODING 745
SWIDTH 497 0
DWIDTH 7 0
BBX 7 13 0 -2
BITMAP
00
00
10
10
10
10
10
10
10
10
70
00
00
ENDCHAR

STARTCHAR uni02EA
ENCODING 746
SWIDTH 497 0
DWIDTH 7 0
BBX 7 13 0 -2
BITMAP
00
00
00
00
00
00
00
00
00
70
10
10
00
ENDCHAR

STARTCHAR uni02EB
ENCODING 747
SWIDTH 497 0
DWIDTH 7 0
BBX 7 13 0 -2
BITMAP
00
00
00
00
00
00
00
20
20
38
20
20
00
ENDCHAR

STARTCHAR uni02EC
ENCODING 748
SWIDTH 497 0
DWIDTH 7 0
BBX 7 13 0 -2
BITMAP
00
00
00
00
00
00
00
00
00
44
28
10
00
ENDCHAR

STARTCHAR uni02ED
ENCODING 749
SWIDTH 497 0
DWIDTH 7 0
BBX 7 13 0 -2
BITMAP
00
00
00
00
00
38
00
38
00
00
00
00
00
ENDCHAR

STARTCHAR uni02EE
ENCODING 750
SWIDTH 497 0
DWIDTH 7 0
BBX 7 13 0 -2
BITMAP
00
00
6C
6C
24
48
00
00
00
00
00
00
00
ENDCHAR

STARTCHAR gravecomb
ENCODING 768
SWIDTH 497 0
DWIDTH 7 0
BBX 7 13 0 -2
BITMAP
20
10
00
00
00
00
00
00
00
00
00
00
00
ENDCHAR

STARTCHAR acutecomb
ENCODING 769
SWIDTH 497 0
DWIDTH 7 0
BBX 7 13 0 -2
BITMAP
10
20
00
00
00
00
00
00
00
00
00
00
00
ENDCHAR

STARTCHAR uni0302
ENCODING 770
SWIDTH 497 0
DWIDTH 7 0
BBX 7 13 0 -2
BITMAP
10
28
00
00
00
00
00
00
00
00
00
00
00
ENDCHAR

STARTCHAR tildecomb
ENCODING 771
SWIDTH 497 0
DWIDTH 7 0
BBX 7 13 0 -2
BITMAP
28
50
00
00
00
00
00
00
00
00
00
00
00
ENDCHAR

STARTCHAR uni0304
ENCODING 772
SWIDTH 497 0
DWIDTH 7 0
BBX 7 13 0 -2
BITMAP
00
78
00
00
00
00
00
00
00
00
00
00
00
ENDCHAR

STARTCHAR uni0305
ENCODING 773
SWIDTH 497 0
DWIDTH 7 0
BBX 7 13 0 -2
BITMAP
00
FC
00
00
00
00
00
00
00
00
00
00
00
ENDCHAR

STARTCHAR uni0306
ENCODING 774
SWIDTH 497 0
DWIDTH 7 0
BBX 7 13 0 -2
BITMAP
44
38
00
00
00
00
00
00
00
00
00
00
00
ENDCHAR

STARTCHAR uni0307
ENCODING 775
SWIDTH 497 0
DWIDTH 7 0
BBX 7 13 0 -2
BITMAP
10
10
00
00
00
00
00
00
00
00
00
00
00
ENDCHAR

STARTCHAR uni0308
ENCODING 776
SWIDTH 497 0
DWIDTH 7 0
BBX 7 13 0 -2
BITMAP
28
28
00
00
00
00
00
00
00
00
00
00
00
ENDCHAR

STARTCHAR hookabovecomb
ENCODING 777
SWIDTH 497 0
DWIDTH 7 0
BBX 7 13 0 -2
BITMAP
30
08
10
00
00
00
00
00
00
00
00
00
00
ENDCHAR

STARTCHAR uni030A
ENCODING 778
SWIDTH 497 0
DWIDTH 7 0
BBX 7 13 0 -2
BITMAP
10
28
10
00
00
00
00
00
00
00
00
00
00
ENDCHAR

STARTCHAR uni030B
ENCODING 779
SWIDTH 497 0
DWIDTH 7 0
BBX 7 13 0 -2
BITMAP
24
48
00
00
00
00
00
00
00
00
00
00
00
ENDCHAR

STARTCHAR uni030C
ENCODING 780
SWIDTH 497 0
DWIDTH 7 0
BBX 7 13 0 -2
BITMAP
28
10
00
00
00
00
00
00
00
00
00
00
00
ENDCHAR

STARTCHAR uni030D
ENCODING 781
SWIDTH 497 0
DWIDTH 7 0
BBX 7 13 0 -2
BITMAP
10
10
10
00
00
00
00
00
00
00
00
00
00
ENDCHAR

STARTCHAR uni030E
ENCODING 782
SWIDTH 497 0
DWIDTH 7 0
BBX 7 13 0 -2
BITMAP
28
28
28
00
00
00
00
00
00
00
00
00
00
ENDCHAR

STARTCHAR uni030F
ENCODING 783
SWIDTH 497 0
DWIDTH 7 0
BBX 7 13 0 -2
BITMAP
48
24
00
00
00
00
00
00
00
00
00
00
00
ENDCHAR

STARTCHAR uni0310
ENCODING 784
SWIDTH 497 0
DWIDTH 7 0
BBX 7 13 0 -2
BITMAP
10
44
38
00
00
00
00
00
00
00
00
00
00
ENDCHAR

STARTCHAR uni0311
ENCODING 785
SWIDTH 497 0
DWIDTH 7 0
BBX 7 13 0 -2
BITMAP
38
44
00
00
00
00
00
00
00
00
00
00
00
ENDCHAR

STARTCHAR dotbelowcomb
ENCODING 803
SWIDTH 497 0
DWIDTH 7 0
BBX 7 13 0 -2
BITMAP
00
00
00
00
00
00
00
00
00
00
00
00
10
ENDCHAR

STARTCHAR uni0324
ENCODING 804
SWIDTH 497 0
DWIDTH 7 0
BBX 7 13 0 -2
BITMAP
00
00
00
00
00
00
00
00
00
00
00
00
28
ENDCHAR

STARTCHAR uni0325
ENCODING 805
SWIDTH 497 0
DWIDTH 7 0
BBX 7 13 0 -2
BITMAP
00
00
00
00
00
00
00
00
00
00
10
28
10
ENDCHAR

STARTCHAR uni0326
ENCODING 806
SWIDTH 497 0
DWIDTH 7 0
BBX 7 13 0 -2
BITMAP
00
00
00
00
00
00
00
00
00
00
00
10
20
ENDCHAR

STARTCHAR uni0327
ENCODING 807
SWIDTH 497 0
DWIDTH 7 0
BBX 7 13 0 -2
BITMAP
00
00
00
00
00
00
00
00
00
00
00
10
20
ENDCHAR

STARTCHAR uni0328
ENCODING 808
SWIDTH 497 0
DWIDTH 7 0
BBX 7 13 0 -2
BITMAP
00
00
00
00
00
00
00
00
00
00
00
10
08
ENDCHAR

STARTCHAR uni0329
ENCODING 809
SWIDTH 497 0
DWIDTH 7 0
BBX 7 13 0 -2
BITMAP
00
00
00
00
00
00
00
00
00
00
00
10
10
ENDCHAR

STARTCHAR uni032A
ENCODING 810
SWIDTH 497 0
DWIDTH 7 0
BBX 7 13 0 -2
BITMAP
00
00
00
00
00
00
00
00
00
00
00
7C
44
ENDCHAR

STARTCHAR uni032B
ENCODING 811
SWIDTH 497 0
DWIDTH 7 0
BBX 7 13 0 -2
BITMAP
00
00
00
00
00
00
00
00
00
00
00
54
28
ENDCHAR

STARTCHAR uni032C
ENCODING 812
SWIDTH 497 0
DWIDTH 7 0
BBX 7 13 0 -2
BITMAP
00
00
00
00
00
00
00
00
00
00
00
28
10
ENDCHAR

STARTCHAR uni032D
ENCODING 813
SWIDTH 497 0
DWIDTH 7 0
BBX 7 13 0 -2
BITMAP
00
00
00
00
00
00
00
00
00
00
00
10
28
ENDCHAR

STARTCHAR uni032E
ENCODING 814
SWIDTH 497 0
DWIDTH 7 0
BBX 7 13 0 -2
BITMAP
00
00
00
00
00
00
00
00
00
00
00
44
38
ENDCHAR

STARTCHAR uni032F
ENCODING 815
SWIDTH 497 0
DWIDTH 7 0
BBX 7 13 0 -2
BITMAP
00
00
00
00
00
00
00
00
00
00
00
38
44
ENDCHAR

STARTCHAR uni0330
ENCODING 816
SWIDTH 497 0
DWIDTH 7 0
BBX 7 13 0 -2
BITMAP
00
00
00
00
00
00
00
00
00
00
00
64
98
ENDCHAR

STARTCHAR uni0331
ENCODING 817
SWIDTH 497 0
DWIDTH 7 0
BBX 7 13 0 -2
BITMAP
00
00
00
00
00
00
00
00
00
00
00
00
FC
ENDCHAR

STARTCHAR uni0332
ENCODING 818
SWIDTH 497 0
DWIDTH 7 0
BBX 7 13 0 -2
BITMAP
00
00
00
00
00
00
00
00
00
00
00
00
FE
ENDCHAR

STARTCHAR uni0333
ENCODING 819
SWIDTH 497 0
DWIDTH 7 0
BBX 7 13 0 -2
BITMAP
00
00
00
00
00
00
00
00
00
00
FE
00
FE
ENDCHAR

STARTCHAR uni0338
ENCODING 824
SWIDTH 497 0
DWIDTH 7 0
BBX 7 13 0 -2
BITMAP
00
00
04
04
08
08
10
20
20
40
40
00
00
ENDCHAR

STARTCHAR uni0340
ENCODING 832
SWIDTH 497 0
DWIDTH 7 0
BBX 7 13 0 -2
BITMAP
20
10
00
00
00
00
00
00
00
00
00
00
00
ENDCHAR

STARTCHAR uni0341
ENCODING 833
SWIDTH 497 0
DWIDTH 7 0
BBX 7 13 0 -2
BITMAP
10
20
00
00
00
00
00
00
00
00
00
00
00
ENDCHAR

STARTCHAR uni0360
ENCODING 864
SWIDTH 497 0
DWIDTH 7 0
BBX 7 13 0 -2
BITMAP
00
32
4C
00
00
00
00
00
00
00
00
00
00
ENDCHAR

STARTCHAR uni0361
ENCODING 865
SWIDTH 497 0
DWIDTH 7 0
BBX 7 13 0 -2
BITMAP
00
3C
42
00
00
00
00
00
00
00
00
00
00
ENDCHAR

STARTCHAR uni0374
ENCODING 884
SWIDTH 497 0
DWIDTH 7 0
BBX 7 13 0 -2
BITMAP
00
00
10
20
00
00
00
00
00
00
00
00
00
ENDCHAR

STARTCHAR uni0375
ENCODING 885
SWIDTH 497 0
DWIDTH 7 0
BBX 7 13 0 -2
BITMAP
00
00
00
00
00
00
00
00
00
00
00
10
20
ENDCHAR

STARTCHAR uni037A
ENCODING 890
SWIDTH 497 0
DWIDTH 7 0
BBX 7 13 0 -2
BITMAP
00
00
00
00
00
00
00
00
00
00
00
20
30
ENDCHAR

STARTCHAR uni037E
ENCODING 894
SWIDTH 497 0
DWIDTH 7 0
BBX 7 13 0 -2
BITMAP
00
00
00
00
10
38
10
00
00
38
30
40
00
ENDCHAR

STARTCHAR tonos
ENCODING 900
SWIDTH 497 0
DWIDTH 7 0
BBX 7 13 0 -2
BITMAP
00
00
10
20
00
00
00
00
00
00
00
00
00
ENDCHAR

STARTCHAR dieresistonos
ENCODING 901
SWIDTH 497 0
DWIDTH 7 0
BBX 7 13 0 -2
BITMAP
00
08
54
44
00
00
00
00
00
00
00
00
00
ENDCHAR

STARTCHAR Alphatonos
ENCODING 902
SWIDTH 497 0
DWIDTH 7 0
BBX 7 13 0 -2
BITMAP
00
00
58
A4
24
24
24
3C
24
24
24
00
00
ENDCHAR

STARTCHAR anoteleia
ENCODING 903
SWIDTH 497 0
DWIDTH 7 0
BBX 7 13 0 -2
BITMAP
00
00
00
00
00
30
00
00
00
00
00
00
00
ENDCHAR

STARTCHAR Epsilontonos
ENCODING 904
SWIDTH 497 0
DWIDTH 7 0
BBX 7 13 0 -2
BITMAP
00
00
7C
A0
20
20
38
20
20
20
3C
00
00
ENDCHAR

STARTCHAR Etatonos
ENCODING 905
SWIDTH 497 0
DWIDTH 7 0
BBX 7 13 0 -2
BITMAP
00
00
64
A4
24
24
3C
24
24
24
24
00
00
ENDCHAR

STARTCHAR Iotatonos
ENCODING 906
SWIDTH 497 0
DWIDTH 7 0
BBX 7 13 0 -2
BITMAP
00
00
5C
88
08
08
08
08
08
08
1C
00
00
ENDCHAR

STARTCHAR Omicrontonos
ENCODING 908
SWIDTH 497 0
DWIDTH 7 0
BBX 7 13 0 -2
BITMAP
00
00
58
A4
24
24
24
24
24
24
18
00
00
ENDCHAR

STARTCHAR Upsilontonos
ENCODING 910
SWIDTH 497 0
DWIDTH 7 0
BBX 7 13 0 -2
BITMAP
00
00
54
94
14
08
08
08
08
08
08
00
00
ENDCHAR

STARTCHAR Omegatonos
ENCODING 911
SWIDTH 497 0
DWIDTH 7 0
BBX 7 13 0 -2
BITMAP
00
00
58
A4
24
24
24
24
18
18
24
00
00
ENDCHAR

STARTCHAR iotadieresistonos
ENCODING 912
SWIDTH 497 0
DWIDTH 7 0
BBX 7 13 0 -2
BITMAP
00
10
A4
84
00
20
20
20
20
24
18
00
00
ENDCHAR

STARTCHAR Alpha
ENCODING 913
SWIDTH 497 0
DWIDTH 7 0
BBX 7 13 0 -2
BITMAP
00
00
30
48
84
84
84
FC
84
84
84
00
00
ENDCHAR

STARTCHAR Beta
ENCODING 914
SWIDTH 497 0
DWIDTH 7 0
BBX 7 13 0 -2
BITMAP
00
00
F8
84
84
84
F8
84
84
84
F8
00
00
ENDCHAR

STARTCHAR Gamma
ENCODING 915
SWIDTH 497 0
DWIDTH 7 0
BBX 7 13 0 -2
BITMAP
00
00
FC
80
80
80
80
80
80
80
80
00
00
ENDCHAR

STARTCHAR Delta
ENCODING 916
SWIDTH 497 0
DWIDTH 7 0
BBX 7 13 0 -2
BITMAP
00
00
30
30
30
48
48
48
84
84
FC
00
00
ENDCHAR

STARTCHAR Epsilon
ENCODING 917
SWIDTH 497 0
DWIDTH 7 0
BBX 7 13 0 -2
BITMAP
00
00
FC
80
80
80
F0
80
80
80
FC
00
00
ENDCHAR

STARTCHAR Zeta
ENCODING 918
SWIDTH 497 0
DWIDTH 7 0
BBX 7 13 0 -2
BITMAP
00
00
FC
04
08
10
30
20
40
80
FC
00
00
ENDCHAR

STARTCHAR Eta
ENCODING 919
SWIDTH 497 0
DWIDTH 7 0
BBX 7 13 0 -2
BITMAP
00
00
84
84
84
84
FC
84
84
84
84
00
00
ENDCHAR

STARTCHAR Theta
ENCODING 920
SWIDTH 497 0
DWIDTH 7 0
BBX 7 13 0 -2
BITMAP
00
00
78
84
84
84
FC
84
84
84
78
00
00
ENDCHAR

STARTCHAR Iota
ENCODING 921
SWIDTH 497 0
DWIDTH 7 0
BBX 7 13 0 -2
BITMAP
00
00
F8
20
20
20
20
20
20
20
F8
00
00
ENDCHAR

STARTCHAR Kappa
ENCODING 922
SWIDTH 497 0
DWIDTH 7 0
BBX 7 13 0 -2
BITMAP
00
00
84
88
90
A0
C0
A0
90
88
84
00
00
ENDCHAR

STARTCHAR Lambda
ENCODING 923
SWIDTH 497 0
DWIDTH 7 0
BBX 7 13 0 -2
BITMAP
00
00
30
30
30
48
48
48
84
84
84
00
00
ENDCHAR

STARTCHAR Mu
ENCODING 924
SWIDTH 497 0
DWIDTH 7 0
BBX 7 13 0 -2
BITMAP
00
00
84
CC
CC
B4
B4
84
84
84
84
00
00
ENDCHAR

STARTCHAR Nu
ENCODING 925
SWIDTH 497 0
DWIDTH 7 0
BBX 7 13 0 -2
BITMAP
00
00
84
84
C4
A4
94
8C
84
84
84
00
00
ENDCHAR

STARTCHAR Xi
ENCODING 926
SWIDTH 497 0
DWIDTH 7 0
BBX 7 13 0 -2
BITMAP
00
00
FC
00
00
00
78
00
00
00
FC
00
00
ENDCHAR

STARTCHAR Omicron
ENCODING 927
SWIDTH 497 0
DWIDTH 7 0
BBX 7 13 0 -2
BITMAP
00
00
78
84
84
84
84
84
84
84
78
00
00
ENDCHAR

STARTCHAR Pi
ENCODING 928
SWIDTH 497 0
DWIDTH 7 0
BBX 7 13 0 -2
BITMAP
00
00
FC
48
48
48
48
48
48
48
48
00
00
ENDCHAR

STARTCHAR Rho
ENCODING 929
SWIDTH 497 0
DWIDTH 7 0
BBX 7 13 0 -2
BITMAP
00
00
F8
84
84
84
F8
80
80
80
80
00
00
ENDCHAR

STARTCHAR Sigma
ENCODING 931
SWIDTH 497 0
DWIDTH 7 0
BBX 7 13 0 -2
BITMAP
00
00
FC
80
40
20
10
20
40
80
FC
00
00
ENDCHAR

STARTCHAR Tau
ENCODING 932
SWIDTH 497 0
DWIDTH 7 0
BBX 7 13 0 -2
BITMAP
00
00
7C
10
10
10
10
10
10
10
10
00
00
ENDCHAR

STARTCHAR Upsilon
ENCODING 933
SWIDTH 497 0
DWIDTH 7 0
BBX 7 13 0 -2
BITMAP
00
00
44
44
28
28
10
10
10
10
10
00
00
ENDCHAR

STARTCHAR Phi
ENCODING 934
SWIDTH 497 0
DWIDTH 7 0
BBX 7 13 0 -2
BITMAP
00
00
10
38
54
54
54
54
54
38
10
00
00
ENDCHAR

STARTCHAR Chi
ENCODING 935
SWIDTH 497 0
DWIDTH 7 0
BBX 7 13 0 -2
BITMAP
00
00
84
84
48
48
30
48
48
84
84
00
00
ENDCHAR

STARTCHAR Psi
ENCODING 936
SWIDTH 497 0
DWIDTH 7 0
BBX 7 13 0 -2
BITMAP
00
00
54
54
54
54
54
54
38
10
10
00
00
ENDCHAR

STARTCHAR Omega
ENCODING 937
SWIDTH 497 0
DWIDTH 7 0
BBX 7 13 0 -2
BITMAP
00
00
78
84
84
84
84
84
48
48
CC
00
00
ENDCHAR

STARTCHAR Iotadieresis
ENCODING 938
SWIDTH 497 0
DWIDTH 7 0
BBX 7 13 0 -2
BITMAP
00
44
44
00
7C
10
10
10
10
10
7C
00
00
ENDCHAR

STARTCHAR Upsilondieresis
ENCODING 939
SWIDTH 497 0
DWIDTH 7 0
BBX 7 13 0 -2
BITMAP
00
44
44
00
44
44
28
10
10
10
10
00
00
ENDCHAR

STARTCHAR alphatonos
ENCODING 940
SWIDTH 497 0
DWIDTH 7 0
BBX 7 13 0 -2
BITMAP
00
00
08
10
00
74
8C
84
8C
94
64
00
00
ENDCHAR

STARTCHAR epsilontonos
ENCODING 941
SWIDTH 497 0
DWIDTH 7 0
BBX 7 13 0 -2
BITMAP
00
00
08
10
00
78
84
70
80
84
78
00
00
ENDCHAR

STARTCHAR etatonos
ENCODING 942
SWIDTH 497 0
DWIDTH 7 0
BBX 7 13 0 -2
BITMAP
00
00
08
10
00
B8
C4
84
84
84
84
04
04
ENDCHAR

STARTCHAR iotatonos
ENCODING 943
SWIDTH 497 0
DWIDTH 7 0
BBX 7 13 0 -2
BITMAP
00
00
20
40
00
40
40
40
40
48
30
00
00
ENDCHAR

STARTCHAR upsilondieresistonos
ENCODING 944
SWIDTH 497 0
DWIDTH 7 0
BBX 7 13 0 -2
BITMAP
00
10
A4
84
00
84
84
84
84
84
78
00
00
ENDCHAR

STARTCHAR alpha
ENCODING 945
SWIDTH 497 0
DWIDTH 7 0
BBX 7 13 0 -2
BITMAP
00
00
00
00
00
74
8C
84
8C
94
64
00
00
ENDCHAR

STARTCHAR beta
ENCODING 946
SWIDTH 497 0
DWIDTH 7 0
BBX 7 13 0 -2
BITMAP
00
00
70
88
88
F8
84
84
84
C4
B8
80
80
ENDCHAR

STARTCHAR gamma
ENCODING 947
SWIDTH 497 0
DWIDTH 7 0
BBX 7 13 0 -2
BITMAP
00
00
00
00
00
44
44
28
28
10
10
10
10
ENDCHAR

STARTCHAR delta
ENCODING 948
SWIDTH 497 0
DWIDTH 7 0
BBX 7 13 0 -2
BITMAP
00
00
78
84
40
78
84
84
84
84
78
00
00
ENDCHAR

STARTCHAR epsilon
ENCODING 949
SWIDTH 497 0
DWIDTH 7 0
BBX 7 13 0 -2
BITMAP
00
00
00
00
00
78
84
70
80
84
78
00
00
ENDCHAR

STARTCHAR zeta
ENCODING 950
SWIDTH 497 0
DWIDTH 7 0
BBX 7 13 0 -2
BITMAP
00
00
FC
20
40
40
80
80
80
80
78
04
18
ENDCHAR

STARTCHAR eta
ENCODING 951
SWIDTH 497 0
DWIDTH 7 0
BBX 7 13 0 -2
BITMAP
00
00
00
00
00
B8
C4
84
84
84
84
04
04
ENDCHAR

STARTCHAR theta
ENCODING 952
SWIDTH 497 0
DWIDTH 7 0
BBX 7 13 0 -2
BITMAP
00
00
38
44
44
44
7C
44
44
44
38
00
00
ENDCHAR

STARTCHAR iota
ENCODING 953
SWIDTH 497 0
DWIDTH 7 0
BBX 7 13 0 -2
BITMAP
00
00
00
00
00
40
40
40
40
48
30
00
00
ENDCHAR

STARTCHAR kappa
ENCODING 954
SWIDTH 497 0
DWIDTH 7 0
BBX 7 13 0 -2
BITMAP
00
00
00
00
00
44
48
50
70
48
44
00
00
ENDCHAR

STARTCHAR lambda
ENCODING 955
SWIDTH 497 0
DWIDTH 7 0
BBX 7 13 0 -2
BITMAP
00
00
78
84
04
74
8C
84
84
84
84
00
00
ENDCHAR

STARTCHAR mu
ENCODING 956
SWIDTH 497 0
DWIDTH 7 0
BBX 7 13 0 -2
BITMAP
00
00
00
00
00
84
84
84
84
CC
B4
80
80
ENDCHAR

STARTCHAR nu
ENCODING 957
SWIDTH 497 0
DWIDTH 7 0
BBX 7 13 0 -2
BITMAP
00
00
00
00
00
44
44
44
28
28
10
00
00
ENDCHAR

STARTCHAR xi
ENCODING 958
SWIDTH 497 0
DWIDTH 7 0
BBX 7 13 0 -2
BITMAP
00
00
FC
20
40
40
38
40
80
80
78
04
18
ENDCHAR

STARTCHAR omicron
ENCODING 959
SWIDTH 497 0
DWIDTH 7 0
BBX 7 13 0 -2
BITMAP
00
00
00
00
00
78
84
84
84
84
78
00
00
ENDCHAR

STARTCHAR pi
ENCODING 960
SWIDTH 497 0
DWIDTH 7 0
BBX 7 13 0 -2
BITMAP
00
00
00
00
00
FC
48
48
48
48
48
00
00
ENDCHAR

STARTCHAR rho
ENCODING 961
SWIDTH 497 0
DWIDTH 7 0
BBX 7 13 0 -2
BITMAP
00
00
00
00
00
78
84
84
84
C4
B8
80
80
ENDCHAR

STARTCHAR sigma1
ENCODING 962
SWIDTH 497 0
DWIDTH 7 0
BBX 7 13 0 -2
BITMAP
00
00
00
00
00
78
84
80
80
80
78
04
18
ENDCHAR

STARTCHAR sigma
ENCODING 963
SWIDTH 497 0
DWIDTH 7 0
BBX 7 13 0 -2
BITMAP
00
00
00
00
00
7C
90
88
84
84
78
00
00
ENDCHAR

STARTCHAR tau
ENCODING 964
SWIDTH 497 0
DWIDTH 7 0
BBX 7 13 0 -2
BITMAP
00
00
00
00
00
F8
20
20
20
28
10
00
00
ENDCHAR

STARTCHAR upsilon
ENCODING 965
SWIDTH 497 0
DWIDTH 7 0
BBX 7 13 0 -2
BITMAP
00
00
00
00
00
84
84
84
84
84
78
00
00
ENDCHAR

STARTCHAR phi
ENCODING 966
SWIDTH 497 0
DWIDTH 7 0
BBX 7 13 0 -2
BITMAP
00
00
00
00
00
28
54
54
54
54
38
10
10
ENDCHAR

STARTCHAR chi
ENCODING 967
SWIDTH 497 0
DWIDTH 7 0
BBX 7 13 0 -2
BITMAP
00
00
00
00
00
44
28
28
10
10
28
28
44
ENDCHAR

STARTCHAR psi
ENCODING 968
SWIDTH 497 0
DWIDTH 7 0
BBX 7 13 0 -2
BITMAP
00
00
00
00
00
54
54
54
54
54
38
10
10
ENDCHAR

STARTCHAR omega
ENCODING 969
SWIDTH 497 0
DWIDTH 7 0
BBX 7 13 0 -2
BITMAP
00
00
00
00
00
44
54
54
54
54
28
00
00
ENDCHAR

STARTCHAR iotadieresis
ENCODING 970
SWIDTH 497 0
DWIDTH 7 0
BBX 7 13 0 -2
BITMAP
00
00
84
84
00
20
20
20
20
24
18
00
00
ENDCHAR

STARTCHAR upsilondieresis
ENCODING 971
SWIDTH 497 0
DWIDTH 7 0
BBX 7 13 0 -2
BITMAP
00
00
84
84
00
84
84
84
84
84
78
00
00
ENDCHAR

STARTCHAR omicrontonos
ENCODING 972
SWIDTH 497 0
DWIDTH 7 0
BBX 7 13 0 -2
BITMAP
00
00
08
10
00
78
84
84
84
84
78
00
00
ENDCHAR

STARTCHAR upsilontonos
ENCODING 973
SWIDTH 497 0
DWIDTH 7 0
BBX 7 13 0 -2
BITMAP
00
00
08
10
00
84
84
84
84
84
78
00
00
ENDCHAR

STARTCHAR omegatonos
ENCODING 974
SWIDTH 497 0
DWIDTH 7 0
BBX 7 13 0 -2
BITMAP
00
00
08
10
00
44
54
54
54
54
28
00
00
ENDCHAR

STARTCHAR uni03D0
ENCODING 976
SWIDTH 497 0
DWIDTH 7 0
BBX 7 13 0 -2
BITMAP
00
00
30
48
88
B0
C8
84
84
48
30
00
00
ENDCHAR

STARTCHAR theta1
ENCODING 977
SWIDTH 497 0
DWIDTH 7 0
BBX 7 13 0 -2
BITMAP
00
00
70
88
88
7C
08
88
88
88
70
00
00
ENDCHAR

STARTCHAR Upsilon1
ENCODING 978
SWIDTH 497 0
DWIDTH 7 0
BBX 7 13 0 -2
BITMAP
00
00
28
54
10
10
10
10
10
10
10
00
00
ENDCHAR

STARTCHAR uni03D3
ENCODING 979
SWIDTH 497 0
DWIDTH 7 0
BBX 7 13 0 -2
BITMAP
00
00
28
54
10
50
50
10
10
10
10
00
00
ENDCHAR

STARTCHAR uni03D4
ENCODING 980
SWIDTH 497 0
DWIDTH 7 0
BBX 7 13 0 -2
BITMAP
00
44
44
00
28
54
10
10
10
10
10
00
00
ENDCHAR

STARTCHAR phi1
ENCODING 981
SWIDTH 497 0
DWIDTH 7 0
BBX 7 13 0 -2
BITMAP
00
00
00
10
10
38
54
54
54
54
38
10
10
ENDCHAR

STARTCHAR omega1
ENCODING 982
SWIDTH 497 0
DWIDTH 7 0
BBX 7 13 0 -2
BITMAP
00
00
00
00
00
7C
44
54
54
54
28
00
00
ENDCHAR

STARTCHAR uni03D7
ENCODING 983
SWIDTH 497 0
DWIDTH 7 0
BBX 7 13 0 -2
BITMAP
00
00
08
10
00
84
48
50
70
48
84
04
38
ENDCHAR

STARTCHAR uni03DA
ENCODING 986
SWIDTH 497 0
DWIDTH 7 0
BBX 7 13 0 -2
BITMAP
00
00
38
44
80
80
80
80
80
78
04
08
00
ENDCHAR

STARTCHAR uni03DB
ENCODING 987
SWIDTH 497 0
DWIDTH 7 0
BBX 7 13 0 -2
BITMAP
00
00
00
00
04
78
80
80
80
80
78
04
18
ENDCHAR

STARTCHAR uni03DC
ENCODING 988
SWIDTH 497 0
DWIDTH 7 0
BBX 7 13 0 -2
BITMAP
00
00
FC
80
80
80
F0
80
80
80
80
00
00
ENDCHAR

STARTCHAR uni03DD
ENCODING 989
SWIDTH 497 0
DWIDTH 7 0
BBX 7 13 0 -2
BITMAP
00
00
00
00
00
F8
80
80
F0
80
80
80
80
ENDCHAR

STARTCHAR uni03DE
ENCODING 990
SWIDTH 497 0
DWIDTH 7 0
BBX 7 13 0 -2
BITMAP
00
00
80
84
8C
94
A4
A4
C4
84
04
00
00
ENDCHAR

STARTCHAR uni03DF
ENCODING 991
SWIDTH 497 0
DWIDTH 7 0
BBX 7 13 0 -2
BITMAP
00
00
20
20
40
40
80
FC
04
08
08
10
10
ENDCHAR

STARTCHAR uni03E0
ENCODING 992
SWIDTH 497 0
DWIDTH 7 0
BBX 7 13 0 -2
BITMAP
00
00
30
30
30
48
48
48
94
94
A4
00
00
ENDCHAR

STARTCHAR uni03E1
ENCODING 993
SWIDTH 497 0
DWIDTH 7 0
BBX 7 13 0 -2
BITMAP
00
00
60
10
08
18
24
4C
14
24
04
04
04
ENDCHAR

STARTCHAR uni03E2
ENCODING 994
SWIDTH 497 0
DWIDTH 7 0
BBX 7 13 0 -2
BITMAP
00
00
54
54
54
54
54
54
2C
04
78
00
00
ENDCHAR

STARTCHAR uni03E3
ENCODING 995
SWIDTH 497 0
DWIDTH 7 0
BBX 7 13 0 -2
BITMAP
00
00
00
00
00
54
54
54
2C
04
78
00
00
ENDCHAR

STARTCHAR uni03E4
ENCODING 996
SWIDTH 497 0
DWIDTH 7 0
BBX 7 13 0 -2
BITMAP
00
00
44
84
84
84
84
84
7C
04
04
00
00
ENDCHAR

STARTCHAR uni03E5
ENCODING 997
SWIDTH 497 0
DWIDTH 7 0
BBX 7 13 0 -2
BITMAP
00
00
24
44
44
44
44
44
3C
04
04
00
00
ENDCHAR

STARTCHAR uni03E6
ENCODING 998
SWIDTH 497 0
DWIDTH 7 0
BBX 7 13 0 -2
BITMAP
00
00
E0
40
40
40
78
44
44
44
E4
08
10
ENDCHAR

STARTCHAR uni03E7
ENCODING 999
SWIDTH 497 0
DWIDTH 7 0
BBX 7 13 0 -2
BITMAP
00
00
00
20
20
78
A4
44
04
84
78
00
00
ENDCHAR

STARTCHAR uni03E8
ENCODING 1000
SWIDTH 497 0
DWIDTH 7 0
BBX 7 13 0 -2
BITMAP
00
00
78
84
44
04
78
80
84
84
78
00
00
ENDCHAR

STARTCHAR uni03E9
ENCODING 1001
SWIDTH 497 0
DWIDTH 7 0
BBX 7 13 0 -2
BITMAP
00
00
78
84
88
50
20
40
80
80
7C
00
00
ENDCHAR

STARTCHAR uni03EA
ENCODING 1002
SWIDTH 497 0
DWIDTH 7 0
BBX 7 13 0 -2
BITMAP
00
00
6C
10
10
28
28
28
44
44
7C
00
00
ENDCHAR

STARTCHAR uni03EB
ENCODING 1003
SWIDTH 497 0
DWIDTH 7 0
BBX 7 13 0 -2
BITMAP
00
00
00
00
00
6C
10
10
28
28
38
00
00
ENDCHAR

STARTCHAR uni03EC
ENCODING 1004
SWIDTH 497 0
DWIDTH 7 0
BBX 7 13 0 -2
BITMAP
00
00
38
40
78
44
44
44
44
44
38
00
00
ENDCHAR

STARTCHAR uni03ED
ENCODING 1005
SWIDTH 497 0
DWIDTH 7 0
BBX 7 13 0 -2
BITMAP
00
00
00
00
78
80
B8
84
84
84
78
00
00
ENDCHAR

STARTCHAR uni03EE
ENCODING 1006
SWIDTH 497 0
DWIDTH 7 0
BBX 7 13 0 -2
BITMAP
00
00
38
10
7C
54
10
10
10
10
10
00
00
ENDCHAR

STARTCHAR uni03EF
ENCODING 1007
SWIDTH 497 0
DWIDTH 7 0
BBX 7 13 0 -2
BITMAP
00
00
00
00
10
10
14
7C
50
10
10
00
00
ENDCHAR

STARTCHAR uni03F0
ENCODING 1008
SWIDTH 497 0
DWIDTH 7 0
BBX 7 13 0 -2
BITMAP
00
00
00
00
00
84
48
50
70
48
84
00
00
ENDCHAR

STARTCHAR uni03F1
ENCODING 1009
SWIDTH 497 0
DWIDTH 7 0
BBX 7 13 0 -2
BITMAP
00
00
00
00
00
78
84
84
84
C4
B8
80
78
ENDCHAR

STARTCHAR uni03F2
ENCODING 1010
SWIDTH 497 0
DWIDTH 7 0
BBX 7 13 0 -2
BITMAP
00
00
00
00
00
78
84
80
80
84
78
00
00
ENDCHAR

STARTCHAR uni03F3
ENCODING 1011
SWIDTH 497 0
DWIDTH 7 0
BBX 7 13 0 -2
BITMAP
00
00
00
04
00
0C
04
04
04
04
44
44
38
ENDCHAR

STARTCHAR uni03F4
ENCODING 1012
SWIDTH 497 0
DWIDTH 7 0
BBX 7 13 0 -2
BITMAP
00
00
78
84
84
84
FC
84
84
84
78
00
00
ENDCHAR

STARTCHAR uni03F5
ENCODING 1013
SWIDTH 497 0
DWIDTH 7 0
BBX 7 13 0 -2
BITMAP
00
00
00
00
00
3C
40
78
40
40
3C
00
00
ENDCHAR

STARTCHAR uni0400
ENCODING 1024
SWIDTH 497 0
DWIDTH 7 0
BBX 7 13 0 -2
BITMAP
00
20
10
00
FC
80
80
F0
80
80
FC
00
00
ENDCHAR

STARTCHAR afii10023
ENCODING 1025
SWIDTH 497 0
DWIDTH 7 0
BBX 7 13 0 -2
BITMAP
00
48
48
00
FC
80
80
F0
80
80
FC
00
00
ENDCHAR

STARTCHAR afii10051
ENCODING 1026
SWIDTH 497 0
DWIDTH 7 0
BBX 7 13 0 -2
BITMAP
00
00
F8
20
20
20
38
24
24
24
24
04
18
ENDCHAR

STARTCHAR afii10052
ENCODING 1027
SWIDTH 497 0
DWIDTH 7 0
BBX 7 13 0 -2
BITMAP
10
20
00
FC
80
80
80
80
80
80
80
00
00
ENDCHAR

STARTCHAR afii10053
ENCODING 1028
SWIDTH 497 0
DWIDTH 7 0
BBX 7 13 0 -2
BITMAP
00
00
38
44
80
80
F0
80
80
44
38
00
00
ENDCHAR

STARTCHAR afii10054
ENCODING 1029
SWIDTH 497 0
DWIDTH 7 0
BBX 7 13 0 -2
BITMAP
00
00
78
84
80
80
78
04
04
84
78
00
00
ENDCHAR

STARTCHAR afii10055
ENCODING 1030
SWIDTH 497 0
DWIDTH 7 0
BBX 7 13 0 -2
BITMAP
00
00
7C
10
10
10
10
10
10
10
7C
00
00
ENDCHAR

STARTCHAR afii10056
ENCODING 1031
SWIDTH 497 0
DWIDTH 7 0
BBX 7 13 0 -2
BITMAP
00
44
44
00
7C
10
10
10
10
10
7C
00
00
ENDCHAR

STARTCHAR afii10057
ENCODING 1032
SWIDTH 497 0
DWIDTH 7 0
BBX 7 13 0 -2
BITMAP
00
00
1C
08
08
08
08
08
08
88
70
00
00
ENDCHAR

STARTCHAR afii10058
ENCODING 1033
SWIDTH 497 0
DWIDTH 7 0
BBX 7 13 0 -2
BITMAP
00
00
70
50
50
50
58
54
54
54
98
00
00
ENDCHAR

STARTCHAR afii10059
ENCODING 1034
SWIDTH 497 0
DWIDTH 7 0
BBX 7 13 0 -2
BITMAP
00
00
90
90
90
90
F8
94
94
94
98
00
00
ENDCHAR

STARTCHAR afii10060
ENCODING 1035
SWIDTH 497 0
DWIDTH 7 0
BBX 7 13 0 -2
BITMAP
00
00
F8
20
20
20
38
24
24
24
24
00
00
ENDCHAR

STARTCHAR afii10061
ENCODING 1036
SWIDTH 497 0
DWIDTH 7 0
BBX 7 13 0 -2
BITMAP
10
20
84
88
90
A0
C0
A0
90
88
84
00
00
ENDCHAR

STARTCHAR uni040D
ENCODING 1037
SWIDTH 497 0
DWIDTH 7 0
BBX 7 13 0 -2
BITMAP
20
10
84
84
8C
94
A4
C4
84
84
84
00
00
ENDCHAR

STARTCHAR afii10062
ENCODING 1038
SWIDTH 497 0
DWIDTH 7 0
BBX 7 13 0 -2
BITMAP
48
30
00
84
84
84
7C
04
04
84
78
00
00
ENDCHAR

STARTCHAR afii10145
ENCODING 1039
SWIDTH 497 0
DWIDTH 7 0
BBX 7 13 0 -2
BITMAP
00
00
88
88
88
88
88
88
88
88
F8
20
20
ENDCHAR

STARTCHAR afii10017
ENCODING 1040
SWIDTH 497 0
DWIDTH 7 0
BBX 7 13 0 -2
BITMAP
00
00
30
48
84
84
84
FC
84
84
84
00
00
ENDCHAR

STARTCHAR afii10018
ENCODING 1041
SWIDTH 497 0
DWIDTH 7 0
BBX 7 13 0 -2
BITMAP
00
00
F8
80
80
80
F8
84
84
84
F8
00
00
ENDCHAR

STARTCHAR afii10019
ENCODING 1042
SWIDTH 497 0
DWIDTH 7 0
BBX 7 13 0 -2
BITMAP
00
00
F8
84
84
84
F8
84
84
84
F8
00
00
ENDCHAR

STARTCHAR afii10020
ENCODING 1043
SWIDTH 497 0
DWIDTH 7 0
BBX 7 13 0 -2
BITMAP
00
00
FC
80
80
80
80
80
80
80
80
00
00
ENDCHAR

STARTCHAR afii10021
ENCODING 1044
SWIDTH 497 0
DWIDTH 7 0
BBX 7 13 0 -2
BITMAP
00
00
38
28
28
28
48
48
48
48
FC
84
00
ENDCHAR

STARTCHAR afii10022
ENCODING 1045
SWIDTH 497 0
DWIDTH 7 0
BBX 7 13 0 -2
BITMAP
00
00
FC
80
80
80
F0
80
80
80
FC
00
00
ENDCHAR

STARTCHAR afii10024
ENCODING 1046
SWIDTH 497 0
DWIDTH 7 0
BBX 7 13 0 -2
BITMAP
00
00
54
54
54
54
38
54
54
54
54
00
00
ENDCHAR

STARTCHAR afii10025
ENCODING 1047
SWIDTH 497 0
DWIDTH 7 0
BBX 7 13 0 -2
BITMAP
00
00
78
84
04
04
38
04
04
84
78
00
00
ENDCHAR

STARTCHAR afii10026
ENCODING 1048
SWIDTH 497 0
DWIDTH 7 0
BBX 7 13 0 -2
BITMAP
00
00
84
84
8C
94
A4
C4
84
84
84
00
00
ENDCHAR

STARTCHAR afii10027
ENCODING 1049
SWIDTH 497 0
DWIDTH 7 0
BBX 7 13 0 -2
BITMAP
48
30
84
84
8C
94
A4
C4
84
84
84
00
00
ENDCHAR

STARTCHAR afii10028
ENCODING 1050
SWIDTH 497 0
DWIDTH 7 0
BBX 7 13 0 -2
BITMAP
00
00
84
88
90
A0
C0
A0
90
88
84
00
00
ENDCHAR

STARTCHAR afii10029
ENCODING 1051
SWIDTH 497 0
DWIDTH 7 0
BBX 7 13 0 -2
BITMAP
00
00
7C
44
44
44
44
44
44
44
84
00
00
ENDCHAR

STARTCHAR afii10030
ENCODING 1052
SWIDTH 497 0
DWIDTH 7 0
BBX 7 13 0 -2
BITMAP
00
00
84
CC
CC
B4
B4
84
84
84
84
00
00
ENDCHAR

STARTCHAR afii10031
ENCODING 1053
SWIDTH 497 0
DWIDTH 7 0
BBX 7 13 0 -2
BITMAP
00
00
84
84
84
84
FC
84
84
84
84
00
00
ENDCHAR

STARTCHAR afii10032
ENCODING 1054
SWIDTH 497 0
DWIDTH 7 0
BBX 7 13 0 -2
BITMAP
00
00
78
84
84
84
84
84
84
84
78
00
00
ENDCHAR

STARTCHAR afii10033
ENCODING 1055
SWIDTH 497 0
DWIDTH 7 0
BBX 7 13 0 -2
BITMAP
00
00
FC
84
84
84
84
84
84
84
84
00
00
ENDCHAR

STARTCHAR afii10034
ENCODING 1056
SWIDTH 497 0
DWIDTH 7 0
BBX 7 13 0 -2
BITMAP
00
00
F8
84
84
84
F8
80
80
80
80
00
00
ENDCHAR

STARTCHAR afii10035
ENCODING 1057
SWIDTH 497 0
DWIDTH 7 0
BBX 7 13 0 -2
BITMAP
00
00
78
84
80
80
80
80
80
84
78
00
00
ENDCHAR

STARTCHAR afii10036
ENCODING 1058
SWIDTH 497 0
DWIDTH 7 0
BBX 7 13 0 -2
BITMAP
00
00
7C
10
10
10
10
10
10
10
10
00
00
ENDCHAR

STARTCHAR afii10037
ENCODING 1059
SWIDTH 497 0
DWIDTH 7 0
BBX 7 13 0 -2
BITMAP
00
00
84
84
84
84
7C
04
04
84
78
00
00
ENDCHAR

STARTCHAR afii10038
ENCODING 1060
SWIDTH 497 0
DWIDTH 7 0
BBX 7 13 0 -2
BITMAP
00
10
38
54
54
54
54
54
54
54
38
10
00
ENDCHAR

STARTCHAR afii10039
ENCODING 1061
SWIDTH 497 0
DWIDTH 7 0
BBX 7 13 0 -2
BITMAP
00
00
84
84
48
48
30
48
48
84
84
00
00
ENDCHAR

STARTCHAR afii10040
ENCODING 1062
SWIDTH 497 0
DWIDTH 7 0
BBX 7 13 0 -2
BITMAP
00
00
88
88
88
88
88
88
88
88
FC
04
04
ENDCHAR

STARTCHAR afii10041
ENCODING 1063
SWIDTH 497 0
DWIDTH 7 0
BBX 7 13 0 -2
BITMAP
00
00
84
84
84
84
7C
04
04
04
04
00
00
ENDCHAR

STARTCHAR afii10042
ENCODING 1064
SWIDTH 497 0
DWIDTH 7 0
BBX 7 13 0 -2
BITMAP
00
00
54
54
54
54
54
54
54
54
7C
00
00
ENDCHAR

STARTCHAR afii10043
ENCODING 1065
SWIDTH 497 0
DWIDTH 7 0
BBX 7 13 0 -2
BITMAP
00
00
A8
A8
A8
A8
A8
A8
A8
A8
FC
04
04
ENDCHAR

STARTCHAR afii10044
ENCODING 1066
SWIDTH 497 0
DWIDTH 7 0
BBX 7 13 0 -2
BITMAP
00
00
E0
20
20
20
38
24
24
24
38
00
00
ENDCHAR

STARTCHAR afii10045
ENCODING 1067
SWIDTH 497 0
DWIDTH 7 0
BBX 7 13 0 -2
BITMAP
00
00
84
84
84
84
E4
94
94
94
E4
00
00
ENDCHAR

STARTCHAR afii10046
ENCODING 1068
SWIDTH 497 0
DWIDTH 7 0
BBX 7 13 0 -2
BITMAP
00
00
40
40
40
40
78
44
44
44
78
00
00
ENDCHAR

STARTCHAR afii10047
ENCODING 1069
SWIDTH 497 0
DWIDTH 7 0
BBX 7 13 0 -2
BITMAP
00
00
70
88
04
04
3C
04
04
88
70
00
00
ENDCHAR

STARTCHAR afii10048
ENCODING 1070
SWIDTH 497 0
DWIDTH 7 0
BBX 7 13 0 -2
BITMAP
00
00
98
A4
A4
A4
E4
A4
A4
A4
98
00
00
ENDCHAR

STARTCHAR afii10049
ENCODING 1071
SWIDTH 497 0
DWIDTH 7 0
BBX 7 13 0 -2
BITMAP
00
00
7C
84
84
84
7C
14
24
44
84
00
00
ENDCHAR

STARTCHAR afii10065
ENCODING 1072
SWIDTH 497 0
DWIDTH 7 0
BBX 7 13 0 -2
BITMAP
00
00
00
00
00
78
04
7C
84
8C
74
00
00
ENDCHAR

STARTCHAR afii10066
ENCODING 1073
SWIDTH 497 0
DWIDTH 7 0
BBX 7 13 0 -2
BITMAP
00
00
04
78
80
B8
C4
84
84
84
78
00
00
ENDCHAR

STARTCHAR afii10067
ENCODING 1074
SWIDTH 497 0
DWIDTH 7 0
BBX 7 13 0 -2
BITMAP
00
00
00
00
00
F8
84
F8
84
84
F8
00
00
ENDCHAR

STARTCHAR afii10068
ENCODING 1075
SWIDTH 497 0
DWIDTH 7 0
BBX 7 13 0 -2
BITMAP
00
00
00
00
00
FC
80
80
80
80
80
00
00
ENDCHAR

STARTCHAR afii10069
ENCODING 1076
SWIDTH 497 0
DWIDTH 7 0
BBX 7 13 0 -2
BITMAP
00
00
00
00
00
38
48
48
48
48
FC
84
00
ENDCHAR

STARTCHAR afii10070
ENCODING 1077
SWIDTH 497 0
DWIDTH 7 0
BBX 7 13 0 -2
BITMAP
00
00
00
00
00
78
84
FC
80
84
78
00
00
ENDCHAR

STARTCHAR afii10072
ENCODING 1078
SWIDTH 497 0
DWIDTH 7 0
BBX 7 13 0 -2
BITMAP
00
00
00
00
00
54
54
38
54
54
54
00
00
ENDCHAR

STARTCHAR afii10073
ENCODING 1079
SWIDTH 497 0
DWIDTH 7 0
BBX 7 13 0 -2
BITMAP
00
00
00
00
00
78
84
38
04
84
78
00
00
ENDCHAR

STARTCHAR afii10074
ENCODING 1080
SWIDTH 497 0
DWIDTH 7 0
BBX 7 13 0 -2
BITMAP
00
00
00
00
00
84
8C
94
A4
C4
84
00
00
ENDCHAR

STARTCHAR afii10075
ENCODING 1081
SWIDTH 497 0
DWIDTH 7 0
BBX 7 13 0 -2
BITMAP
00
00
48
30
00
84
8C
94
A4
C4
84
00
00
ENDCHAR

STARTCHAR afii10076
ENCODING 1082
SWIDTH 497 0
DWIDTH 7 0
BBX 7 13 0 -2
BITMAP
00
00
00
00
00
84
88
F0
88
84
84
00
00
ENDCHAR

STARTCHAR afii10077
ENCODING 1083
SWIDTH 497 0
DWIDTH 7 0
BBX 7 13 0 -2
BITMAP
00
00
00
00
00
3C
44
44
44
44
84
00
00
ENDCHAR

STARTCHAR afii10078
ENCODING 1084
SWIDTH 497 0
DWIDTH 7 0
BBX 7 13 0 -2
BITMAP
00
00
00
00
00
44
6C
54
44
44
44
00
00
ENDCHAR

STARTCHAR afii10079
ENCODING 1085
SWIDTH 497 0
DWIDTH 7 0
BBX 7 13 0 -2
BITMAP
00
00
00
00
00
84
84
FC
84
84
84
00
00
ENDCHAR

STARTCHAR afii10080
ENCODING 1086
SWIDTH 497 0
DWIDTH 7 0
BBX 7 13 0 -2
BITMAP
00
00
00
00
00
78
84
84
84
84
78
00
00
ENDCHAR

STARTCHAR afii10081
ENCODING 1087
SWIDTH 497 0
DWIDTH 7 0
BBX 7 13 0 -2
BITMAP
00
00
00
00
00
FC
84
84
84
84
84
00
00
ENDCHAR

STARTCHAR afii10082
ENCODING 1088
SWIDTH 497 0
DWIDTH 7 0
BBX 7 13 0 -2
BITMAP
00
00
00
00
00
B8
C4
84
84
C4
B8
80
80
ENDCHAR

STARTCHAR afii10083
ENCODING 1089
SWIDTH 497 0
DWIDTH 7 0
BBX 7 13 0 -2
BITMAP
00
00
00
00
00
78
84
80
80
84
78
00
00
ENDCHAR

STARTCHAR afii10084
ENCODING 1090
SWIDTH 497 0
DWIDTH 7 0
BBX 7 13 0 -2
BITMAP
00
00
00
00
00
7C
10
10
10
10
10
00
00
ENDCHAR

STARTCHAR afii10085
ENCODING 1091
SWIDTH 497 0
DWIDTH 7 0
BBX 7 13 0 -2
BITMAP
00
00
00
00
00
84
84
84
8C
74
04
84
78
ENDCHAR

STARTCHAR afii10086
ENCODING 1092
SWIDTH 497 0
DWIDTH 7 0
BBX 7 13 0 -2
BITMAP
00
00
00
10
10
38
54
54
54
54
38
10
10
ENDCHAR

STARTCHAR afii10087
ENCODING 1093
SWIDTH 497 0
DWIDTH 7 0
BBX 7 13 0 -2
BITMAP
00
00
00
00
00
84
48
30
30
48
84
00
00
ENDCHAR

STARTCHAR afii10088
ENCODING 1094
SWIDTH 497 0
DWIDTH 7 0
BBX 7 13 0 -2
BITMAP
00
00
00
00
00
88
88
88
88
88
FC
04
04
ENDCHAR

STARTCHAR afii10089
ENCODING 1095
SWIDTH 497 0
DWIDTH 7 0
BBX 7 13 0 -2
BITMAP
00
00
00
00
00
84
84
84
7C
04
04
00
00
ENDCHAR

STARTCHAR afii10090
ENCODING 1096
SWIDTH 497 0
DWIDTH 7 0
BBX 7 13 0 -2
BITMAP
00
00
00
00
00
54
54
54
54
54
7C
00
00
ENDCHAR

STARTCHAR afii10091
ENCODING 1097
SWIDTH 497 0
DWIDTH 7 0
BBX 7 13 0 -2
BITMAP
00
00
00
00
00
A8
A8
A8
A8
A8
FC
04
04
ENDCHAR

STARTCHAR afii10092
ENCODING 1098
SWIDTH 497 0
DWIDTH 7 0
BBX 7 13 0 -2
BITMAP
00
00
00
00
00
E0
20
38
24
24
38
00
00
ENDCHAR

STARTCHAR afii10093
ENCODING 1099
SWIDTH 497 0
DWIDTH 7 0
BBX 7 13 0 -2
BITMAP
00
00
00
00
00
84
84
E4
94
94
E4
00
00
ENDCHAR

STARTCHAR afii10094
ENCODING 1100
SWIDTH 497 0
DWIDTH 7 0
BBX 7 13 0 -2
BITMAP
00
00
00
00
00
40
40
78
44
44
78
00
00
ENDCHAR

STARTCHAR afii10095
ENCODING 1101
SWIDTH 497 0
DWIDTH 7 0
BBX 7 13 0 -2
BITMAP
00
00
00
00
00
78
84
1C
04
84
78
00
00
ENDCHAR

STARTCHAR afii10096
ENCODING 1102
SWIDTH 497 0
DWIDTH 7 0
BBX 7 13 0 -2
BITMAP
00
00
00
00
00
98
A4
E4
A4
A4
98
00
00
ENDCHAR

STARTCHAR afii10097
ENCODING 1103
SWIDTH 497 0
DWIDTH 7 0
BBX 7 13 0 -2
BITMAP
00
00
00
00
00
7C
84
84
7C
44
84
00
00
ENDCHAR

STARTCHAR uni0450
ENCODING 1104
SWIDTH 497 0
DWIDTH 7 0
BBX 7 13 0 -2
BITMAP
00
00
20
10
00
78
84
FC
80
84
78
00
00
ENDCHAR

STARTCHAR afii10071
ENCODING 1105
SWIDTH 497 0
DWIDTH 7 0
BBX 7 13 0 -2
BITMAP
00
00
48
48
00
78
84
FC
80
84
78
00
00
ENDCHAR

STARTCHAR afii10099
ENCODING 1106
SWIDTH 497 0
DWIDTH 7 0
BBX 7 13 0 -2
BITMAP
00
00
00
40
40
F0
40
78
44
44
44
04
18
ENDCHAR

STARTCHAR afii10100
ENCODING 1107
SWIDTH 497 0
DWIDTH 7 0
BBX 7 13 0 -2
BITMAP
00
00
10
20
00
FC
80
80
80
80
80
00
00
ENDCHAR

STARTCHAR afii10101
ENCODING 1108
SWIDTH 497 0
DWIDTH 7 0
BBX 7 13 0 -2
BITMAP
00
00
00
00
00
78
84
E0
80
84
78
00
00
ENDCHAR

STARTCHAR afii10102
ENCODING 1109
SWIDTH 497 0
DWIDTH 7 0
BBX 7 13 0 -2
BITMAP
00
00
00
00
00
78
84
60
18
84
78
00
00
ENDCHAR

STARTCHAR afii10103
ENCODING 1110
SWIDTH 497 0
DWIDTH 7 0
BBX 7 13 0 -2
BITMAP
00
00
00
10
00
30
10
10
10
10
7C
00
00
ENDCHAR

STARTCHAR afii10104
ENCODING 1111
SWIDTH 497 0
DWIDTH 7 0
BBX 7 13 0 -2
BITMAP
00
00
48
48
00
30
10
10
10
10
7C
00
00
ENDCHAR

STARTCHAR afii10105
ENCODING 1112
SWIDTH 497 0
DWIDTH 7 0
BBX 7 13 0 -2
BITMAP
00
00
00
04
00
0C
04
04
04
04
44
44
38
ENDCHAR

STARTCHAR afii10106
ENCODING 1113
SWIDTH 497 0
DWIDTH 7 0
BBX 7 13 0 -2
BITMAP
00
00
00
00
00
70
50
5C
52
52
9C
00
00
ENDCHAR

STARTCHAR afii10107
ENCODING 1114
SWIDTH 497 0
DWIDTH 7 0
BBX 7 13 0 -2
BITMAP
00
00
00
00
00
90
90
F8
94
94
98
00
00
ENDCHAR

STARTCHAR afii10108
ENCODING 1115
SWIDTH 497 0
DWIDTH 7 0
BBX 7 13 0 -2
BITMAP
00
00
00
40
40
F0
40
78
44
44
44
00
00
ENDCHAR

STARTCHAR afii10109
ENCODING 1116
SWIDTH 497 0
DWIDTH 7 0
BBX 7 13 0 -2
BITMAP
00
00
10
20
00
84
88
F0
88
84
84
00
00
ENDCHAR

STARTCHAR uni045D
ENCODING 1117
SWIDTH 497 0
DWIDTH 7 0
BBX 7 13 0 -2
BITMAP
00
00
20
10
00
84
8C
94
A4
C4
84
00
00
ENDCHAR

STARTCHAR afii10110
ENCODING 1118
SWIDTH 497 0
DWIDTH 7 0
BBX 7 13 0 -2
BITMAP
00
00
48
30
00
84
84
84
8C
74
04
84
78
ENDCHAR

STARTCHAR afii10193
ENCODING 1119
SWIDTH 497 0
DWIDTH 7 0
BBX 7 13 0 -2
BITMAP
00
00
00
00
00
44
44
44
44
44
7C
10
10
ENDCHAR

STARTCHAR uni0460
ENCODING 1120
SWIDTH 497 0
DWIDTH 7 0
BBX 7 13 0 -2
BITMAP
00
00
48
84
84
84
84
84
84
B4
48
00
00
ENDCHAR

STARTCHAR uni0461
ENCODING 1121
SWIDTH 497 0
DWIDTH 7 0
BBX 7 13 0 -2
BITMAP
00
00
00
00
00
28
44
54
54
54
28
00
00
ENDCHAR

STARTCHAR afii10146
ENCODING 1122
SWIDTH 497 0
DWIDTH 7 0
BBX 7 13 0 -2
BITMAP
00
00
40
F0
40
40
78
44
44
44
78
00
00
ENDCHAR

STARTCHAR afii10194
ENCODING 1123
SWIDTH 497 0
DWIDTH 7 0
BBX 7 13 0 -2
BITMAP
00
00
00
40
40
F0
40
78
44
44
78
00
00
ENDCHAR

STARTCHAR uni0464
ENCODING 1124
SWIDTH 497 0
DWIDTH 7 0
BBX 7 13 0 -2
BITMAP
00
00
98
A4
A0
A0
F8
A0
A0
A4
98
00
00
ENDCHAR

STARTCHAR uni0465
ENCODING 1125
SWIDTH 497 0
DWIDTH 7 0
BBX 7 13 0 -2
BITMAP
00
00
00
00
00
98
A4
F0
A0
A4
98
00
00
ENDCHAR

STARTCHAR uni0466
ENCODING 1126
SWIDTH 497 0
DWIDTH 7 0
BBX 7 13 0 -2
BITMAP
00
00
10
10
10
28
28
28
7C
54
54
00
00
ENDCHAR

STARTCHAR uni0467
ENCODING 1127
SWIDTH 497 0
DWIDTH 7 0
BBX 7 13 0 -2
BITMAP
00
00
00
00
00
10
10
28
28
7C
54
00
00
ENDCHAR

STARTCHAR uni0468
ENCODING 1128
SWIDTH 497 0
DWIDTH 7 0
BBX 7 13 0 -2
BITMAP
00
00
90
90
90
A8
E8
A8
FC
D4
D4
00
00
ENDCHAR

STARTCHAR uni0469
ENCODING 1129
SWIDTH 497 0
DWIDTH 7 0
BBX 7 13 0 -2
BITMAP
00
00
00
00
00
90
90
E8
A8
FC
D4
00
00
ENDCHAR

STARTCHAR uni046A
ENCODING 1130
SWIDTH 497 0
DWIDTH 7 0
BBX 7 13 0 -2
BITMAP
00
00
7C
44
44
28
10
38
54
54
54
00
00
ENDCHAR

STARTCHAR uni046B
ENCODING 1131
SWIDTH 497 0
DWIDTH 7 0
BBX 7 13 0 -2
BITMAP
00
00
00
00
00
7C
44
28
38
54
54
00
00
ENDCHAR

STARTCHAR uni046C
ENCODING 1132
SWIDTH 497 0
DWIDTH 7 0
BBX 7 13 0 -2
BITMAP
00
00
FC
C4
C4
A8
F0
B8
D4
D4
D4
00
00
ENDCHAR

STARTCHAR uni046D
ENCODING 1133
SWIDTH 497 0
DWIDTH 7 0
BBX 7 13 0 -2
BITMAP
00
00
00
00
00
FC
C4
A8
F8
D4
D4
00
00
ENDCHAR

STARTCHAR uni046E
ENCODING 1134
SWIDTH 497 0
DWIDTH 7 0
BBX 7 13 0 -2
BITMAP
48
30
00
78
84
04
38
04
04
04
78
80
78
ENDCHAR

STARTCHAR uni046F
ENCODING 1135
SWIDTH 497 0
DWIDTH 7 0
BBX 7 13 0 -2
BITMAP
00
00
48
30
00
78
84
38
04
04
78
80
78
ENDCHAR

STARTCHAR uni0470
ENCODING 1136
SWIDTH 497 0
DWIDTH 7 0
BBX 7 13 0 -2
BITMAP
00
00
54
54
54
54
54
54
38
10
10
00
00
ENDCHAR

STARTCHAR uni0471
ENCODING 1137
SWIDTH 497 0
DWIDTH 7 0
BBX 7 13 0 -2
BITMAP
00
00
00
00
00
54
54
54
54
54
38
10
10
ENDCHAR

STARTCHAR afii10147
ENCODING 1138
SWIDTH 497 0
DWIDTH 7 0
BBX 7 13 0 -2
BITMAP
00
00
78
84
84
84
FC
84
84
84
78
00
00
ENDCHAR

STARTCHAR afii10195
ENCODING 1139
SWIDTH 497 0
DWIDTH 7 0
BBX 7 13 0 -2
BITMAP
00
00
00
00
00
78
84
FC
84
84
78
00
00
ENDCHAR

STARTCHAR afii10148
ENCODING 1140
SWIDTH 497 0
DWIDTH 7 0
BBX 7 13 0 -2
BITMAP
00
00
84
88
90
50
50
50
20
20
20
00
00
ENDCHAR

STARTCHAR afii10196
ENCODING 1141
SWIDTH 497 0
DWIDTH 7 0
BBX 7 13 0 -2
BITMAP
00
00
00
00
00
44
48
48
28
28
10
00
00
ENDCHAR

STARTCHAR uni0476
ENCODING 1142
SWIDTH 497 0
DWIDTH 7 0
BBX 7 13 0 -2
BITMAP
90
48
00
84
88
90
50
50
50
20
20
00
00
ENDCHAR

STARTCHAR uni0477
ENCODING 1143
SWIDTH 497 0
DWIDTH 7 0
BBX 7 13 0 -2
BITMAP
00
00
48
24
00
44
48
48
28
28
10
00
00
ENDCHAR

STARTCHAR uni0478
ENCODING 1144
SWIDTH 497 0
DWIDTH 7 0
BBX 7 13 0 -2
BITMAP
00
00
40
A0
A0
A0
B4
B4
B4
B4
48
08
10
ENDCHAR

STARTCHAR uni0479
ENCODING 1145
SWIDTH 497 0
DWIDTH 7 0
BBX 7 13 0 -2
BITMAP
00
00
00
00
00
00
54
B4
B4
B4
48
08
10
ENDCHAR

STARTCHAR uni047A
ENCODING 1146
SWIDTH 497 0
DWIDTH 7 0
BBX 7 13 0 -2
BITMAP
00
10
38
44
44
44
44
44
44
44
38
10
00
ENDCHAR

STARTCHAR uni047B
ENCODING 1147
SWIDTH 497 0
DWIDTH 7 0
BBX 7 13 0 -2
BITMAP
00
00
00
00
10
38
44
44
44
44
38
00
00
ENDCHAR

STARTCHAR uni047C
ENCODING 1148
SWIDTH 497 0
DWIDTH 7 0
BBX 7 13 0 -2
BITMAP
10
20
00
48
84
84
84
84
84
B4
48
00
00
ENDCHAR

STARTCHAR uni047D
ENCODING 1149
SWIDTH 497 0
DWIDTH 7 0
BBX 7 13 0 -2
BITMAP
00
00
08
10
00
28
44
54
54
54
28
00
00
ENDCHAR

STARTCHAR uni047E
ENCODING 1150
SWIDTH 497 0
DWIDTH 7 0
BBX 7 13 0 -2
BITMAP
00
78
00
48
84
84
84
84
84
B4
48
00
00
ENDCHAR

STARTCHAR uni047F
ENCODING 1151
SWIDTH 497 0
DWIDTH 7 0
BBX 7 13 0 -2
BITMAP
00
00
00
38
00
28
44
54
54
54
28
00
00
ENDCHAR

STARTCHAR uni0480
ENCODING 1152
SWIDTH 497 0
DWIDTH 7 0
BBX 7 13 0 -2
BITMAP
00
00
38
44
80
80
80
80
80
78
08
08
00
ENDCHAR

STARTCHAR uni0481
ENCODING 1153
SWIDTH 497 0
DWIDTH 7 0
BBX 7 13 0 -2
BITMAP
00
00
00
00
00
78
84
80
80
80
70
10
10
ENDCHAR

STARTCHAR uni0482
ENCODING 1154
SWIDTH 497 0
DWIDTH 7 0
BBX 7 13 0 -2
BITMAP
00
00
00
08
48
30
98
64
30
48
40
00
00
ENDCHAR

STARTCHAR uni0483
ENCODING 1155
SWIDTH 497 0
DWIDTH 7 0
BBX 7 13 0 -2
BITMAP
08
38
20
00
00
00
00
00
00
00
00
00
00
ENDCHAR

STARTCHAR uni0484
ENCODING 1156
SWIDTH 497 0
DWIDTH 7 0
BBX 7 13 0 -2
BITMAP
10
28
40
00
00
00
00
00
00
00
00
00
00
ENDCHAR

STARTCHAR uni0485
ENCODING 1157
SWIDTH 497 0
DWIDTH 7 0
BBX 7 13 0 -2
BITMAP
20
38
20
00
00
00
00
00
00
00
00
00
00
ENDCHAR

STARTCHAR uni0486
ENCODING 1158
SWIDTH 497 0
DWIDTH 7 0
BBX 7 13 0 -2
BITMAP
08
38
08
00
00
00
00
00
00
00
00
00
00
ENDCHAR

STARTCHAR uni0488
ENCODING 1160
SWIDTH 497 0
DWIDTH 7 0
BBX 7 13 0 -2
BITMAP
40
A4
0A
00
00
00
00
00
00
00
40
A4
0A
ENDCHAR

STARTCHAR uni0489
ENCODING 1161
SWIDTH 497 0
DWIDTH 7 0
BBX 7 13 0 -2
BITMAP
20
44
68
0C
00
00
00
00
00
20
44
68
0C
ENDCHAR

STARTCHAR uni048C
ENCODING 1164
SWIDTH 497 0
DWIDTH 7 0
BBX 7 13 0 -2
BITMAP
00
00
40
F0
40
40
70
48
48
48
70
00
00
ENDCHAR

STARTCHAR uni048D
ENCODING 1165
SWIDTH 497 0
DWIDTH 7 0
BBX 7 13 0 -2
BITMAP
00
00
00
00
00
40
F0
40
70
48
70
00
00
ENDCHAR

STARTCHAR uni048E
ENCODING 1166
SWIDTH 497 0
DWIDTH 7 0
BBX 7 13 0 -2
BITMAP
00
00
F8
84
94
88
F4
80
80
80
80
00
00
ENDCHAR

STARTCHAR uni048F
ENCODING 1167
SWIDTH 497 0
DWIDTH 7 0
BBX 7 13 0 -2
BITMAP
00
00
00
00
00
B8
C4
94
C8
B4
80
80
80
ENDCHAR

STARTCHAR afii10050
ENCODING 1168
SWIDTH 497 0
DWIDTH 7 0
BBX 7 13 0 -2
BITMAP
04
04
FC
80
80
80
80
80
80
80
80
00
00
ENDCHAR

STARTCHAR afii10098
ENCODING 1169
SWIDTH 497 0
DWIDTH 7 0
BBX 7 13 0 -2
BITMAP
00
00
00
04
04
FC
80
80
80
80
80
00
00
ENDCHAR

STARTCHAR uni0492
ENCODING 1170
SWIDTH 497 0
DWIDTH 7 0
BBX 7 13 0 -2
BITMAP
00
00
FC
80
80
80
F0
80
80
80
80
00
00
ENDCHAR

STARTCHAR uni0493
ENCODING 1171
SWIDTH 497 0
DWIDTH 7 0
BBX 7 13 0 -2
BITMAP
00
00
00
00
00
7C
40
40
70
40
40
00
00
ENDCHAR

STARTCHAR uni0494
ENCODING 1172
SWIDTH 497 0
DWIDTH 7 0
BBX 7 13 0 -2
BITMAP
00
00
F8
80
80
E0
90
88
88
88
88
10
60
ENDCHAR

STARTCHAR uni0495
ENCODING 1173
SWIDTH 497 0
DWIDTH 7 0
BBX 7 13 0 -2
BITMAP
00
00
00
00
00
7C
40
70
48
44
44
08
30
ENDCHAR

STARTCHAR uni0496
ENCODING 1174
SWIDTH 497 0
DWIDTH 7 0
BBX 7 13 0 -2
BITMAP
00
00
A8
A8
A8
A8
70
A8
A8
A8
AC
04
04
ENDCHAR

STARTCHAR uni0497
ENCODING 1175
SWIDTH 497 0
DWIDTH 7 0
BBX 7 13 0 -2
BITMAP
00
00
00
00
00
A8
A8
70
A8
A8
AC
04
04
ENDCHAR

STARTCHAR uni0498
ENCODING 1176
SWIDTH 497 0
DWIDTH 7 0
BBX 7 13 0 -2
BITMAP
00
00
78
84
04
04
38
04
04
84
78
10
20
ENDCHAR

STARTCHAR uni0499
ENCODING 1177
SWIDTH 497 0
DWIDTH 7 0
BBX 7 13 0 -2
BITMAP
00
00
00
00
00
78
84
38
04
84
78
10
20
ENDCHAR

STARTCHAR uni049A
ENCODING 1178
SWIDTH 497 0
DWIDTH 7 0
BBX 7 13 0 -2
BITMAP
00
00
84
88
90
A0
C0
A0
90
88
84
04
04
ENDCHAR

STARTCHAR uni049B
ENCODING 1179
SWIDTH 497 0
DWIDTH 7 0
BBX 7 13 0 -2
BITMAP
00
00
00
00
00
84
88
F0
88
84
84
04
04
ENDCHAR

STARTCHAR uni049C
ENCODING 1180
SWIDTH 497 0
DWIDTH 7 0
BBX 7 13 0 -2
BITMAP
00
00
84
A8
B0
A0
E0
A0
B0
A8
84
00
00
ENDCHAR

STARTCHAR uni049D
ENCODING 1181
SWIDTH 497 0
DWIDTH 7 0
BBX 7 13 0 -2
BITMAP
00
00
00
00
00
84
A8
F0
A8
84
84
00
00
ENDCHAR

STARTCHAR uni049E
ENCODING 1182
SWIDTH 497 0
DWIDTH 7 0
BBX 7 13 0 -2
BITMAP
00
00
44
E4
48
50
60
50
48
44
44
00
00
ENDCHAR

STARTCHAR uni049F
ENCODING 1183
SWIDTH 497 0
DWIDTH 7 0
BBX 7 13 0 -2
BITMAP
00
00
00
00
00
44
E4
48
70
48
44
00
00
ENDCHAR

STARTCHAR uni04A0
ENCODING 1184
SWIDTH 497 0
DWIDTH 7 0
BBX 7 13 0 -2
BITMAP
00
00
C4
48
50
60
40
60
50
48
44
00
00
ENDCHAR

STARTCHAR uni04A1
ENCODING 1185
SWIDTH 497 0
DWIDTH 7 0
BBX 7 13 0 -2
BITMAP
00
00
00
00
00
64
28
30
28
24
24
00
00
ENDCHAR

STARTCHAR uni04A2
ENCODING 1186
SWIDTH 497 0
DWIDTH 7 0
BBX 7 13 0 -2
BITMAP
00
00
88
88
88
88
F8
88
88
88
8C
04
04
ENDCHAR

STARTCHAR uni04A3
ENCODING 1187
SWIDTH 497 0
DWIDTH 7 0
BBX 7 13 0 -2
BITMAP
00
00
00
00
00
88
88
F8
88
88
8C
04
04
ENDCHAR

STARTCHAR uni04A4
ENCODING 1188
SWIDTH 497 0
DWIDTH 7 0
BBX 7 13 0 -2
BITMAP
00
00
8E
88
88
88
F8
88
88
88
88
00
00
ENDCHAR

STARTCHAR uni04A5
ENCODING 1189
SWIDTH 497 0
DWIDTH 7 0
BBX 7 13 0 -2
BITMAP
00
00
00
00
00
8E
88
F8
88
88
88
00
00
ENDCHAR

STARTCHAR uni04A6
ENCODING 1190
SWIDTH 497 0
DWIDTH 7 0
BBX 7 13 0 -2
BITMAP
00
00
70
50
50
58
54
54
54
54
54
04
08
ENDCHAR

STARTCHAR uni04A7
ENCODING 1191
SWIDTH 497 0
DWIDTH 7 0
BBX 7 13 0 -2
BITMAP
00
00
00
00
00
70
50
58
54
54
54
04
08
ENDCHAR

STARTCHAR uni04A8
ENCODING 1192
SWIDTH 497 0
DWIDTH 7 0
BBX 7 13 0 -2
BITMAP
00
00
38
44
80
80
98
A4
A4
78
20
1C
00
ENDCHAR

STARTCHAR uni04A9
ENCODING 1193
SWIDTH 497 0
DWIDTH 7 0
BBX 7 13 0 -2
BITMAP
00
00
00
00
00
78
84
80
98
A4
78
20
1C
ENDCHAR

STARTCHAR uni04AA
ENCODING 1194
SWIDTH 497 0
DWIDTH 7 0
BBX 7 13 0 -2
BITMAP
00
00
78
84
80
80
80
80
80
84
78
20
18
ENDCHAR

STARTCHAR uni04AB
ENCODING 1195
SWIDTH 497 0
DWIDTH 7 0
BBX 7 13 0 -2
BITMAP
00
00
00
00
00
78
84
80
80
84
78
20
18
ENDCHAR

STARTCHAR uni04AC
ENCODING 1196
SWIDTH 497 0
DWIDTH 7 0
BBX 7 13 0 -2
BITMAP
00
00
7C
10
10
10
10
10
10
10
18
08
08
ENDCHAR

STARTCHAR uni04AD
ENCODING 1197
SWIDTH 497 0
DWIDTH 7 0
BBX 7 13 0 -2
BITMAP
00
00
00
00
00
7C
10
10
10
10
18
08
08
ENDCHAR

STARTCHAR uni04AE
ENCODING 1198
SWIDTH 497 0
DWIDTH 7 0
BBX 7 13 0 -2
BITMAP
00
00
44
44
28
28
10
10
10
10
10
10
10
ENDCHAR

STARTCHAR uni04AF
ENCODING 1199
SWIDTH 497 0
DWIDTH 7 0
BBX 7 13 0 -2
BITMAP
00
00
00
00
00
44
28
10
10
10
10
10
10
ENDCHAR

STARTCHAR uni04B0
ENCODING 1200
SWIDTH 497 0
DWIDTH 7 0
BBX 7 13 0 -2
BITMAP
00
00
44
44
28
28
10
10
10
7C
10
10
10
ENDCHAR

STARTCHAR uni04B1
ENCODING 1201
SWIDTH 497 0
DWIDTH 7 0
BBX 7 13 0 -2
BITMAP
00
00
00
00
00
44
28
10
10
10
7C
10
10
ENDCHAR

STARTCHAR uni04B2
ENCODING 1202
SWIDTH 497 0
DWIDTH 7 0
BBX 7 13 0 -2
BITMAP
00
00
84
84
48
48
30
48
48
84
86
02
02
ENDCHAR

STARTCHAR uni04B3
ENCODING 1203
SWIDTH 497 0
DWIDTH 7 0
BBX 7 13 0 -2
BITMAP
00
00
00
00
00
84
48
30
30
48
86
02
02
ENDCHAR

STARTCHAR uni04B4
ENCODING 1204
SWIDTH 497 0
DWIDTH 7 0
BBX 7 13 0 -2
BITMAP
00
00
E8
48
48
48
48
48
48
48
7C
04
04
ENDCHAR

STARTCHAR uni04B5
ENCODING 1205
SWIDTH 497 0
DWIDTH 7 0
BBX 7 13 0 -2
BITMAP
00
00
00
00
00
E8
48
48
48
48
7C
04
04
ENDCHAR

STARTCHAR uni04B6
ENCODING 1206
SWIDTH 497 0
DWIDTH 7 0
BBX 7 13 0 -2
BITMAP
00
00
88
88
88
88
78
08
08
08
0C
04
04
ENDCHAR

STARTCHAR uni04B7
ENCODING 1207
SWIDTH 497 0
DWIDTH 7 0
BBX 7 13 0 -2
BITMAP
00
00
00
00
00
88
88
88
78
08
0C
04
04
ENDCHAR

STARTCHAR uni04B8
ENCODING 1208
SWIDTH 497 0
DWIDTH 7 0
BBX 7 13 0 -2
BITMAP
00
00
44
44
54
54
3C
14
14
04
04
00
00
ENDCHAR

STARTCHAR uni04B9
ENCODING 1209
SWIDTH 497 0
DWIDTH 7 0
BBX 7 13 0 -2
BITMAP
00
00
00
00
00
44
44
54
3C
14
04
00
00
ENDCHAR

STARTCHAR uni04BA
ENCODING 1210
SWIDTH 497 0
DWIDTH 7 0
BBX 7 13 0 -2
BITMAP
00
00
80
80
80
80
F8
84
84
84
84
00
00
ENDCHAR

STARTCHAR uni04BB
ENCODING 1211
SWIDTH 497 0
DWIDTH 7 0
BBX 7 13 0 -2
BITMAP
00
00
00
00
00
80
80
F8
84
84
84
00
00
ENDCHAR

STARTCHAR uni04BC
ENCODING 1212
SWIDTH 497 0
DWIDTH 7 0
BBX 7 13 0 -2
BITMAP
00
00
18
24
64
A4
78
20
20
24
18
00
00
ENDCHAR

STARTCHAR uni04BD
ENCODING 1213
SWIDTH 497 0
DWIDTH 7 0
BBX 7 13 0 -2
BITMAP
00
00
00
00
00
18
A4
7C
20
24
18
00
00
ENDCHAR

STARTCHAR uni04BE
ENCODING 1214
SWIDTH 497 0
DWIDTH 7 0
BBX 7 13 0 -2
BITMAP
00
00
18
24
64
A4
78
20
20
24
18
10
0C
ENDCHAR

STARTCHAR uni04BF
ENCODING 1215
SWIDTH 497 0
DWIDTH 7 0
BBX 7 13 0 -2
BITMAP
00
00
00
00
00
18
A4
7C
20
24
18
10
0C
ENDCHAR

STARTCHAR uni04C0
ENCODING 1216
SWIDTH 497 0
DWIDTH 7 0
BBX 7 13 0 -2
BITMAP
00
00
7C
10
10
10
10
10
10
10
7C
00
00
ENDCHAR

STARTCHAR uni04C1
ENCODING 1217
SWIDTH 497 0
DWIDTH 7 0
BBX 7 13 0 -2
BITMAP
44
38
00
54
54
54
38
54
54
54
54
00
00
ENDCHAR

STARTCHAR uni04C2
ENCODING 1218
SWIDTH 497 0
DWIDTH 7 0
BBX 7 13 0 -2
BITMAP
00
00
44
38
00
54
54
38
54
54
54
00
00
ENDCHAR

STARTCHAR uni04C3
ENCODING 1219
SWIDTH 497 0
DWIDTH 7 0
BBX 7 13 0 -2
BITMAP
00
00
84
88
90
A0
C0
A0
90
88
84
04
38
ENDCHAR

STARTCHAR uni04C4
ENCODING 1220
SWIDTH 497 0
DWIDTH 7 0
BBX 7 13 0 -2
BITMAP
00
00
00
00
00
84
88
F0
88
84
84
04
38
ENDCHAR

STARTCHAR uni04C7
ENCODING 1223
SWIDTH 497 0
DWIDTH 7 0
BBX 7 13 0 -2
BITMAP
00
00
84
84
84
84
FC
84
84
84
84
24
18
ENDCHAR

STARTCHAR uni04C8
ENCODING 1224
SWIDTH 497 0
DWIDTH 7 0
BBX 7 13 0 -2
BITMAP
00
00
00
00
00
84
84
FC
84
84
84
24
18
ENDCHAR

STARTCHAR uni04CB
ENCODING 1227
SWIDTH 497 0
DWIDTH 7 0
BBX 7 13 0 -2
BITMAP
00
00
84
84
84
84
7C
04
04
04
0C
08
08
ENDCHAR

STARTCHAR uni04CC
ENCODING 1228
SWIDTH 497 0
DWIDTH 7 0
BBX 7 13 0 -2
BITMAP
00
00
00
00
00
84
84
84
7C
04
0C
08
08
ENDCHAR

STARTCHAR uni04D0
ENCODING 1232
SWIDTH 497 0
DWIDTH 7 0
BBX 7 13 0 -2
BITMAP
00
84
78
00
30
48
84
84
FC
84
84
00
00
ENDCHAR

STARTCHAR uni04D1
ENCODING 1233
SWIDTH 497 0
DWIDTH 7 0
BBX 7 13 0 -2
BITMAP
00
00
84
78
00
78
04
7C
84
8C
74
00
00
ENDCHAR

STARTCHAR uni04D2
ENCODING 1234
SWIDTH 497 0
DWIDTH 7 0
BBX 7 13 0 -2
BITMAP
00
48
48
00
30
48
84
84
FC
84
84
00
00
ENDCHAR

STARTCHAR uni04D3
ENCODING 1235
SWIDTH 497 0
DWIDTH 7 0
BBX 7 13 0 -2
BITMAP
00
00
48
48
00
78
04
7C
84
8C
74
00
00
ENDCHAR

STARTCHAR uni04D4
ENCODING 1236
SWIDTH 497 0
DWIDTH 7 0
BBX 7 13 0 -2
BITMAP
00
00
5C
A0
A0
A0
B8
E0
A0
A0
BC
00
00
ENDCHAR

STARTCHAR uni04D5
ENCODING 1237
SWIDTH 497 0
DWIDTH 7 0
BBX 7 13 0 -2
BITMAP
00
00
00
00
00
68
14
7C
90
94
68
00
00
ENDCHAR

STARTCHAR uni04D6
ENCODING 1238
SWIDTH 497 0
DWIDTH 7 0
BBX 7 13 0 -2
BITMAP
00
84
78
00
FC
80
80
F0
80
80
FC
00
00
ENDCHAR

STARTCHAR uni04D7
ENCODING 1239
SWIDTH 497 0
DWIDTH 7 0
BBX 7 13 0 -2
BITMAP
00
00
84
78
00
78
84
FC
80
84
78
00
00
ENDCHAR

STARTCHAR uni04D8
ENCODING 1240
SWIDTH 497 0
DWIDTH 7 0
BBX 7 13 0 -2
BITMAP
00
00
78
84
04
04
FC
84
84
84
78
00
00
ENDCHAR

STARTCHAR afii10846
ENCODING 1241
SWIDTH 497 0
DWIDTH 7 0
BBX 7 13 0 -2
BITMAP
00
00
00
00
00
78
84
04
FC
84
78
00
00
ENDCHAR

STARTCHAR uni04DA
ENCODING 1242
SWIDTH 497 0
DWIDTH 7 0
BBX 7 13 0 -2
BITMAP
00
48
48
00
78
84
04
FC
84
84
78
00
00
ENDCHAR

STARTCHAR uni04DB
ENCODING 1243
SWIDTH 497 0
DWIDTH 7 0
BBX 7 13 0 -2
BITMAP
00
00
48
48
00
78
84
04
FC
84
78
00
00
ENDCHAR

STARTCHAR uni04DC
ENCODING 1244
SWIDTH 497 0
DWIDTH 7 0
BBX 7 13 0 -2
BITMAP
28
28
00
54
54
54
38
54
54
54
54
00
00
ENDCHAR

STARTCHAR uni04DD
ENCODING 1245
SWIDTH 497 0
DWIDTH 7 0
BBX 7 13 0 -2
BITMAP
00
00
28
28
00
54
54
38
54
54
54
00
00
ENDCHAR

STARTCHAR uni04DE
ENCODING 1246
SWIDTH 497 0
DWIDTH 7 0
BBX 7 13 0 -2
BITMAP
48
48
00
78
84
04
38
04
04
84
78
00
00
ENDCHAR

STARTCHAR uni04DF
ENCODING 1247
SWIDTH 497 0
DWIDTH 7 0
BBX 7 13 0 -2
BITMAP
00
00
48
48
00
78
84
38
04
84
78
00
00
ENDCHAR

STARTCHAR uni04E0
ENCODING 1248
SWIDTH 497 0
DWIDTH 7 0
BBX 7 13 0 -2
BITMAP
00
00
F8
10
20
70
08
04
04
84
78
00
00
ENDCHAR

STARTCHAR uni04E1
ENCODING 1249
SWIDTH 497 0
DWIDTH 7 0
BBX 7 13 0 -2
BITMAP
00
00
00
00
00
FC
08
10
38
04
04
84
78
ENDCHAR

STARTCHAR uni04E2
ENCODING 1250
SWIDTH 497 0
DWIDTH 7 0
BBX 7 13 0 -2
BITMAP
78
00
84
84
8C
94
A4
C4
84
84
84
00
00
ENDCHAR

STARTCHAR uni04E3
ENCODING 1251
SWIDTH 497 0
DWIDTH 7 0
BBX 7 13 0 -2
BITMAP
00
00
00
78
00
84
8C
94
A4
C4
84
00
00
ENDCHAR

STARTCHAR uni04E4
ENCODING 1252
SWIDTH 497 0
DWIDTH 7 0
BBX 7 13 0 -2
BITMAP
48
48
00
84
8C
94
A4
C4
84
84
84
00
00
ENDCHAR

STARTCHAR uni04E5
ENCODING 1253
SWIDTH 497 0
DWIDTH 7 0
BBX 7 13 0 -2
BITMAP
00
00
48
48
00
84
8C
94
A4
C4
84
00
00
ENDCHAR

STARTCHAR uni04E6
ENCODING 1254
SWIDTH 497 0
DWIDTH 7 0
BBX 7 13 0 -2
BITMAP
00
48
48
00
78
84
84
84
84
84
78
00
00
ENDCHAR

STARTCHAR uni04E7
ENCODING 1255
SWIDTH 497 0
DWIDTH 7 0
BBX 7 13 0 -2
BITMAP
00
00
48
48
00
78
84
84
84
84
78
00
00
ENDCHAR

STARTCHAR uni04E8
ENCODING 1256
SWIDTH 497 0
DWIDTH 7 0
BBX 7 13 0 -2
BITMAP
00
00
78
84
84
84
FC
84
84
84
78
00
00
ENDCHAR

STARTCHAR uni04E9
ENCODING 1257
SWIDTH 497 0
DWIDTH 7 0
BBX 7 13 0 -2
BITMAP
00
00
00
00
00
78
84
FC
84
84
78
00
00
ENDCHAR

STARTCHAR uni04EA
ENCODING 1258
SWIDTH 497 0
DWIDTH 7 0
BBX 7 13 0 -2
BITMAP
48
48
00
78
84
84
FC
84
84
84
78
00
00
ENDCHAR

STARTCHAR uni04EB
ENCODING 1259
SWIDTH 497 0
DWIDTH 7 0
BBX 7 13 0 -2
BITMAP
00
00
48
48
00
78
84
FC
84
84
78
00
00
ENDCHAR

STARTCHAR uni04EC
ENCODING 1260
SWIDTH 497 0
DWIDTH 7 0
BBX 7 13 0 -2
BITMAP
48
48
00
70
88
04
3C
04
04
88
70
00
00
ENDCHAR

STARTCHAR uni04ED
ENCODING 1261
SWIDTH 497 0
DWIDTH 7 0
BBX 7 13 0 -2
BITMAP
00
00
48
48
00
78
84
3C
04
84
78
00
00
ENDCHAR

STARTCHAR uni04EE
ENCODING 1262
SWIDTH 497 0
DWIDTH 7 0
BBX 7 13 0 -2
BITMAP
78
00
84
84
84
84
7C
04
04
84
78
00
00
ENDCHAR

STARTCHAR uni04EF
ENCODING 1263
SWIDTH 497 0
DWIDTH 7 0
BBX 7 13 0 -2
BITMAP
00
00
00
78
00
84
84
84
8C
74
04
84
78
ENDCHAR

STARTCHAR uni04F0
ENCODING 1264
SWIDTH 497 0
DWIDTH 7 0
BBX 7 13 0 -2
BITMAP
48
48
00
84
84
84
7C
04
04
84
78
00
00
ENDCHAR

STARTCHAR uni04F1
ENCODING 1265
SWIDTH 497 0
DWIDTH 7 0
BBX 7 13 0 -2
BITMAP
00
00
48
48
00
84
84
84
8C
74
04
84
78
ENDCHAR

STARTCHAR uni04F2
ENCODING 1266
SWIDTH 497 0
DWIDTH 7 0
BBX 7 13 0 -2
BITMAP
24
48
00
84
84
84
7C
04
04
84
78
00
00
ENDCHAR

STARTCHAR uni04F3
ENCODING 1267
SWIDTH 497 0
DWIDTH 7 0
BBX 7 13 0 -2
BITMAP
00
00
24
48
00
84
84
84
8C
74
04
84
78
ENDCHAR

STARTCHAR uni04F4
ENCODING 1268
SWIDTH 497 0
DWIDTH 7 0
BBX 7 13 0 -2
BITMAP
48
48
00
84
84
84
7C
04
04
04
04
00
00
ENDCHAR

STARTCHAR uni04F5
ENCODING 1269
SWIDTH 497 0
DWIDTH 7 0
BBX 7 13 0 -2
BITMAP
00
00
48
48
00
84
84
84
7C
04
04
00
00
ENDCHAR

STARTCHAR uni04F8
ENCODING 1272
SWIDTH 497 0
DWIDTH 7 0
BBX 7 13 0 -2
BITMAP
28
28
00
84
84
84
E4
94
94
94
E4
00
00
ENDCHAR

STARTCHAR uni04F9
ENCODING 1273
SWIDTH 497 0
DWIDTH 7 0
BBX 7 13 0 -2
BITMAP
00
00
28
28
00
84
84
E4
94
94
E4
00
00
ENDCHAR

STARTCHAR uni0531
ENCODING 1329
SWIDTH 497 0
DWIDTH 7 0
BBX 7 13 0 -2
BITMAP
00
00
90
90
90
90
90
90
B8
94
64
00
00
ENDCHAR

STARTCHAR uni0532
ENCODING 1330
SWIDTH 497 0
DWIDTH 7 0
BBX 7 13 0 -2
BITMAP
00
00
78
84
84
80
80
F8
84
80
80
00
00
ENDCHAR

STARTCHAR uni0533
ENCODING 1331
SWIDTH 497 0
DWIDTH 7 0
BBX 7 13 0 -2
BITMAP
00
00
70
88
88
88
88
7C
08
08
08
00
00
ENDCHAR

STARTCHAR uni0534
ENCODING 1332
SWIDTH 497 0
DWIDTH 7 0
BBX 7 13 0 -2
BITMAP
00
00
70
88
88
08
0C
08
08
08
08
00
00
ENDCHAR

STARTCHAR uni0535
ENCODING 1333
SWIDTH 497 0
DWIDTH 7 0
BBX 7 13 0 -2
BITMAP
00
00
80
80
F8
84
80
80
84
84
78
00
00
ENDCHAR

STARTCHAR uni0536
ENCODING 1334
SWIDTH 497 0
DWIDTH 7 0
BBX 7 13 0 -2
BITMAP
00
00
78
84
84
84
78
08
10
F8
84
00
00
ENDCHAR

STARTCHAR uni0537
ENCODING 1335
SWIDTH 497 0
DWIDTH 7 0
BBX 7 13 0 -2
BITMAP
00
00
80
80
80
F8
84
80
80
80
F8
04
00
ENDCHAR

STARTCHAR uni0538
ENCODING 1336
SWIDTH 497 0
DWIDTH 7 0
BBX 7 13 0 -2
BITMAP
00
00
78
84
84
84
80
80
80
80
F8
04
00
ENDCHAR

STARTCHAR uni0539
ENCODING 1337
SWIDTH 497 0
DWIDTH 7 0
BBX 7 13 0 -2
BITMAP
00
00
78
84
84
84
9C
A4
A4
A4
98
00
00
ENDCHAR

STARTCHAR uni053A
ENCODING 1338
SWIDTH 497 0
DWIDTH 7 0
BBX 7 13 0 -2
BITMAP
00
00
04
04
04
7C
84
84
84
84
78
00
00
ENDCHAR

STARTCHAR uni053B
ENCODING 1339
SWIDTH 497 0
DWIDTH 7 0
BBX 7 13 0 -2
BITMAP
00
00
80
80
80
F8
84
84
80
80
80
00
00
ENDCHAR

STARTCHAR uni053C
ENCODING 1340
SWIDTH 497 0
DWIDTH 7 0
BBX 7 13 0 -2
BITMAP
00
00
80
80
80
80
80
80
80
80
F8
04
08
ENDCHAR

STARTCHAR uni053D
ENCODING 1341
SWIDTH 497 0
DWIDTH 7 0
BBX 7 13 0 -2
BITMAP
00
00
80
80
80
E4
A4
A4
A4
A4
98
00
00
ENDCHAR

STARTCHAR uni053E
ENCODING 1342
SWIDTH 497 0
DWIDTH 7 0
BBX 7 13 0 -2
BITMAP
00
00
FC
30
48
84
84
84
84
84
78
00
00
ENDCHAR

STARTCHAR uni053F
ENCODING 1343
SWIDTH 497 0
DWIDTH 7 0
BBX 7 13 0 -2
BITMAP
00
00
80
80
84
84
84
8C
74
04
04
00
00
ENDCHAR

STARTCHAR uni0540
ENCODING 1344
SWIDTH 497 0
DWIDTH 7 0
BBX 7 13 0 -2
BITMAP
00
00
10
20
10
20
40
80
C0
30
0C
00
00
ENDCHAR

STARTCHAR uni0541
ENCODING 1345
SWIDTH 497 0
DWIDTH 7 0
BBX 7 13 0 -2
BITMAP
00
00
78
84
84
84
04
04
78
88
74
00
00
ENDCHAR

STARTCHAR uni0542
ENCODING 1346
SWIDTH 497 0
DWIDTH 7 0
BBX 7 13 0 -2
BITMAP
00
00
70
88
88
88
08
08
08
08
0C
04
00
ENDCHAR

STARTCHAR uni0543
ENCODING 1347
SWIDTH 497 0
DWIDTH 7 0
BBX 7 13 0 -2
BITMAP
00
00
08
D4
30
30
48
48
84
84
FC
00
00
ENDCHAR

STARTCHAR uni0544
ENCODING 1348
SWIDTH 497 0
DWIDTH 7 0
BBX 7 13 0 -2
BITMAP
00
00
98
94
94
90
90
90
90
90
60
00
00
ENDCHAR

STARTCHAR uni0545
ENCODING 1349
SWIDTH 497 0
DWIDTH 7 0
BBX 7 13 0 -2
BITMAP
00
00
30
48
08
70
88
04
04
88
70
00
00
ENDCHAR

STARTCHAR uni0546
ENCODING 1350
SWIDTH 497 0
DWIDTH 7 0
BBX 7 13 0 -2
BITMAP
00
00
C0
40
40
40
40
44
44
44
38
00
00
ENDCHAR

STARTCHAR uni0547
ENCODING 1351
SWIDTH 497 0
DWIDTH 7 0
BBX 7 13 0 -2
BITMAP
00
00
C0
30
4C
80
80
84
84
84
78
00
00
ENDCHAR

STARTCHAR uni0548
ENCODING 1352
SWIDTH 497 0
DWIDTH 7 0
BBX 7 13 0 -2
BITMAP
00
00
78
84
84
84
84
84
84
84
84
00
00
ENDCHAR

STARTCHAR uni0549
ENCODING 1353
SWIDTH 497 0
DWIDTH 7 0
BBX 7 13 0 -2
BITMAP
00
00
78
84
84
84
04
04
C8
30
0C
00
00
ENDCHAR

STARTCHAR uni054A
ENCODING 1354
SWIDTH 497 0
DWIDTH 7 0
BBX 7 13 0 -2
BITMAP
00
00
38
54
54
54
14
14
04
04
04
00
00
ENDCHAR

STARTCHAR uni054B
ENCODING 1355
SWIDTH 497 0
DWIDTH 7 0
BBX 7 13 0 -2
BITMAP
00
00
70
88
84
44
24
18
10
F8
44
00
00
ENDCHAR

STARTCHAR uni054C
ENCODING 1356
SWIDTH 497 0
DWIDTH 7 0
BBX 7 13 0 -2
BITMAP
00
00
60
90
90
98
94
94
90
90
90
00
00
ENDCHAR

STARTCHAR uni054D
ENCODING 1357
SWIDTH 497 0
DWIDTH 7 0
BBX 7 13 0 -2
BITMAP
00
00
84
84
84
84
84
84
84
84
78
00
00
ENDCHAR

STARTCHAR uni054E
ENCODING 1358
SWIDTH 497 0
DWIDTH 7 0
BBX 7 13 0 -2
BITMAP
00
00
08
08
88
88
88
78
08
08
0C
04
04
ENDCHAR

STARTCHAR uni054F
ENCODING 1359
SWIDTH 497 0
DWIDTH 7 0
BBX 7 13 0 -2
BITMAP
00
00
78
84
80
80
78
04
04
84
78
00
00
ENDCHAR

STARTCHAR uni0550
ENCODING 1360
SWIDTH 497 0
DWIDTH 7 0
BBX 7 13 0 -2
BITMAP
00
00
78
84
84
80
80
80
80
80
80
00
00
ENDCHAR

STARTCHAR uni0551
ENCODING 1361
SWIDTH 497 0
DWIDTH 7 0
BBX 7 13 0 -2
BITMAP
00
00
30
48
48
30
C8
04
04
84
78
00
00
ENDCHAR

STARTCHAR uni0552
ENCODING 1362
SWIDTH 497 0
DWIDTH 7 0
BBX 7 13 0 -2
BITMAP
00
00
40
40
40
78
44
40
40
40
40
00
00
ENDCHAR

STARTCHAR uni0553
ENCODING 1363
SWIDTH 497 0
DWIDTH 7 0
BBX 7 13 0 -2
BITMAP
00
00
10
38
54
54
54
54
54
38
10
00
00
ENDCHAR

STARTCHAR uni0554
ENCODING 1364
SWIDTH 497 0
DWIDTH 7 0
BBX 7 13 0 -2
BITMAP
00
00
18
24
24
24
24
38
A0
78
24
00
00
ENDCHAR

STARTCHAR uni0555
ENCODING 1365
SWIDTH 497 0
DWIDTH 7 0
BBX 7 13 0 -2
BITMAP
00
00
78
84
84
84
84
84
84
84
78
00
00
ENDCHAR

STARTCHAR uni0556
ENCODING 1366
SWIDTH 497 0
DWIDTH 7 0
BBX 7 13 0 -2
BITMAP
00
00
20
50
50
38
14
14
54
54
38
00
00
ENDCHAR

STARTCHAR uni0559
ENCODING 1369
SWIDTH 497 0
DWIDTH 7 0
BBX 7 13 0 -2
BITMAP
00
10
20
20
10
00
00
00
00
00
00
00
00
ENDCHAR

STARTCHAR uni055A
ENCODING 1370
SWIDTH 497 0
DWIDTH 7 0
BBX 7 13 0 -2
BITMAP
00
20
10
10
20
00
00
00
00
00
00
00
00
ENDCHAR

STARTCHAR uni055B
ENCODING 1371
SWIDTH 497 0
DWIDTH 7 0
BBX 7 13 0 -2
BITMAP
00
00
10
20
00
00
00
00
00
00
00
00
00
ENDCHAR

STARTCHAR uni055C
ENCODING 1372
SWIDTH 497 0
DWIDTH 7 0
BBX 7 13 0 -2
BITMAP
00
04
38
40
00
00
00
00
00
00
00
00
00
ENDCHAR

STARTCHAR uni055D
ENCODING 1373
SWIDTH 497 0
DWIDTH 7 0
BBX 7 13 0 -2
BITMAP
00
00
20
10
00
00
00
00
00
00
00
00
00
ENDCHAR

STARTCHAR uni055E
ENCODING 1374
SWIDTH 497 0
DWIDTH 7 0
BBX 7 13 0 -2
BITMAP
00
00
38
44
54
48
00
00
00
00
00
00
00
ENDCHAR

STARTCHAR uni055F
ENCODING 1375
SWIDTH 497 0
DWIDTH 7 0
BBX 7 13 0 -2
BITMAP
00
00
60
44
38
00
00
00
00
00
00
00
00
ENDCHAR

STARTCHAR uni0561
ENCODING 1377
SWIDTH 497 0
DWIDTH 7 0
BBX 7 13 0 -2
BITMAP
00
00
00
00
00
44
54
54
54
54
2C
00
00
ENDCHAR

STARTCHAR uni0562
ENCODING 1378
SWIDTH 497 0
DWIDTH 7 0
BBX 7 13 0 -2
BITMAP
00
00
00
00
00
78
84
84
84
80
FC
80
80
ENDCHAR

STARTCHAR uni0563
ENCODING 1379
SWIDTH 497 0
DWIDTH 7 0
BBX 7 13 0 -2
BITMAP
00
00
00
00
00
68
98
88
88
88
7C
08
08
ENDCHAR

STARTCHAR uni0564
ENCODING 1380
SWIDTH 497 0
DWIDTH 7 0
BBX 7 13 0 -2
BITMAP
00
00
00
00
00
B0
C8
88
88
88
8C
08
08
ENDCHAR

STARTCHAR uni0565
ENCODING 1381
SWIDTH 497 0
DWIDTH 7 0
BBX 7 13 0 -2
BITMAP
00
00
80
80
80
FC
80
84
84
8C
74
00
00
ENDCHAR

STARTCHAR uni0566
ENCODING 1382
SWIDTH 497 0
DWIDTH 7 0
BBX 7 13 0 -2
BITMAP
00
00
00
00
00
68
98
88
88
98
68
08
0C
ENDCHAR

STARTCHAR uni0567
ENCODING 1383
SWIDTH 497 0
DWIDTH 7 0
BBX 7 13 0 -2
BITMAP
00
00
80
80
F8
80
80
80
80
80
78
04
08
ENDCHAR

STARTCHAR uni0568
ENCODING 1384
SWIDTH 497 0
DWIDTH 7 0
BBX 7 13 0 -2
BITMAP
00
00
00
00
00
B8
C4
84
84
84
84
80
FC
ENDCHAR

STARTCHAR uni0569
ENCODING 1385
SWIDTH 497 0
DWIDTH 7 0
BBX 7 13 0 -2
BITMAP
00
00
00
00
00
B0
C8
88
9C
A8
90
80
80
ENDCHAR

STARTCHAR uni056A
ENCODING 1386
SWIDTH 497 0
DWIDTH 7 0
BBX 7 13 0 -2
BITMAP
00
00
08
08
08
7C
88
88
88
88
70
00
00
ENDCHAR

STARTCHAR uni056B
ENCODING 1387
SWIDTH 497 0
DWIDTH 7 0
BBX 7 13 0 -2
BITMAP
00
00
40
40
40
58
64
44
44
44
44
40
40
ENDCHAR

STARTCHAR uni056C
ENCODING 1388
SWIDTH 497 0
DWIDTH 7 0
BBX 7 13 0 -2
BITMAP
00
00
00
00
00
60
20
20
20
20
20
20
18
ENDCHAR

STARTCHAR uni056D
ENCODING 1389
SWIDTH 497 0
DWIDTH 7 0
BBX 7 13 0 -2
BITMAP
00
00
80
80
80
80
E4
A4
A4
A4
9C
80
80
ENDCHAR

STARTCHAR uni056E
ENCODING 1390
SWIDTH 497 0
DWIDTH 7 0
BBX 7 13 0 -2
BITMAP
00
00
00
E0
10
08
7C
88
88
88
70
00
00
ENDCHAR

STARTCHAR uni056F
ENCODING 1391
SWIDTH 497 0
DWIDTH 7 0
BBX 7 13 0 -2
BITMAP
00
00
80
80
80
80
84
84
84
8C
74
04
04
ENDCHAR

STARTCHAR uni0570
ENCODING 1392
SWIDTH 497 0
DWIDTH 7 0
BBX 7 13 0 -2
BITMAP
00
00
80
80
80
B8
C4
84
84
84
84
00
00
ENDCHAR

STARTCHAR uni0571
ENCODING 1393
SWIDTH 497 0
DWIDTH 7 0
BBX 7 13 0 -2
BITMAP
00
00
10
20
10
78
84
84
84
8C
74
00
00
ENDCHAR

STARTCHAR uni0572
ENCODING 1394
SWIDTH 497 0
DWIDTH 7 0
BBX 7 13 0 -2
BITMAP
00
00
00
00
00
B0
C8
88
88
88
88
08
0C
ENDCHAR

STARTCHAR uni0573
ENCODING 1395
SWIDTH 497 0
DWIDTH 7 0
BBX 7 13 0 -2
BITMAP
00
00
38
44
40
F8
44
44
44
4C
74
00
00
ENDCHAR

STARTCHAR uni0574
ENCODING 1396
SWIDTH 497 0
DWIDTH 7 0
BBX 7 13 0 -2
BITMAP
00
00
08
14
10
88
88
88
88
98
68
00
00
ENDCHAR

STARTCHAR uni0575
ENCODING 1397
SWIDTH 497 0
DWIDTH 7 0
BBX 7 13 0 -2
BITMAP
00
00
00
00
00
18
08
08
08
08
08
08
70
ENDCHAR

STARTCHAR uni0576
ENCODING 1398
SWIDTH 497 0
DWIDTH 7 0
BBX 7 13 0 -2
BITMAP
00
00
60
80
80
44
44
44
44
4C
34
00
00
ENDCHAR

STARTCHAR uni0577
ENCODING 1399
SWIDTH 497 0
DWIDTH 7 0
BBX 7 13 0 -2
BITMAP
00
00
00
00
00
38
44
04
08
10
20
40
3C
ENDCHAR

STARTCHAR uni0578
ENCODING 1400
SWIDTH 497 0
DWIDTH 7 0
BBX 7 13 0 -2
BITMAP
00
00
00
00
00
B8
C4
84
84
84
84
00
00
ENDCHAR

STARTCHAR uni0579
ENCODING 1401
SWIDTH 497 0
DWIDTH 7 0
BBX 7 13 0 -2
BITMAP
00
00
00
00
20
40
20
10
20
40
80
80
7C
ENDCHAR

STARTCHAR uni057A
ENCODING 1402
SWIDTH 497 0
DWIDTH 7 0
BBX 7 13 0 -2
BITMAP
00
00
00
00
00
44
54
54
54
54
2C
04
04
ENDCHAR

STARTCHAR uni057B
ENCODING 1403
SWIDTH 497 0
DWIDTH 7 0
BBX 7 13 0 -2
BITMAP
00
00
00
00
00
78
84
84
84
68
10
20
3C
ENDCHAR

STARTCHAR uni057C
ENCODING 1404
SWIDTH 497 0
DWIDTH 7 0
BBX 7 13 0 -2
BITMAP
00
00
00
00
00
B8
C4
84
88
90
B8
00
00
ENDCHAR

STARTCHAR uni057D
ENCODING 1405
SWIDTH 497 0
DWIDTH 7 0
BBX 7 13 0 -2
BITMAP
00
00
00
00
00
84
84
84
84
8C
74
00
00
ENDCHAR

STARTCHAR uni057E
ENCODING 1406
SWIDTH 497 0
DWIDTH 7 0
BBX 7 13 0 -2
BITMAP
00
00
08
08
08
88
88
88
88
98
68
08
0C
ENDCHAR

STARTCHAR uni057F
ENCODING 1407
SWIDTH 497 0
DWIDTH 7 0
BBX 7 13 0 -2
BITMAP
00
00
00
00
00
58
54
54
54
54
34
10
10
ENDCHAR

STARTCHAR uni0580
ENCODING 1408
SWIDTH 497 0
DWIDTH 7 0
BBX 7 13 0 -2
BITMAP
00
00
00
00
B8
C4
84
84
84
84
84
80
80
ENDCHAR

STARTCHAR uni0581
ENCODING 1409
SWIDTH 497 0
DWIDTH 7 0
BBX 7 13 0 -2
BITMAP
00
00
00
00
00
78
84
84
84
7C
04
84
78
ENDCHAR

STARTCHAR uni0582
ENCODING 1410
SWIDTH 497 0
DWIDTH 7 0
BBX 7 13 0 -2
BITMAP
00
00
00
00
00
60
20
20
20
20
18
00
00
ENDCHAR

STARTCHAR uni0583
ENCODING 1411
SWIDTH 497 0
DWIDTH 7 0
BBX 7 13 0 -2
BITMAP
00
00
10
10
10
58
54
54
54
54
34
10
10
ENDCHAR

STARTCHAR uni0584
ENCODING 1412
SWIDTH 497 0
DWIDTH 7 0
BBX 7 13 0 -2
BITMAP
00
00
58
64
44
44
64
58
40
FC
40
00
00
ENDCHAR

STARTCHAR uni0585
ENCODING 1413
SWIDTH 497 0
DWIDTH 7 0
BBX 7 13 0 -2
BITMAP
00
00
00
00
00
78
84
84
84
84
78
00
00
ENDCHAR

STARTCHAR uni0586
ENCODING 1414
SWIDTH 497 0
DWIDTH 7 0
BBX 7 13 0 -2
BITMAP
00
00
30
50
50
38
14
54
54
54
38
10
10
ENDCHAR

STARTCHAR uni0587
ENCODING 1415
SWIDTH 497 0
DWIDTH 7 0
BBX 7 13 0 -2
BITMAP
00
00
80
80
80
90
90
90
90
90
6C
00
00
ENDCHAR

STARTCHAR uni0589
ENCODING 1417
SWIDTH 497 0
DWIDTH 7 0
BBX 7 13 0 -2
BITMAP
00
00
00
00
30
30
00
30
30
00
00
00
00
ENDCHAR

STARTCHAR uni058A
ENCODING 1418
SWIDTH 497 0
DWIDTH 7 0
BBX 7 13 0 -2
BITMAP
00
00
00
00
00
00
60
44
38
00
00
00
00
ENDCHAR

STARTCHAR afii57645
ENCODING 1470
SWIDTH 497 0
DWIDTH 7 0
BBX 7 13 0 -2
BITMAP
00
00
00
00
00
78
00
00
00
00
00
00
00
ENDCHAR

STARTCHAR afii57842
ENCODING 1472
SWIDTH 497 0
DWIDTH 7 0
BBX 7 13 0 -2
BITMAP
00
00
00
00
00
10
10
10
10
10
10
00
00
ENDCHAR

STARTCHAR afii57658
ENCODING 1475
SWIDTH 497 0
DWIDTH 7 0
BBX 7 13 0 -2
BITMAP
00
00
00
00
00
10
10
00
00
10
10
00
00
ENDCHAR

STARTCHAR afii57664
ENCODING 1488
SWIDTH 497 0
DWIDTH 7 0
BBX 7 13 0 -2
BITMAP
00
00
00
00
00
48
24
34
48
44
64
00
00
ENDCHAR

STARTCHAR afii57665
ENCODING 1489
SWIDTH 497 0
DWIDTH 7 0
BBX 7 13 0 -2
BITMAP
00
00
00
00
00
78
08
08
08
08
7C
00
00
ENDCHAR

STARTCHAR afii57666
ENCODING 1490
SWIDTH 497 0
DWIDTH 7 0
BBX 7 13 0 -2
BITMAP
00
00
00
00
00
40
20
10
10
28
48
00
00
ENDCHAR

STARTCHAR afii57667
ENCODING 1491
SWIDTH 497 0
DWIDTH 7 0
BBX 7 13 0 -2
BITMAP
00
00
00
00
00
7C
08
08
08
08
08
00
00
ENDCHAR

STARTCHAR afii57668
ENCODING 1492
SWIDTH 497 0
DWIDTH 7 0
BBX 7 13 0 -2
BITMAP
00
00
00
00
00
7C
04
04
44
44
44
00
00
ENDCHAR

STARTCHAR afii57669
ENCODING 1493
SWIDTH 497 0
DWIDTH 7 0
BBX 7 13 0 -2
BITMAP
00
00
00
00
00
30
10
10
10
10
10
00
00
ENDCHAR

STARTCHAR afii57670
ENCODING 1494
SWIDTH 497 0
DWIDTH 7 0
BBX 7 13 0 -2
BITMAP
00
00
00
00
00
7C
10
10
08
08
08
00
00
ENDCHAR

STARTCHAR afii57671
ENCODING 1495
SWIDTH 497 0
DWIDTH 7 0
BBX 7 13 0 -2
BITMAP
00
00
00
00
00
FC
44
44
44
44
44
00
00
ENDCHAR

STARTCHAR afii57672
ENCODING 1496
SWIDTH 497 0
DWIDTH 7 0
BBX 7 13 0 -2
BITMAP
00
00
00
00
00
CC
94
94
84
84
FC
00
00
ENDCHAR

STARTCHAR afii57673
ENCODING 1497
SWIDTH 497 0
DWIDTH 7 0
BBX 7 13 0 -2
BITMAP
00
00
00
00
00
30
10
10
00
00
00
00
00
ENDCHAR

STARTCHAR afii57674
ENCODING 1498
SWIDTH 497 0
DWIDTH 7 0
BBX 7 13 0 -2
BITMAP
00
00
00
00
00
7C
04
04
04
04
04
04
04
ENDCHAR

STARTCHAR afii57675
ENCODING 1499
SWIDTH 497 0
DWIDTH 7 0
BBX 7 13 0 -2
BITMAP
00
00
00
00
00
7C
04
04
04
04
78
00
00
ENDCHAR

STARTCHAR afii57676
ENCODING 1500
SWIDTH 497 0
DWIDTH 7 0
BBX 7 13 0 -2
BITMAP
00
00
40
40
40
7C
04
04
04
08
30
00
00
ENDCHAR

STARTCHAR afii57677
ENCODING 1501
SWIDTH 497 0
DWIDTH 7 0
BBX 7 13 0 -2
BITMAP
00
00
00
00
00
FC
44
44
44
44
7C
00
00
ENDCHAR

STARTCHAR afii57678
ENCODING 1502
SWIDTH 497 0
DWIDTH 7 0
BBX 7 13 0 -2
BITMAP
00
00
00
00
00
48
54
24
44
44
5C
00
00
ENDCHAR

STARTCHAR afii57679
ENCODING 1503
SWIDTH 497 0
DWIDTH 7 0
BBX 7 13 0 -2
BITMAP
00
00
00
00
00
30
10
10
10
10
10
10
10
ENDCHAR

STARTCHAR afii57680
ENCODING 1504
SWIDTH 497 0
DWIDTH 7 0
BBX 7 13 0 -2
BITMAP
00
00
00
00
00
18
08
08
08
08
78
00
00
ENDCHAR

STARTCHAR afii57681
ENCODING 1505
SWIDTH 497 0
DWIDTH 7 0
BBX 7 13 0 -2
BITMAP
00
00
00
00
00
FC
44
44
48
50
60
00
00
ENDCHAR

STARTCHAR afii57682
ENCODING 1506
SWIDTH 497 0
DWIDTH 7 0
BBX 7 13 0 -2
BITMAP
00
00
00
00
00
CC
44
44
44
48
F0
00
00
ENDCHAR

STARTCHAR afii57683
ENCODING 1507
SWIDTH 497 0
DWIDTH 7 0
BBX 7 13 0 -2
BITMAP
00
00
00
00
00
FC
44
44
64
04
04
04
04
ENDCHAR

STARTCHAR afii57684
ENCODING 1508
SWIDTH 497 0
DWIDTH 7 0
BBX 7 13 0 -2
BITMAP
00
00
00
00
00
FC
44
64
04
04
F8
00
00
ENDCHAR

STARTCHAR afii57685
ENCODING 1509
SWIDTH 497 0
DWIDTH 7 0
BBX 7 13 0 -2
BITMAP
00
00
00
00
00
48
24
24
28
30
20
20
20
ENDCHAR

STARTCHAR afii57686
ENCODING 1510
SWIDTH 497 0
DWIDTH 7 0
BBX 7 13 0 -2
BITMAP
00
00
00
00
00
48
24
14
08
04
7C
00
00
ENDCHAR

STARTCHAR afii57687
ENCODING 1511
SWIDTH 497 0
DWIDTH 7 0
BBX 7 13 0 -2
BITMAP
00
00
00
00
00
7C
04
44
44
44
58
40
40
ENDCHAR

STARTCHAR afii57688
ENCODING 1512
SWIDTH 497 0
DWIDTH 7 0
BBX 7 13 0 -2
BITMAP
00
00
00
00
00
78
04
04
04
04
04
00
00
ENDCHAR

STARTCHAR afii57689
ENCODING 1513
SWIDTH 497 0
DWIDTH 7 0
BBX 7 13 0 -2
BITMAP
00
00
00
00
00
54
54
54
74
44
78
00
00
ENDCHAR

STARTCHAR afii57690
ENCODING 1514
SWIDTH 497 0
DWIDTH 7 0
BBX 7 13 0 -2
BITMAP
00
00
00
00
00
7C
24
24
24
24
64
00
00
ENDCHAR

STARTCHAR afii57716
ENCODING 1520
SWIDTH 497 0
DWIDTH 7 0
BBX 7 13 0 -2
BITMAP
00
00
00
00
00
6C
24
24
24
24
24
00
00
ENDCHAR

STARTCHAR afii57717
ENCODING 1521
SWIDTH 497 0
DWIDTH 7 0
BBX 7 13 0 -2
BITMAP
00
00
00
00
00
6C
24
24
04
04
04
00
00
ENDCHAR

STARTCHAR afii57718
ENCODING 1522
SWIDTH 497 0
DWIDTH 7 0
BBX 7 13 0 -2
BITMAP
00
00
00
00
00
6C
24
24
00
00
00
00
00
ENDCHAR

STARTCHAR uni05F3
ENCODING 1523
SWIDTH 497 0
DWIDTH 7 0
BBX 7 13 0 -2
BITMAP
00
00
00
00
00
10
20
00
00
00
00
00
00
ENDCHAR

STARTCHAR uni05F4
ENCODING 1524
SWIDTH 497 0
DWIDTH 7 0
BBX 7 13 0 -2
BITMAP
00
00
00
00
00
24
48
00
00
00
00
00
00
ENDCHAR

STARTCHAR uni0E01
ENCODING 3585
SWIDTH 497 0
DWIDTH 7 0
BBX 7 13 0 -2
BITMAP
00
00
00
00
00
78
84
C4
44
44
44
00
00
ENDCHAR

STARTCHAR uni0E02
ENCODING 3586
SWIDTH 497 0
DWIDTH 7 0
BBX 7 13 0 -2
BITMAP
00
00
00
00
00
74
74
14
64
44
38
00
00
ENDCHAR

STARTCHAR uni0E03
ENCODING 3587
SWIDTH 497 0
DWIDTH 7 0
BBX 7 13 0 -2
BITMAP
00
00
00
00
00
94
F4
14
64
44
38
00
00
ENDCHAR

STARTCHAR uni0E04
ENCODING 3588
SWIDTH 497 0
DWIDTH 7 0
BBX 7 13 0 -2
BITMAP
00
00
00
00
00
78
84
B4
B4
A4
64
00
00
ENDCHAR

STARTCHAR uni0E05
ENCODING 3589
SWIDTH 497 0
DWIDTH 7 0
BBX 7 13 0 -2
BITMAP
00
00
00
00
00
68
94
B4
B4
A4
64
00
00
ENDCHAR

STARTCHAR uni0E06
ENCODING 3590
SWIDTH 497 0
DWIDTH 7 0
BBX 7 13 0 -2
BITMAP
00
00
00
00
00
A4
E4
24
44
E4
D8
00
00
ENDCHAR

STARTCHAR uni0E07
ENCODING 3591
SWIDTH 497 0
DWIDTH 7 0
BBX 7 13 0 -2
BITMAP
00
00
00
00
00
18
18
88
48
48
38
00
00
ENDCHAR

STARTCHAR uni0E08
ENCODING 3592
SWIDTH 497 0
DWIDTH 7 0
BBX 7 13 0 -2
BITMAP
00
00
00
00
00
78
84
34
34
14
18
00
00
ENDCHAR

STARTCHAR uni0E09
ENCODING 3593
SWIDTH 497 0
DWIDTH 7 0
BBX 7 13 0 -2
BITMAP
00
00
00
00
00
F0
08
C8
C8
5C
6C
00
00
ENDCHAR

STARTCHAR uni0E0A
ENCODING 3594
SWIDTH 497 0
DWIDTH 7 0
BBX 7 13 0 -2
BITMAP
00
00
00
00
08
C8
D0
48
88
88
70
00
00
ENDCHAR

STARTCHAR uni0E0B
ENCODING 3595
SWIDTH 497 0
DWIDTH 7 0
BBX 7 13 0 -2
BITMAP
00
00
00
00
04
A4
E8
24
44
44
38
00
00
ENDCHAR

STARTCHAR uni0E0C
ENCODING 3596
SWIDTH 497 0
DWIDTH 7 0
BBX 7 13 0 -2
BITMAP
00
00
00
00
00
64
94
54
94
BC
F4
00
00
ENDCHAR

STARTCHAR uni0E0D
ENCODING 3597
SWIDTH 497 0
DWIDTH 7 0
BBX 7 13 0 -2
BITMAP
00
00
00
00
00
64
94
54
9C
D0
DC
00
00
ENDCHAR

STARTCHAR uni0E0E
ENCODING 3598
SWIDTH 497 0
DWIDTH 7 0
BBX 7 13 0 -2
BITMAP
00
00
00
00
00
78
84
44
44
C4
D4
24
5C
ENDCHAR

STARTCHAR uni0E0F
ENCODING 3599
SWIDTH 497 0
DWIDTH 7 0
BBX 7 13 0 -2
BITMAP
00
00
00
00
00
78
84
44
44
C4
D4
BC
54
ENDCHAR

STARTCHAR uni0E10
ENCODING 3600
SWIDTH 497 0
DWIDTH 7 0
BBX 7 13 0 -2
BITMAP
00
00
00
00
00
7C
80
78
64
64
18
54
AC
ENDCHAR

STARTCHAR uni0E11
ENCODING 3601
SWIDTH 497 0
DWIDTH 7 0
BBX 7 13 0 -2
BITMAP
00
00
00
00
00
A8
F4
24
44
44
44
00
00
ENDCHAR

STARTCHAR uni0E12
ENCODING 3602
SWIDTH 497 0
DWIDTH 7 0
BBX 7 13 0 -2
BITMAP
00
00
00
00
00
94
F4
94
F4
BC
F4
00
00
ENDCHAR

STARTCHAR uni0E13
ENCODING 3603
SWIDTH 497 0
DWIDTH 7 0
BBX 7 13 0 -2
BITMAP
00
00
00
00
00
48
A8
68
A8
BC
EC
00
00
ENDCHAR

STARTCHAR uni0E14
ENCODING 3604
SWIDTH 497 0
DWIDTH 7 0
BBX 7 13 0 -2
BITMAP
00
00
00
00
00
78
84
B4
B4
94
64
00
00
ENDCHAR

STARTCHAR uni0E15
ENCODING 3605
SWIDTH 497 0
DWIDTH 7 0
BBX 7 13 0 -2
BITMAP
00
00
00
00
00
68
94
B4
B4
94
64
00
00
ENDCHAR

STARTCHAR uni0E16
ENCODING 3606
SWIDTH 497 0
DWIDTH 7 0
BBX 7 13 0 -2
BITMAP
00
00
00
00
00
78
84
C4
44
64
64
00
00
ENDCHAR

STARTCHAR uni0E17
ENCODING 3607
SWIDTH 497 0
DWIDTH 7 0
BBX 7 13 0 -2
BITMAP
00
00
00
00
00
C8
D4
64
44
44
44
00
00
ENDCHAR

STARTCHAR uni0E18
ENCODING 3608
SWIDTH 497 0
DWIDTH 7 0
BBX 7 13 0 -2
BITMAP
00
00
00
00
00
7C
80
F8
44
44
38
00
00
ENDCHAR

STARTCHAR uni0E19
ENCODING 3609
SWIDTH 497 0
DWIDTH 7 0
BBX 7 13 0 -2
BITMAP
00
00
00
00
00
C8
C8
48
88
9C
6C
00
00
ENDCHAR

STARTCHAR uni0E1A
ENCODING 3610
SWIDTH 497 0
DWIDTH 7 0
BBX 7 13 0 -2
BITMAP
00
00
00
00
00
C4
C4
44
44
44
38
00
00
ENDCHAR

STARTCHAR uni0E1B
ENCODING 3611
SWIDTH 497 0
DWIDTH 7 0
BBX 7 13 0 -2
BITMAP
00
00
00
04
04
C4
C4
44
44
44
38
00
00
ENDCHAR

STARTCHAR uni0E1C
ENCODING 3612
SWIDTH 497 0
DWIDTH 7 0
BBX 7 13 0 -2
BITMAP
00
00
00
00
00
C4
C4
84
94
94
68
00
00
ENDCHAR

STARTCHAR uni0E1D
ENCODING 3613
SWIDTH 497 0
DWIDTH 7 0
BBX 7 13 0 -2
BITMAP
00
00
00
04
04
C4
C4
84
94
94
68
00
00
ENDCHAR

STARTCHAR uni0E1E
ENCODING 3614
SWIDTH 497 0
DWIDTH 7 0
BBX 7 13 0 -2
BITMAP
00
00
00
00
00
D4
D4
54
54
54
28
00
00
ENDCHAR

STARTCHAR uni0E1F
ENCODING 3615
SWIDTH 497 0
DWIDTH 7 0
BBX 7 13 0 -2
BITMAP
00
00
00
04
04
D4
D4
54
54
54
28
00
00
ENDCHAR

STARTCHAR uni0E20
ENCODING 3616
SWIDTH 497 0
DWIDTH 7 0
BBX 7 13 0 -2
BITMAP
00
00
00
00
00
78
84
C4
44
C4
C4
00
00
ENDCHAR

STARTCHAR uni0E21
ENCODING 3617
SWIDTH 497 0
DWIDTH 7 0
BBX 7 13 0 -2
BITMAP
00
00
00
00
00
C4
C4
44
44
E4
D8
00
00
ENDCHAR

STARTCHAR uni0E22
ENCODING 3618
SWIDTH 497 0
DWIDTH 7 0
BBX 7 13 0 -2
BITMAP
00
00
00
00
00
C4
C4
84
64
84
78
00
00
ENDCHAR

STARTCHAR uni0E23
ENCODING 3619
SWIDTH 497 0
DWIDTH 7 0
BBX 7 13 0 -2
BITMAP
00
00
00
00
00
78
84
F0
08
18
18
00
00
ENDCHAR

STARTCHAR uni0E24
ENCODING 3620
SWIDTH 497 0
DWIDTH 7 0
BBX 7 13 0 -2
BITMAP
00
00
00
00
00
78
84
C4
44
64
64
04
04
ENDCHAR

STARTCHAR uni0E25
ENCODING 3621
SWIDTH 497 0
DWIDTH 7 0
BBX 7 13 0 -2
BITMAP
00
00
00
00
00
78
84
34
4C
64
64
00
00
ENDCHAR

STARTCHAR uni0E26
ENCODING 3622
SWIDTH 497 0
DWIDTH 7 0
BBX 7 13 0 -2
BITMAP
00
00
00
00
00
78
84
C4
44
C4
C4
04
04
ENDCHAR

STARTCHAR uni0E27
ENCODING 3623
SWIDTH 497 0
DWIDTH 7 0
BBX 7 13 0 -2
BITMAP
00
00
00
00
00
78
84
04
04
0C
0C
00
00
ENDCHAR

STARTCHAR uni0E28
ENCODING 3624
SWIDTH 497 0
DWIDTH 7 0
BBX 7 13 0 -2
BITMAP
00
00
00
04
04
78
84
B4
B4
A4
64
00
00
ENDCHAR

STARTCHAR uni0E29
ENCODING 3625
SWIDTH 497 0
DWIDTH 7 0
BBX 7 13 0 -2
BITMAP
00
00
00
00
00
C4
C4
54
5C
44
38
00
00
ENDCHAR

STARTCHAR uni0E2A
ENCODING 3626
SWIDTH 497 0
DWIDTH 7 0
BBX 7 13 0 -2
BITMAP
00
00
00
04
04
78
84
34
4C
64
64
00
00
ENDCHAR

STARTCHAR uni0E2B
ENCODING 3627
SWIDTH 497 0
DWIDTH 7 0
BBX 7 13 0 -2
BITMAP
00
00
00
00
00
CC
CC
48
54
64
44
00
00
ENDCHAR

STARTCHAR uni0E2C
ENCODING 3628
SWIDTH 497 0
DWIDTH 7 0
BBX 7 13 0 -2
BITMAP
00
00
00
04
04
D8
C4
44
54
54
28
00
00
ENDCHAR

STARTCHAR uni0E2D
ENCODING 3629
SWIDTH 497 0
DWIDTH 7 0
BBX 7 13 0 -2
BITMAP
00
00
00
00
00
78
84
64
64
44
38
00
00
ENDCHAR

STARTCHAR uni0E2E
ENCODING 3630
SWIDTH 497 0
DWIDTH 7 0
BBX 7 13 0 -2
BITMAP
00
00
00
04
04
78
F4
64
64
44
38
00
00
ENDCHAR

STARTCHAR uni0E2F
ENCODING 3631
SWIDTH 497 0
DWIDTH 7 0
BBX 7 13 0 -2
BITMAP
00
00
00
00
00
CC
F4
04
04
04
08
00
00
ENDCHAR

STARTCHAR uni0E30
ENCODING 3632
SWIDTH 497 0
DWIDTH 7 0
BBX 7 13 0 -2
BITMAP
00
00
00
00
00
00
64
78
00
64
78
00
00
ENDCHAR

STARTCHAR uni0E31
ENCODING 3633
SWIDTH 497 0
DWIDTH 7 0
BBX 7 13 0 -2
BITMAP
00
00
40
7C
00
00
00
00
00
00
00
00
00
ENDCHAR

STARTCHAR uni0E32
ENCODING 3634
SWIDTH 497 0
DWIDTH 7 0
BBX 7 13 0 -2
BITMAP
00
00
00
00
00
78
84
04
04
04
04
00
00
ENDCHAR

STARTCHAR uni0E33
ENCODING 3635
SWIDTH 497 0
DWIDTH 7 0
BBX 7 13 0 -2
BITMAP
00
00
00
C0
C0
38
44
04
04
04
04
00
00
ENDCHAR

STARTCHAR uni0E34
ENCODING 3636
SWIDTH 497 0
DWIDTH 7 0
BBX 7 13 0 -2
BITMAP
00
00
00
7C
00
00
00
00
00
00
00
00
00
ENDCHAR

STARTCHAR uni0E35
ENCODING 3637
SWIDTH 497 0
DWIDTH 7 0
BBX 7 13 0 -2
BITMAP
00
00
04
7C
00
00
00
00
00
00
00
00
00
ENDCHAR

STARTCHAR uni0E36
ENCODING 3638
SWIDTH 497 0
DWIDTH 7 0
BBX 7 13 0 -2
BITMAP
00
00
0C
7C
00
00
00
00
00
00
00
00
00
ENDCHAR

STARTCHAR uni0E37
ENCODING 3639
SWIDTH 497 0
DWIDTH 7 0
BBX 7 13 0 -2
BITMAP
00
00
14
7C
00
00
00
00
00
00
00
00
00
ENDCHAR

STARTCHAR uni0E38
ENCODING 3640
SWIDTH 497 0
DWIDTH 7 0
BBX 7 13 0 -2
BITMAP
00
00
00
00
00
00
00
00
00
00
00
0C
04
ENDCHAR

STARTCHAR uni0E39
ENCODING 3641
SWIDTH 497 0
DWIDTH 7 0
BBX 7 13 0 -2
BITMAP
00
00
00
00
00
00
00
00
00
00
00
34
1C
ENDCHAR

STARTCHAR uni0E3A
ENCODING 3642
SWIDTH 497 0
DWIDTH 7 0
BBX 7 13 0 -2
BITMAP
00
00
00
00
00
00
00
00
00
00
00
0C
0C
ENDCHAR

STARTCHAR uni0E3F
ENCODING 3647
SWIDTH 497 0
DWIDTH 7 0
BBX 7 13 0 -2
BITMAP
00
00
00
28
F8
AC
AC
F8
AC
AC
F8
28
00
ENDCHAR

STARTCHAR uni0E40
ENCODING 3648
SWIDTH 497 0
DWIDTH 7 0
BBX 7 13 0 -2
BITMAP
00
00
00
00
00
20
20
20
20
30
30
00
00
ENDCHAR

STARTCHAR uni0E41
ENCODING 3649
SWIDTH 497 0
DWIDTH 7 0
BBX 7 13 0 -2
BITMAP
00
00
00
00
00
48
48
48
48
6C
6C
00
00
ENDCHAR

STARTCHAR uni0E42
ENCODING 3650
SWIDTH 497 0
DWIDTH 7 0
BBX 7 13 0 -2
BITMAP
00
00
00
7C
80
F8
08
08
08
0C
0C
00
00
ENDCHAR

STARTCHAR uni0E43
ENCODING 3651
SWIDTH 497 0
DWIDTH 7 0
BBX 7 13 0 -2
BITMAP
00
00
00
70
88
A8
68
08
08
0C
0C
00
00
ENDCHAR

STARTCHAR uni0E44
ENCODING 3652
SWIDTH 497 0
DWIDTH 7 0
BBX 7 13 0 -2
BITMAP
00
00
00
D8
28
08
08
08
08
0C
0C
00
00
ENDCHAR

STARTCHAR uni0E45
ENCODING 3653
SWIDTH 497 0
DWIDTH 7 0
BBX 7 13 0 -2
BITMAP
00
00
00
00
00
78
84
04
04
04
04
04
04
ENDCHAR

STARTCHAR uni0E46
ENCODING 3654
SWIDTH 497 0
DWIDTH 7 0
BBX 7 13 0 -2
BITMAP
00
00
00
00
00
E8
D4
04
04
04
04
08
10
ENDCHAR

STARTCHAR uni0E47
ENCODING 3655
SWIDTH 497 0
DWIDTH 7 0
BBX 7 13 0 -2
BITMAP
02
3C
54
2C
00
00
00
00
00
00
00
00
00
ENDCHAR

STARTCHAR uni0E48
ENCODING 3656
SWIDTH 497 0
DWIDTH 7 0
BBX 7 13 0 -2
BITMAP
04
04
00
00
00
00
00
00
00
00
00
00
00
ENDCHAR

STARTCHAR uni0E49
ENCODING 3657
SWIDTH 497 0
DWIDTH 7 0
BBX 7 13 0 -2
BITMAP
34
18
00
00
00
00
00
00
00
00
00
00
00
ENDCHAR

STARTCHAR uni0E4A
ENCODING 3658
SWIDTH 497 0
DWIDTH 7 0
BBX 7 13 0 -2
BITMAP
54
78
00
00
00
00
00
00
00
00
00
00
00
ENDCHAR

STARTCHAR uni0E4B
ENCODING 3659
SWIDTH 497 0
DWIDTH 7 0
BBX 7 13 0 -2
BITMAP
04
0E
04
00
00
00
00
00
00
00
00
00
00
ENDCHAR

STARTCHAR uni0E4C
ENCODING 3660
SWIDTH 497 0
DWIDTH 7 0
BBX 7 13 0 -2
BITMAP
0C
08
00
00
00
00
00
00
00
00
00
00
00
ENDCHAR

STARTCHAR uni0E4D
ENCODING 3661
SWIDTH 497 0
DWIDTH 7 0
BBX 7 13 0 -2
BITMAP
0C
0C
00
00
00
00
00
00
00
00
00
00
00
ENDCHAR

STARTCHAR uni0E4E
ENCODING 3662
SWIDTH 497 0
DWIDTH 7 0
BBX 7 13 0 -2
BITMAP
0E
08
10
18
00
00
00
00
00
00
00
00
00
ENDCHAR

STARTCHAR uni0E4F
ENCODING 3663
SWIDTH 497 0
DWIDTH 7 0
BBX 7 13 0 -2
BITMAP
00
00
00
00
00
00
38
44
54
44
38
00
00
ENDCHAR

STARTCHAR uni0E50
ENCODING 3664
SWIDTH 497 0
DWIDTH 7 0
BBX 7 13 0 -2
BITMAP
00
00
00
00
00
00
78
84
84
84
78
00
00
ENDCHAR

STARTCHAR uni0E51
ENCODING 3665
SWIDTH 497 0
DWIDTH 7 0
BBX 7 13 0 -2
BITMAP
00
00
00
00
00
00
78
B4
F4
04
78
00
00
ENDCHAR

STARTCHAR uni0E52
ENCODING 3666
SWIDTH 497 0
DWIDTH 7 0
BBX 7 13 0 -2
BITMAP
00
00
00
00
80
80
94
AC
B4
B4
78
00
00
ENDCHAR

STARTCHAR uni0E53
ENCODING 3667
SWIDTH 497 0
DWIDTH 7 0
BBX 7 13 0 -2
BITMAP
00
00
00
00
00
00
68
94
94
D4
D4
00
00
ENDCHAR

STARTCHAR uni0E54
ENCODING 3668
SWIDTH 497 0
DWIDTH 7 0
BBX 7 13 0 -2
BITMAP
00
00
00
00
04
04
78
80
98
98
7C
00
00
ENDCHAR

STARTCHAR uni0E55
ENCODING 3669
SWIDTH 497 0
DWIDTH 7 0
BBX 7 13 0 -2
BITMAP
00
00
00
00
04
34
78
80
98
98
7C
00
00
ENDCHAR

STARTCHAR uni0E56
ENCODING 3670
SWIDTH 497 0
DWIDTH 7 0
BBX 7 13 0 -2
BITMAP
00
00
00
00
00
80
58
24
04
34
38
00
00
ENDCHAR

STARTCHAR uni0E57
ENCODING 3671
SWIDTH 497 0
DWIDTH 7 0
BBX 7 13 0 -2
BITMAP
00
00
00
00
04
04
54
B4
94
94
C8
00
00
ENDCHAR

STARTCHAR uni0E58
ENCODING 3672
SWIDTH 497 0
DWIDTH 7 0
BBX 7 13 0 -2
BITMAP
00
00
00
00
00
04
78
80
8C
EC
5C
00
00
ENDCHAR

STARTCHAR uni0E59
ENCODING 3673
SWIDTH 497 0
DWIDTH 7 0
BBX 7 13 0 -2
BITMAP
00
00
00
00
04
04
18
70
90
E8
64
00
00
ENDCHAR

STARTCHAR uni0E5A
ENCODING 3674
SWIDTH 497 0
DWIDTH 7 0
BBX 7 13 0 -2
BITMAP
00
00
00
00
00
D4
F4
14
14
14
28
00
00
ENDCHAR

STARTCHAR uni0E5B
ENCODING 3675
SWIDTH 497 0
DWIDTH 7 0
BBX 7 13 0 -2
BITMAP
00
00
00
00
00
C0
C0
AC
B0
A0
40
00
00
ENDCHAR

STARTCHAR uni10A0
ENCODING 4256
SWIDTH 497 0
DWIDTH 7 0
BBX 7 13 0 -2
BITMAP
00
00
FC
20
40
80
80
80
80
84
78
00
00
ENDCHAR

STARTCHAR uni10A1
ENCODING 4257
SWIDTH 497 0
DWIDTH 7 0
BBX 7 13 0 -2
BITMAP
00
00
88
88
88
98
68
08
08
08
0C
00
00
ENDCHAR

STARTCHAR uni10A2
ENCODING 4258
SWIDTH 497 0
DWIDTH 7 0
BBX 7 13 0 -2
BITMAP
00
F0
90
90
90
10
10
10
10
10
1C
04
04
ENDCHAR

STARTCHAR uni10A3
ENCODING 4259
SWIDTH 497 0
DWIDTH 7 0
BBX 7 13 0 -2
BITMAP
00
00
FC
30
48
84
84
84
84
84
78
00
00
ENDCHAR

STARTCHAR uni10A4
ENCODING 4260
SWIDTH 497 0
DWIDTH 7 0
BBX 7 13 0 -2
BITMAP
00
00
FC
84
84
04
04
04
04
04
04
00
00
ENDCHAR

STARTCHAR uni10A5
ENCODING 4261
SWIDTH 497 0
DWIDTH 7 0
BBX 7 13 0 -2
BITMAP
00
00
F0
90
90
1C
14
14
10
10
10
00
00
ENDCHAR

STARTCHAR uni10A6
ENCODING 4262
SWIDTH 497 0
DWIDTH 7 0
BBX 7 13 0 -2
BITMAP
00
00
C0
40
40
58
64
44
44
44
38
00
00
ENDCHAR

STARTCHAR uni10A7
ENCODING 4263
SWIDTH 497 0
DWIDTH 7 0
BBX 7 13 0 -2
BITMAP
00
00
30
50
90
9C
94
94
90
50
30
00
00
ENDCHAR

STARTCHAR uni10A8
ENCODING 4264
SWIDTH 497 0
DWIDTH 7 0
BBX 7 13 0 -2
BITMAP
00
00
FC
04
04
04
04
04
04
04
04
00
00
ENDCHAR

STARTCHAR uni10A9
ENCODING 4265
SWIDTH 497 0
DWIDTH 7 0
BBX 7 13 0 -2
BITMAP
00
00
80
80
B0
C8
84
4C
34
04
04
00
00
ENDCHAR

STARTCHAR uni10AA
ENCODING 4266
SWIDTH 497 0
DWIDTH 7 0
BBX 7 13 0 -2
BITMAP
00
00
E0
A0
A0
28
34
24
24
24
18
00
00
ENDCHAR

STARTCHAR uni10AB
ENCODING 4267
SWIDTH 497 0
DWIDTH 7 0
BBX 7 13 0 -2
BITMAP
00
00
F8
08
08
7C
88
88
88
88
70
00
00
ENDCHAR

STARTCHAR uni10AC
ENCODING 4268
SWIDTH 497 0
DWIDTH 7 0
BBX 7 13 0 -2
BITMAP
00
00
FC
80
80
80
FC
84
84
84
84
00
00
ENDCHAR

STARTCHAR uni10AD
ENCODING 4269
SWIDTH 497 0
DWIDTH 7 0
BBX 7 13 0 -2
BITMAP
00
00
60
90
90
90
90
90
90
94
6C
00
00
ENDCHAR

STARTCHAR uni10AE
ENCODING 4270
SWIDTH 497 0
DWIDTH 7 0
BBX 7 13 0 -2
BITMAP
00
00
C4
44
44
44
44
44
44
44
38
00
00
ENDCHAR

STARTCHAR uni10AF
ENCODING 4271
SWIDTH 497 0
DWIDTH 7 0
BBX 7 13 0 -2
BITMAP
00
00
C4
44
44
44
4C
34
04
04
04
00
00
ENDCHAR

STARTCHAR uni10B0
ENCODING 4272
SWIDTH 497 0
DWIDTH 7 0
BBX 7 13 0 -2
BITMAP
00
00
10
10
10
1C
14
94
90
90
60
00
00
ENDCHAR

STARTCHAR uni10B1
ENCODING 4273
SWIDTH 497 0
DWIDTH 7 0
BBX 7 13 0 -2
BITMAP
00
00
80
80
80
80
80
84
84
84
78
00
00
ENDCHAR

STARTCHAR uni10B2
ENCODING 4274
SWIDTH 497 0
DWIDTH 7 0
BBX 7 13 0 -2
BITMAP
00
00
F8
84
84
84
F8
80
80
80
FC
00
00
ENDCHAR

STARTCHAR uni10B3
ENCODING 4275
SWIDTH 497 0
DWIDTH 7 0
BBX 7 13 0 -2
BITMAP
00
60
90
90
90
90
90
90
98
94
64
00
00
ENDCHAR

STARTCHAR uni10B4
ENCODING 4276
SWIDTH 497 0
DWIDTH 7 0
BBX 7 13 0 -2
BITMAP
00
00
38
54
54
54
38
10
10
10
10
00
00
ENDCHAR

STARTCHAR uni10B5
ENCODING 4277
SWIDTH 497 0
DWIDTH 7 0
BBX 7 13 0 -2
BITMAP
00
00
10
50
50
7C
14
10
10
10
10
00
00
ENDCHAR

STARTCHAR uni10B6
ENCODING 4278
SWIDTH 497 0
DWIDTH 7 0
BBX 7 13 0 -2
BITMAP
00
00
78
84
84
84
84
84
84
84
84
00
00
ENDCHAR

STARTCHAR uni10B7
ENCODING 4279
SWIDTH 497 0
DWIDTH 7 0
BBX 7 13 0 -2
BITMAP
00
00
44
84
84
8C
74
04
04
04
04
00
00
ENDCHAR

STARTCHAR uni10B8
ENCODING 4280
SWIDTH 497 0
DWIDTH 7 0
BBX 7 13 0 -2
BITMAP
00
00
44
84
84
8C
74
04
84
84
78
00
00
ENDCHAR

STARTCHAR uni10B9
ENCODING 4281
SWIDTH 497 0
DWIDTH 7 0
BBX 7 13 0 -2
BITMAP
00
00
80
80
80
FC
84
84
84
84
84
00
00
ENDCHAR

STARTCHAR uni10BA
ENCODING 4282
SWIDTH 497 0
DWIDTH 7 0
BBX 7 13 0 -2
BITMAP
00
00
78
84
80
80
80
80
80
84
78
08
08
ENDCHAR

STARTCHAR uni10BB
ENCODING 4283
SWIDTH 497 0
DWIDTH 7 0
BBX 7 13 0 -2
BITMAP
00
00
10
10
10
7C
94
94
90
90
60
00
00
ENDCHAR

STARTCHAR uni10BC
ENCODING 4284
SWIDTH 497 0
DWIDTH 7 0
BBX 7 13 0 -2
BITMAP
00
00
F8
84
84
F8
80
F0
90
90
80
00
00
ENDCHAR

STARTCHAR uni10BD
ENCODING 4285
SWIDTH 497 0
DWIDTH 7 0
BBX 7 13 0 -2
BITMAP
00
00
78
84
80
80
78
04
04
84
78
00
00
ENDCHAR

STARTCHAR uni10BE
ENCODING 4286
SWIDTH 497 0
DWIDTH 7 0
BBX 7 13 0 -2
BITMAP
00
00
84
84
84
84
FC
80
80
80
FC
00
00
ENDCHAR

STARTCHAR uni10BF
ENCODING 4287
SWIDTH 497 0
DWIDTH 7 0
BBX 7 13 0 -2
BITMAP
00
00
FC
84
44
28
10
28
44
80
80
00
00
ENDCHAR

STARTCHAR uni10C0
ENCODING 4288
SWIDTH 497 0
DWIDTH 7 0
BBX 7 13 0 -2
BITMAP
00
00
E0
A0
A0
20
20
24
24
24
18
00
00
ENDCHAR

STARTCHAR uni10C1
ENCODING 4289
SWIDTH 497 0
DWIDTH 7 0
BBX 7 13 0 -2
BITMAP
00
00
80
80
80
F0
8C
80
80
80
80
00
00
ENDCHAR

STARTCHAR uni10C2
ENCODING 4290
SWIDTH 497 0
DWIDTH 7 0
BBX 7 13 0 -2
BITMAP
00
00
00
80
80
78
04
04
84
88
70
00
00
ENDCHAR

STARTCHAR uni10C3
ENCODING 4291
SWIDTH 497 0
DWIDTH 7 0
BBX 7 13 0 -2
BITMAP
00
00
04
44
84
8C
74
04
04
04
04
00
00
ENDCHAR

STARTCHAR uni10C4
ENCODING 4292
SWIDTH 497 0
DWIDTH 7 0
BBX 7 13 0 -2
BITMAP
00
00
44
44
44
44
38
10
10
10
10
00
00
ENDCHAR

STARTCHAR uni10C5
ENCODING 4293
SWIDTH 497 0
DWIDTH 7 0
BBX 7 13 0 -2
BITMAP
00
00
38
24
38
20
78
A4
A0
A0
40
00
00
ENDCHAR

STARTCHAR uni10D0
ENCODING 4304
SWIDTH 497 0
DWIDTH 7 0
BBX 7 13 0 -2
BITMAP
00
00
00
00
00
20
20
18
04
84
78
00
00
ENDCHAR

STARTCHAR uni10D1
ENCODING 4305
SWIDTH 497 0
DWIDTH 7 0
BBX 7 13 0 -2
BITMAP
00
00
20
30
10
10
38
44
44
44
38
00
00
ENDCHAR

STARTCHAR uni10D2
ENCODING 4306
SWIDTH 497 0
DWIDTH 7 0
BBX 7 13 0 -2
BITMAP
00
00
00
00
60
90
90
10
78
84
84
84
78
ENDCHAR

STARTCHAR uni10D3
ENCODING 4307
SWIDTH 497 0
DWIDTH 7 0
BBX 7 13 0 -2
BITMAP
00
00
00
00
00
00
78
A4
A4
98
80
70
08
ENDCHAR

STARTCHAR uni10D4
ENCODING 4308
SWIDTH 497 0
DWIDTH 7 0
BBX 7 13 0 -2
BITMAP
00
00
00
00
78
84
84
04
04
04
84
84
78
ENDCHAR

STARTCHAR uni10D5
ENCODING 4309
SWIDTH 497 0
DWIDTH 7 0
BBX 7 13 0 -2
BITMAP
00
00
00
00
78
84
84
38
04
04
84
84
78
ENDCHAR

STARTCHAR uni10D6
ENCODING 4310
SWIDTH 497 0
DWIDTH 7 0
BBX 7 13 0 -2
BITMAP
00
00
40
A0
A8
70
38
24
24
24
18
00
00
ENDCHAR

STARTCHAR uni10D7
ENCODING 4311
SWIDTH 497 0
DWIDTH 7 0
BBX 7 13 0 -2
BITMAP
00
00
00
00
00
00
68
94
94
94
64
00
00
ENDCHAR

STARTCHAR uni10D8
ENCODING 4312
SWIDTH 497 0
DWIDTH 7 0
BBX 7 13 0 -2
BITMAP
00
00
00
00
00
00
78
84
84
84
48
00
00
ENDCHAR

STARTCHAR uni10D9
ENCODING 4313
SWIDTH 497 0
DWIDTH 7 0
BBX 7 13 0 -2
BITMAP
00
00
00
00
18
04
04
38
04
04
84
84
78
ENDCHAR

STARTCHAR uni10DA
ENCODING 4314
SWIDTH 497 0
DWIDTH 7 0
BBX 7 13 0 -2
BITMAP
00
00
00
00
00
00
58
B4
B4
84
80
70
08
ENDCHAR

STARTCHAR uni10DB
ENCODING 4315
SWIDTH 497 0
DWIDTH 7 0
BBX 7 13 0 -2
BITMAP
00
00
78
84
84
04
7C
84
84
84
78
00
00
ENDCHAR

STARTCHAR uni10DC
ENCODING 4316
SWIDTH 497 0
DWIDTH 7 0
BBX 7 13 0 -2
BITMAP
00
00
7C
80
80
80
F8
84
84
84
78
00
00
ENDCHAR

STARTCHAR uni10DD
ENCODING 4317
SWIDTH 497 0
DWIDTH 7 0
BBX 7 13 0 -2
BITMAP
00
00
00
00
00
00
28
54
54
54
44
00
00
ENDCHAR

STARTCHAR uni10DE
ENCODING 4318
SWIDTH 497 0
DWIDTH 7 0
BBX 7 13 0 -2
BITMAP
00
00
20
18
04
04
38
04
84
84
78
00
00
ENDCHAR

STARTCHAR uni10DF
ENCODING 4319
SWIDTH 497 0
DWIDTH 7 0
BBX 7 13 0 -2
BITMAP
00
00
00
00
00
0C
14
A4
A4
44
04
44
38
ENDCHAR

STARTCHAR uni10E0
ENCODING 4320
SWIDTH 497 0
DWIDTH 7 0
BBX 7 13 0 -2
BITMAP
00
00
00
04
38
40
68
54
54
54
44
00
00
ENDCHAR

STARTCHAR uni10E1
ENCODING 4321
SWIDTH 497 0
DWIDTH 7 0
BBX 7 13 0 -2
BITMAP
00
00
40
40
40
48
50
48
44
44
38
00
00
ENDCHAR

STARTCHAR uni10E2
ENCODING 4322
SWIDTH 497 0
DWIDTH 7 0
BBX 7 13 0 -2
BITMAP
00
00
30
48
48
78
CC
CC
B4
84
84
84
78
ENDCHAR

STARTCHAR uni10E3
ENCODING 4323
SWIDTH 497 0
DWIDTH 7 0
BBX 7 13 0 -2
BITMAP
00
00
00
00
D8
24
24
04
04
04
44
44
38
ENDCHAR

STARTCHAR uni10E4
ENCODING 4324
SWIDTH 497 0
DWIDTH 7 0
BBX 7 13 0 -2
BITMAP
00
00
00
00
00
00
68
94
94
68
04
24
18
ENDCHAR

STARTCHAR uni10E5
ENCODING 4325
SWIDTH 497 0
DWIDTH 7 0
BBX 7 13 0 -2
BITMAP
00
00
04
0C
04
04
1C
24
04
04
04
44
38
ENDCHAR

STARTCHAR uni10E6
ENCODING 4326
SWIDTH 497 0
DWIDTH 7 0
BBX 7 13 0 -2
BITMAP
00
00
00
00
00
00
28
54
54
44
40
38
04
ENDCHAR

STARTCHAR uni10E7
ENCODING 4327
SWIDTH 497 0
DWIDTH 7 0
BBX 7 13 0 -2
BITMAP
00
00
00
00
00
00
44
84
8C
74
04
84
78
ENDCHAR

STARTCHAR uni10E8
ENCODING 4328
SWIDTH 497 0
DWIDTH 7 0
BBX 7 13 0 -2
BITMAP
00
00
28
54
54
54
44
1C
24
24
18
00
00
ENDCHAR

STARTCHAR uni10E9
ENCODING 4329
SWIDTH 497 0
DWIDTH 7 0
BBX 7 13 0 -2
BITMAP
00
00
60
90
90
E0
80
B8
C4
84
84
00
00
ENDCHAR

STARTCHAR uni10EA
ENCODING 4330
SWIDTH 497 0
DWIDTH 7 0
BBX 7 13 0 -2
BITMAP
00
00
00
00
98
84
84
B8
84
84
84
84
78
ENDCHAR

STARTCHAR uni10EB
ENCODING 4331
SWIDTH 497 0
DWIDTH 7 0
BBX 7 13 0 -2
BITMAP
00
00
18
04
04
04
7C
84
84
84
78
00
00
ENDCHAR

STARTCHAR uni10EC
ENCODING 4332
SWIDTH 497 0
DWIDTH 7 0
BBX 7 13 0 -2
BITMAP
00
00
28
54
54
40
40
7C
44
28
28
10
10
ENDCHAR

STARTCHAR uni10ED
ENCODING 4333
SWIDTH 497 0
DWIDTH 7 0
BBX 7 13 0 -2
BITMAP
00
00
10
30
50
10
54
B8
54
10
10
90
60
ENDCHAR

STARTCHAR uni10EE
ENCODING 4334
SWIDTH 497 0
DWIDTH 7 0
BBX 7 13 0 -2
BITMAP
00
00
40
40
48
50
78
44
44
44
38
00
00
ENDCHAR

STARTCHAR uni10EF
ENCODING 4335
SWIDTH 497 0
DWIDTH 7 0
BBX 7 13 0 -2
BITMAP
00
00
00
00
00
00
44
28
10
28
44
20
40
ENDCHAR

STARTCHAR uni10F0
ENCODING 4336
SWIDTH 497 0
DWIDTH 7 0
BBX 7 13 0 -2
BITMAP
00
40
38
04
38
04
04
38
84
84
78
00
00
ENDCHAR

STARTCHAR uni10F1
ENCODING 4337
SWIDTH 497 0
DWIDTH 7 0
BBX 7 13 0 -2
BITMAP
00
B0
88
84
B8
84
84
B8
84
84
78
00
00
ENDCHAR

STARTCHAR uni10F2
ENCODING 4338
SWIDTH 497 0
DWIDTH 7 0
BBX 7 13 0 -2
BITMAP
00
00
00
00
00
78
84
84
84
48
FC
00
00
ENDCHAR

STARTCHAR uni10F3
ENCODING 4339
SWIDTH 497 0
DWIDTH 7 0
BBX 7 13 0 -2
BITMAP
00
00
00
00
00
FC
08
10
38
04
04
84
78
ENDCHAR

STARTCHAR uni10F4
ENCODING 4340
SWIDTH 497 0
DWIDTH 7 0
BBX 7 13 0 -2
BITMAP
00
00
20
40
38
04
04
38
04
04
84
84
78
ENDCHAR

STARTCHAR uni10F5
ENCODING 4341
SWIDTH 497 0
DWIDTH 7 0
BBX 7 13 0 -2
BITMAP
00
00
70
88
88
7C
08
7C
88
88
70
00
00
ENDCHAR

STARTCHAR uni10F6
ENCODING 4342
SWIDTH 497 0
DWIDTH 7 0
BBX 7 13 0 -2
BITMAP
00
00
00
20
10
10
38
54
54
38
10
10
08
ENDCHAR

STARTCHAR uni10FB
ENCODING 4347
SWIDTH 497 0
DWIDTH 7 0
BBX 7 13 0 -2
BITMAP
00
00
00
00
60
60
0C
0C
60
60
00
00
00
ENDCHAR

STARTCHAR uni16A0
ENCODING 5792
SWIDTH 497 0
DWIDTH 7 0
BBX 7 13 0 -2
BITMAP
00
00
24
28
34
28
30
20
20
20
20
00
00
ENDCHAR

STARTCHAR uni16A2
ENCODING 5794
SWIDTH 497 0
DWIDTH 7 0
BBX 7 13 0 -2
BITMAP
00
00
70
48
48
44
44
44
44
44
44
00
00
ENDCHAR

STARTCHAR uni16A3
ENCODING 5795
SWIDTH 497 0
DWIDTH 7 0
BBX 7 13 0 -2
BITMAP
00
00
10
28
44
44
54
54
54
54
54
00
00
ENDCHAR

STARTCHAR uni16A6
ENCODING 5798
SWIDTH 497 0
DWIDTH 7 0
BBX 7 13 0 -2
BITMAP
00
00
20
20
30
28
24
28
30
20
20
00
00
ENDCHAR

STARTCHAR uni16A9
ENCODING 5801
SWIDTH 497 0
DWIDTH 7 0
BBX 7 13 0 -2
BITMAP
00
00
44
68
54
68
50
40
40
40
40
00
00
ENDCHAR

STARTCHAR uni16AA
ENCODING 5802
SWIDTH 497 0
DWIDTH 7 0
BBX 7 13 0 -2
BITMAP
00
00
44
68
50
40
60
50
48
40
40
00
00
ENDCHAR

STARTCHAR uni16AB
ENCODING 5803
SWIDTH 497 0
DWIDTH 7 0
BBX 7 13 0 -2
BITMAP
00
00
30
28
34
28
24
20
20
20
20
00
00
ENDCHAR

STARTCHAR uni16B1
ENCODING 5809
SWIDTH 497 0
DWIDTH 7 0
BBX 7 13 0 -2
BITMAP
00
00
60
50
48
50
60
50
48
44
40
00
00
ENDCHAR

STARTCHAR uni16B3
ENCODING 5811
SWIDTH 497 0
DWIDTH 7 0
BBX 7 13 0 -2
BITMAP
00
00
40
40
70
48
48
44
44
44
44
00
00
ENDCHAR

STARTCHAR uni16B7
ENCODING 5815
SWIDTH 497 0
DWIDTH 7 0
BBX 7 13 0 -2
BITMAP
00
00
44
44
28
28
10
28
28
44
44
00
00
ENDCHAR

STARTCHAR uni16B8
ENCODING 5816
SWIDTH 497 0
DWIDTH 7 0
BBX 7 13 0 -2
BITMAP
00
00
44
44
38
28
54
28
38
44
44
00
00
ENDCHAR

STARTCHAR uni16B9
ENCODING 5817
SWIDTH 497 0
DWIDTH 7 0
BBX 7 13 0 -2
BITMAP
00
00
30
28
24
28
30
20
20
20
20
00
00
ENDCHAR

STARTCHAR uni16BB
ENCODING 5819
SWIDTH 497 0
DWIDTH 7 0
BBX 7 13 0 -2
BITMAP
00
00
44
44
44
64
54
6C
54
4C
44
00
00
ENDCHAR

STARTCHAR uni16BE
ENCODING 5822
SWIDTH 497 0
DWIDTH 7 0
BBX 7 13 0 -2
BITMAP
00
00
10
10
50
30
10
18
14
10
10
00
00
ENDCHAR

STARTCHAR uni16C1
ENCODING 5825
SWIDTH 497 0
DWIDTH 7 0
BBX 7 13 0 -2
BITMAP
00
00
10
10
10
10
10
10
10
10
10
00
00
ENDCHAR

STARTCHAR uni16C4
ENCODING 5828
SWIDTH 497 0
DWIDTH 7 0
BBX 7 13 0 -2
BITMAP
00
00
10
10
38
54
54
54
38
10
10
00
00
ENDCHAR

STARTCHAR uni16C7
ENCODING 5831
SWIDTH 497 0
DWIDTH 7 0
BBX 7 13 0 -2
BITMAP
00
00
10
18
14
10
10
10
50
30
10
00
00
ENDCHAR

STARTCHAR uni16C8
ENCODING 5832
SWIDTH 497 0
DWIDTH 7 0
BBX 7 13 0 -2
BITMAP
00
00
44
68
50
40
40
40
50
68
44
00
00
ENDCHAR

STARTCHAR uni16C9
ENCODING 5833
SWIDTH 497 0
DWIDTH 7 0
BBX 7 13 0 -2
BITMAP
00
00
54
54
54
38
10
10
10
10
10
00
00
ENDCHAR

STARTCHAR uni16CB
ENCODING 5835
SWIDTH 497 0
DWIDTH 7 0
BBX 7 13 0 -2
BITMAP
00
00
40
40
44
4C
54
64
44
04
04
00
00
ENDCHAR

STARTCHAR uni16CF
ENCODING 5839
SWIDTH 497 0
DWIDTH 7 0
BBX 7 13 0 -2
BITMAP
00
00
10
38
54
10
10
10
10
10
10
00
00
ENDCHAR

STARTCHAR uni16D2
ENCODING 5842
SWIDTH 497 0
DWIDTH 7 0
BBX 7 13 0 -2
BITMAP
00
00
60
50
48
50
60
50
48
50
60
00
00
ENDCHAR

STARTCHAR uni16D6
ENCODING 5846
SWIDTH 497 0
DWIDTH 7 0
BBX 7 13 0 -2
BITMAP
00
00
44
6C
54
44
44
44
44
44
44
00
00
ENDCHAR

STARTCHAR uni16D7
ENCODING 5847
SWIDTH 497 0
DWIDTH 7 0
BBX 7 13 0 -2
BITMAP
00
00
44
6C
54
6C
44
44
44
44
44
00
00
ENDCHAR

STARTCHAR uni16DA
ENCODING 5850
SWIDTH 497 0
DWIDTH 7 0
BBX 7 13 0 -2
BITMAP
00
00
20
30
28
24
20
20
20
20
20
00
00
ENDCHAR

STARTCHAR uni16DD
ENCODING 5853
SWIDTH 497 0
DWIDTH 7 0
BBX 7 13 0 -2
BITMAP
00
00
44
28
10
28
44
28
10
28
44
00
00
ENDCHAR

STARTCHAR uni16DE
ENCODING 5854
SWIDTH 497 0
DWIDTH 7 0
BBX 7 13 0 -2
BITMAP
00
00
44
44
44
6C
54
6C
44
44
44
00
00
ENDCHAR

STARTCHAR uni16DF
ENCODING 5855
SWIDTH 497 0
DWIDTH 7 0
BBX 7 13 0 -2
BITMAP
00
00
10
28
44
28
10
28
44
44
44
00
00
ENDCHAR

STARTCHAR uni16E0
ENCODING 5856
SWIDTH 497 0
DWIDTH 7 0
BBX 7 13 0 -2
BITMAP
00
00
54
38
10
10
10
10
10
10
10
00
00
ENDCHAR

STARTCHAR uni16E1
ENCODING 5857
SWIDTH 497 0
DWIDTH 7 0
BBX 7 13 0 -2
BITMAP
00
00
54
38
10
38
54
10
10
10
10
00
00
ENDCHAR

STARTCHAR uni16E2
ENCODING 5858
SWIDTH 497 0
DWIDTH 7 0
BBX 7 13 0 -2
BITMAP
00
00
10
10
10
10
38
54
54
54
54
00
00
ENDCHAR

STARTCHAR uni16E5
ENCODING 5861
SWIDTH 497 0
DWIDTH 7 0
BBX 7 13 0 -2
BITMAP
00
00
44
6C
54
44
44
44
54
6C
44
00
00
ENDCHAR

STARTCHAR uni16EB
ENCODING 5867
SWIDTH 497 0
DWIDTH 7 0
BBX 7 13 0 -2
BITMAP
00
00
00
00
00
00
10
00
00
00
00
00
00
ENDCHAR

STARTCHAR uni16EC
ENCODING 5868
SWIDTH 497 0
DWIDTH 7 0
BBX 7 13 0 -2
BITMAP
00
00
00
00
00
10
00
10
00
00
00
00
00
ENDCHAR

STARTCHAR uni16ED
ENCODING 5869
SWIDTH 497 0
DWIDTH 7 0
BBX 7 13 0 -2
BITMAP
00
00
00
00
00
28
10
28
00
00
00
00
00
ENDCHAR

STARTCHAR uni1E00
ENCODING 7680
SWIDTH 497 0
DWIDTH 7 0
BBX 7 13 0 -2
BITMAP
00
00
30
48
84
84
84
FC
84
84
30
48
30
ENDCHAR

STARTCHAR uni1E01
ENCODING 7681
SWIDTH 497 0
DWIDTH 7 0
BBX 7 13 0 -2
BITMAP
00
00
00
00
78
04
7C
84
8C
74
30
48
30
ENDCHAR

STARTCHAR uni1E02
ENCODING 7682
SWIDTH 497 0
DWIDTH 7 0
BBX 7 13 0 -2
BITMAP
00
30
00
F8
44
44
78
44
44
44
F8
00
00
ENDCHAR

STARTCHAR uni1E03
ENCODING 7683
SWIDTH 497 0
DWIDTH 7 0
BBX 7 13 0 -2
BITMAP
00
18
80
80
80
B8
C4
84
84
C4
B8
00
00
ENDCHAR

STARTCHAR uni1E04
ENCODING 7684
SWIDTH 497 0
DWIDTH 7 0
BBX 7 13 0 -2
BITMAP
00
00
F8
44
44
44
78
44
44
44
F8
00
30
ENDCHAR

STARTCHAR uni1E05
ENCODING 7685
SWIDTH 497 0
DWIDTH 7 0
BBX 7 13 0 -2
BITMAP
00
00
80
80
80
B8
C4
84
84
C4
B8
00
30
ENDCHAR

STARTCHAR uni1E06
ENCODING 7686
SWIDTH 497 0
DWIDTH 7 0
BBX 7 13 0 -2
BITMAP
00
00
F8
44
44
44
78
44
44
44
F8
00
78
ENDCHAR

STARTCHAR uni1E07
ENCODING 7687
SWIDTH 497 0
DWIDTH 7 0
BBX 7 13 0 -2
BITMAP
00
00
80
80
80
B8
C4
84
84
C4
B8
00
78
ENDCHAR

STARTCHAR uni1E08
ENCODING 7688
SWIDTH 497 0
DWIDTH 7 0
BBX 7 13 0 -2
BITMAP
10
20
00
78
84
80
80
80
80
84
78
10
20
ENDCHAR

STARTCHAR uni1E09
ENCODING 7689
SWIDTH 497 0
DWIDTH 7 0
BBX 7 13 0 -2
BITMAP
00
00
10
20
00
78
84
80
80
84
78
10
20
ENDCHAR

STARTCHAR uni1E0A
ENCODING 7690
SWIDTH 497 0
DWIDTH 7 0
BBX 7 13 0 -2
BITMAP
00
30
00
F8
44
44
44
44
44
44
F8
00
00
ENDCHAR

STARTCHAR uni1E0B
ENCODING 7691
SWIDTH 497 0
DWIDTH 7 0
BBX 7 13 0 -2
BITMAP
00
60
04
04
04
74
8C
84
84
8C
74
00
00
ENDCHAR

STARTCHAR uni1E0C
ENCODING 7692
SWIDTH 497 0
DWIDTH 7 0
BBX 7 13 0 -2
BITMAP
00
00
F8
44
44
44
44
44
44
44
F8
00
30
ENDCHAR

STARTCHAR uni1E0D
ENCODING 7693
SWIDTH 497 0
DWIDTH 7 0
BBX 7 13 0 -2
BITMAP
00
00
04
04
04
74
8C
84
84
8C
74
00
30
ENDCHAR

STARTCHAR uni1E0E
ENCODING 7694
SWIDTH 497 0
DWIDTH 7 0
BBX 7 13 0 -2
BITMAP
00
00
F8
44
44
44
44
44
44
44
F8
00
78
ENDCHAR

STARTCHAR uni1E0F
ENCODING 7695
SWIDTH 497 0
DWIDTH 7 0
BBX 7 13 0 -2
BITMAP
00
00
04
04
04
74
8C
84
84
8C
74
00
78
ENDCHAR

STARTCHAR uni1E10
ENCODING 7696
SWIDTH 497 0
DWIDTH 7 0
BBX 7 13 0 -2
BITMAP
00
00
F8
44
44
44
44
44
44
44
F8
10
20
ENDCHAR

STARTCHAR uni1E11
ENCODING 7697
SWIDTH 497 0
DWIDTH 7 0
BBX 7 13 0 -2
BITMAP
00
00
04
04
04
74
8C
84
84
8C
74
10
20
ENDCHAR

STARTCHAR uni1E12
ENCODING 7698
SWIDTH 497 0
DWIDTH 7 0
BBX 7 13 0 -2
BITMAP
00
00
F8
44
44
44
44
44
44
F8
00
30
48
ENDCHAR

STARTCHAR uni1E13
ENCODING 7699
SWIDTH 497 0
DWIDTH 7 0
BBX 7 13 0 -2
BITMAP
00
00
04
04
74
8C
84
84
8C
74
00
30
48
ENDCHAR

STARTCHAR uni1E14
ENCODING 7700
SWIDTH 497 0
DWIDTH 7 0
BBX 7 13 0 -2
BITMAP
20
10
78
00
FC
80
80
F0
80
80
FC
00
00
ENDCHAR

STARTCHAR uni1E15
ENCODING 7701
SWIDTH 497 0
DWIDTH 7 0
BBX 7 13 0 -2
BITMAP
00
20
10
78
00
78
84
FC
80
84
78
00
00
ENDCHAR

STARTCHAR uni1E16
ENCODING 7702
SWIDTH 497 0
DWIDTH 7 0
BBX 7 13 0 -2
BITMAP
10
20
78
00
FC
80
80
F0
80
80
FC
00
00
ENDCHAR

STARTCHAR uni1E17
ENCODING 7703
SWIDTH 497 0
DWIDTH 7 0
BBX 7 13 0 -2
BITMAP
00
10
20
78
00
78
84
FC
80
84
78
00
00
ENDCHAR

STARTCHAR uni1E18
ENCODING 7704
SWIDTH 497 0
DWIDTH 7 0
BBX 7 13 0 -2
BITMAP
00
00
FC
80
80
F0
80
80
80
FC
00
30
48
ENDCHAR

STARTCHAR uni1E19
ENCODING 7705
SWIDTH 497 0
DWIDTH 7 0
BBX 7 13 0 -2
BITMAP
00
00
00
00
78
84
FC
80
84
78
00
30
48
ENDCHAR

STARTCHAR uni1E1A
ENCODING 7706
SWIDTH 497 0
DWIDTH 7 0
BBX 7 13 0 -2
BITMAP
00
00
FC
80
80
F0
80
80
80
FC
00
64
98
ENDCHAR

STARTCHAR uni1E1B
ENCODING 7707
SWIDTH 497 0
DWIDTH 7 0
BBX 7 13 0 -2
BITMAP
00
00
00
00
78
84
FC
80
84
78
00
64
98
ENDCHAR

STARTCHAR uni1E1C
ENCODING 7708
SWIDTH 497 0
DWIDTH 7 0
BBX 7 13 0 -2
BITMAP
00
84
78
00
FC
80
80
F0
80
80
FC
10
20
ENDCHAR

STARTCHAR uni1E1D
ENCODING 7709
SWIDTH 497 0
DWIDTH 7 0
BBX 7 13 0 -2
BITMAP
00
00
84
78
00
78
84
FC
80
84
78
10
20
ENDCHAR

STARTCHAR uni1E1E
ENCODING 7710
SWIDTH 497 0
DWIDTH 7 0
BBX 7 13 0 -2
BITMAP
00
30
00
FC
80
80
F0
80
80
80
80
00
00
ENDCHAR

STARTCHAR uni1E1F
ENCODING 7711
SWIDTH 497 0
DWIDTH 7 0
BBX 7 13 0 -2
BITMAP
00
30
00
38
44
40
40
F0
40
40
40
00
00
ENDCHAR

STARTCHAR uni1E20
ENCODING 7712
SWIDTH 497 0
DWIDTH 7 0
BBX 7 13 0 -2
BITMAP
00
78
00
78
84
80
80
9C
84
8C
74
00
00
ENDCHAR

STARTCHAR uni1E21
ENCODING 7713
SWIDTH 497 0
DWIDTH 7 0
BBX 7 13 0 -2
BITMAP
00
00
00
78
00
74
88
88
70
80
78
84
78
ENDCHAR

STARTCHAR uni1E22
ENCODING 7714
SWIDTH 497 0
DWIDTH 7 0
BBX 7 13 0 -2
BITMAP
00
30
00
84
84
84
FC
84
84
84
84
00
00
ENDCHAR

STARTCHAR uni1E23
ENCODING 7715
SWIDTH 497 0
DWIDTH 7 0
BBX 7 13 0 -2
BITMAP
00
18
80
80
80
B8
C4
84
84
84
84
00
00
ENDCHAR

STARTCHAR uni1E24
ENCODING 7716
SWIDTH 497 0
DWIDTH 7 0
BBX 7 13 0 -2
BITMAP
00
00
84
84
84
84
FC
84
84
84
84
00
30
ENDCHAR

STARTCHAR uni1E25
ENCODING 7717
SWIDTH 497 0
DWIDTH 7 0
BBX 7 13 0 -2
BITMAP
00
00
80
80
80
B8
C4
84
84
84
84
00
30
ENDCHAR

STARTCHAR uni1E26
ENCODING 7718
SWIDTH 497 0
DWIDTH 7 0
BBX 7 13 0 -2
BITMAP
00
48
48
00
84
84
84
FC
84
84
84
00
00
ENDCHAR

STARTCHAR uni1E27
ENCODING 7719
SWIDTH 497 0
DWIDTH 7 0
BBX 7 13 0 -2
BITMAP
00
48
48
00
80
80
B8
C4
84
84
84
00
00
ENDCHAR

STARTCHAR uni1E28
ENCODING 7720
SWIDTH 497 0
DWIDTH 7 0
BBX 7 13 0 -2
BITMAP
00
00
84
84
84
84
FC
84
84
84
84
08
10
ENDCHAR

STARTCHAR uni1E29
ENCODING 7721
SWIDTH 497 0
DWIDTH 7 0
BBX 7 13 0 -2
BITMAP
00
00
80
80
80
B8
C4
84
84
84
84
08
10
ENDCHAR

STARTCHAR uni1E2A
ENCODING 7722
SWIDTH 497 0
DWIDTH 7 0
BBX 7 13 0 -2
BITMAP
00
00
84
84
84
FC
84
84
84
84
00
84
78
ENDCHAR

STARTCHAR uni1E2B
ENCODING 7723
SWIDTH 497 0
DWIDTH 7 0
BBX 7 13 0 -2
BITMAP
00
00
80
80
80
B8
C4
84
84
84
00
84
78
ENDCHAR

STARTCHAR uni1E2C
ENCODING 7724
SWIDTH 497 0
DWIDTH 7 0
BBX 7 13 0 -2
BITMAP
00
00
F8
20
20
20
20
20
20
F8
00
64
98
ENDCHAR

STARTCHAR uni1E2D
ENCODING 7725
SWIDTH 497 0
DWIDTH 7 0
BBX 7 13 0 -2
BITMAP
00
00
00
20
00
60
20
20
20
F8
00
64
98
ENDCHAR

STARTCHAR uni1E2E
ENCODING 7726
SWIDTH 497 0
DWIDTH 7 0
BBX 7 13 0 -2
BITMAP
08
10
44
00
7C
10
10
10
10
10
7C
00
00
ENDCHAR

STARTCHAR uni1E2F
ENCODING 7727
SWIDTH 497 0
DWIDTH 7 0
BBX 7 13 0 -2
BITMAP
08
10
00
44
00
30
10
10
10
10
7C
00
00
ENDCHAR

STARTCHAR uni1E30
ENCODING 7728
SWIDTH 497 0
DWIDTH 7 0
BBX 7 13 0 -2
BITMAP
00
10
20
88
90
A0
C0
A0
90
88
84
00
00
ENDCHAR

STARTCHAR uni1E31
ENCODING 7729
SWIDTH 497 0
DWIDTH 7 0
BBX 7 13 0 -2
BITMAP
00
08
90
80
80
88
90
E0
90
88
84
00
00
ENDCHAR

STARTCHAR uni1E32
ENCODING 7730
SWIDTH 497 0
DWIDTH 7 0
BBX 7 13 0 -2
BITMAP
00
00
84
88
90
A0
C0
A0
90
88
84
00
30
ENDCHAR

STARTCHAR uni1E33
ENCODING 7731
SWIDTH 497 0
DWIDTH 7 0
BBX 7 13 0 -2
BITMAP
00
00
80
80
80
88
90
E0
90
88
84
00
30
ENDCHAR

STARTCHAR uni1E34
ENCODING 7732
SWIDTH 497 0
DWIDTH 7 0
BBX 7 13 0 -2
BITMAP
00
00
84
88
90
A0
C0
A0
90
88
84
00
78
ENDCHAR

STARTCHAR uni1E35
ENCODING 7733
SWIDTH 497 0
DWIDTH 7 0
BBX 7 13 0 -2
BITMAP
00
00
80
80
80
88
90
E0
90
88
84
00
78
ENDCHAR

STARTCHAR uni1E36
ENCODING 7734
SWIDTH 497 0
DWIDTH 7 0
BBX 7 13 0 -2
BITMAP
00
00
80
80
80
80
80
80
80
80
FC
00
30
ENDCHAR

STARTCHAR uni1E37
ENCODING 7735
SWIDTH 497 0
DWIDTH 7 0
BBX 7 13 0 -2
BITMAP
00
00
30
10
10
10
10
10
10
10
7C
00
18
ENDCHAR

STARTCHAR uni1E38
ENCODING 7736
SWIDTH 497 0
DWIDTH 7 0
BBX 7 13 0 -2
BITMAP
00
78
00
80
80
80
80
80
80
80
FC
00
30
ENDCHAR

STARTCHAR uni1E39
ENCODING 7737
SWIDTH 497 0
DWIDTH 7 0
BBX 7 13 0 -2
BITMAP
00
78
00
30
10
10
10
10
10
10
7C
00
18
ENDCHAR

STARTCHAR uni1E3A
ENCODING 7738
SWIDTH 497 0
DWIDTH 7 0
BBX 7 13 0 -2
BITMAP
00
00
80
80
80
80
80
80
80
80
FC
00
78
ENDCHAR

STARTCHAR uni1E3B
ENCODING 7739
SWIDTH 497 0
DWIDTH 7 0
BBX 7 13 0 -2
BITMAP
00
00
30
10
10
10
10
10
10
10
7C
00
7C
ENDCHAR

STARTCHAR uni1E3C
ENCODING 7740
SWIDTH 497 0
DWIDTH 7 0
BBX 7 13 0 -2
BITMAP
00
00
80
80
80
80
80
80
80
FC
00
30
48
ENDCHAR

STARTCHAR uni1E3D
ENCODING 7741
SWIDTH 497 0
DWIDTH 7 0
BBX 7 13 0 -2
BITMAP
00
00
30
10
10
10
10
10
10
7C
00
18
24
ENDCHAR

STARTCHAR uni1E3E
ENCODING 7742
SWIDTH 497 0
DWIDTH 7 0
BBX 7 13 0 -2
BITMAP
00
10
20
84
CC
CC
B4
B4
84
84
84
00
00
ENDCHAR

STARTCHAR uni1E3F
ENCODING 7743
SWIDTH 497 0
DWIDTH 7 0
BBX 7 13 0 -2
BITMAP
00
00
08
10
00
68
54
54
54
54
44
00
00
ENDCHAR

STARTCHAR uni1E40
ENCODING 7744
SWIDTH 497 0
DWIDTH 7 0
BBX 7 13 0 -2
BITMAP
00
30
00
84
CC
CC
B4
B4
84
84
84
00
00
ENDCHAR

STARTCHAR uni1E41
ENCODING 7745
SWIDTH 497 0
DWIDTH 7 0
BBX 7 13 0 -2
BITMAP
00
00
00
30
00
68
54
54
54
54
44
00
00
ENDCHAR

STARTCHAR uni1E42
ENCODING 7746
SWIDTH 497 0
DWIDTH 7 0
BBX 7 13 0 -2
BITMAP
00
00
84
CC
CC
B4
B4
84
84
84
84
00
30
ENDCHAR

STARTCHAR uni1E43
ENCODING 7747
SWIDTH 497 0
DWIDTH 7 0
BBX 7 13 0 -2
BITMAP
00
00
00
00
00
68
54
54
54
54
44
00
30
ENDCHAR

STARTCHAR uni1E44
ENCODING 7748
SWIDTH 497 0
DWIDTH 7 0
BBX 7 13 0 -2
BITMAP
00
30
00
84
84
C4
A4
94
8C
84
84
00
00
ENDCHAR

STARTCHAR uni1E45
ENCODING 7749
SWIDTH 497 0
DWIDTH 7 0
BBX 7 13 0 -2
BITMAP
00
00
00
30
00
B8
C4
84
84
84
84
00
00
ENDCHAR

STARTCHAR uni1E46
ENCODING 7750
SWIDTH 497 0
DWIDTH 7 0
BBX 7 13 0 -2
BITMAP
00
00
84
84
C4
A4
94
8C
84
84
84
00
30
ENDCHAR

STARTCHAR uni1E47
ENCODING 7751
SWIDTH 497 0
DWIDTH 7 0
BBX 7 13 0 -2
BITMAP
00
00
00
00
00
B8
C4
84
84
84
84
00
30
ENDCHAR

STARTCHAR uni1E48
ENCODING 7752
SWIDTH 497 0
DWIDTH 7 0
BBX 7 13 0 -2
BITMAP
00
00
84
84
C4
A4
94
8C
84
84
84
00
78
ENDCHAR

STARTCHAR uni1E49
ENCODING 7753
SWIDTH 497 0
DWIDTH 7 0
BBX 7 13 0 -2
BITMAP
00
00
00
00
00
B8
C4
84
84
84
84
00
78
ENDCHAR

STARTCHAR uni1E4A
ENCODING 7754
SWIDTH 497 0
DWIDTH 7 0
BBX 7 13 0 -2
BITMAP
00
00
84
84
C4
A4
94
8C
84
84
00
30
48
ENDCHAR

STARTCHAR uni1E4B
ENCODING 7755
SWIDTH 497 0
DWIDTH 7 0
BBX 7 13 0 -2
BITMAP
00
00
00
00
00
B8
C4
84
84
84
00
30
48
ENDCHAR

STARTCHAR uni1E4C
ENCODING 7756
SWIDTH 497 0
DWIDTH 7 0
BBX 7 13 0 -2
BITMAP
08
10
64
98
00
78
84
84
84
84
78
00
00
ENDCHAR

STARTCHAR uni1E4D
ENCODING 7757
SWIDTH 497 0
DWIDTH 7 0
BBX 7 13 0 -2
BITMAP
00
08
10
64
98
00
38
44
44
44
38
00
00
ENDCHAR

STARTCHAR uni1E4E
ENCODING 7758
SWIDTH 497 0
DWIDTH 7 0
BBX 7 13 0 -2
BITMAP
48
00
64
98
00
78
84
84
84
84
78
00
00
ENDCHAR

STARTCHAR uni1E4F
ENCODING 7759
SWIDTH 497 0
DWIDTH 7 0
BBX 7 13 0 -2
BITMAP
00
48
00
64
98
00
38
44
44
44
38
00
00
ENDCHAR

STARTCHAR uni1E50
ENCODING 7760
SWIDTH 497 0
DWIDTH 7 0
BBX 7 13 0 -2
BITMAP
10
20
78
00
78
84
84
84
84
84
78
00
00
ENDCHAR

STARTCHAR uni1E51
ENCODING 7761
SWIDTH 497 0
DWIDTH 7 0
BBX 7 13 0 -2
BITMAP
00
00
20
10
78
00
78
84
84
84
78
00
00
ENDCHAR

STARTCHAR uni1E52
ENCODING 7762
SWIDTH 497 0
DWIDTH 7 0
BBX 7 13 0 -2
BITMAP
20
10
78
00
78
84
84
84
84
84
78
00
00
ENDCHAR

STARTCHAR uni1E53
ENCODING 7763
SWIDTH 497 0
DWIDTH 7 0
BBX 7 13 0 -2
BITMAP
00
00
10
20
78
00
78
84
84
84
78
00
00
ENDCHAR

STARTCHAR uni1E54
ENCODING 7764
SWIDTH 497 0
DWIDTH 7 0
BBX 7 13 0 -2
BITMAP
00
10
20
00
F8
84
84
F8
80
80
80
00
00
ENDCHAR

STARTCHAR uni1E55
ENCODING 7765
SWIDTH 497 0
DWIDTH 7 0
BBX 7 13 0 -2
BITMAP
00
00
08
10
00
B8
C4
84
C4
B8
80
80
80
ENDCHAR

STARTCHAR uni1E56
ENCODING 7766
SWIDTH 497 0
DWIDTH 7 0
BBX 7 13 0 -2
BITMAP
00
30
00
F8
84
84
84
F8
80
80
80
00
00
ENDCHAR

STARTCHAR uni1E57
ENCODING 7767
SWIDTH 497 0
DWIDTH 7 0
BBX 7 13 0 -2
BITMAP
00
00
00
30
00
B8
C4
84
C4
B8
80
80
80
ENDCHAR

STARTCHAR uni1E58
ENCODING 7768
SWIDTH 497 0
DWIDTH 7 0
BBX 7 13 0 -2
BITMAP
00
30
00
F8
84
84
F8
A0
90
88
84
00
00
ENDCHAR

STARTCHAR uni1E59
ENCODING 7769
SWIDTH 497 0
DWIDTH 7 0
BBX 7 13 0 -2
BITMAP
00
00
00
30
00
B8
44
40
40
40
40
00
00
ENDCHAR

STARTCHAR uni1E5A
ENCODING 7770
SWIDTH 497 0
DWIDTH 7 0
BBX 7 13 0 -2
BITMAP
00
00
F8
84
84
84
F8
A0
90
88
84
00
30
ENDCHAR

STARTCHAR uni1E5B
ENCODING 7771
SWIDTH 497 0
DWIDTH 7 0
BBX 7 13 0 -2
BITMAP
00
00
00
00
00
B8
44
40
40
40
40
00
30
ENDCHAR

STARTCHAR uni1E5C
ENCODING 7772
SWIDTH 497 0
DWIDTH 7 0
BBX 7 13 0 -2
BITMAP
00
78
00
F8
84
84
F8
A0
90
88
84
00
30
ENDCHAR

STARTCHAR uni1E5D
ENCODING 7773
SWIDTH 497 0
DWIDTH 7 0
BBX 7 13 0 -2
BITMAP
00
00
00
78
00
B8
44
40
40
40
40
00
30
ENDCHAR

STARTCHAR uni1E5E
ENCODING 7774
SWIDTH 497 0
DWIDTH 7 0
BBX 7 13 0 -2
BITMAP
00
00
F8
84
84
84
F8
A0
90
88
84
00
78
ENDCHAR

STARTCHAR uni1E5F
ENCODING 7775
SWIDTH 497 0
DWIDTH 7 0
BBX 7 13 0 -2
BITMAP
00
00
00
00
00
B8
44
40
40
40
40
00
78
ENDCHAR

STARTCHAR uni1E60
ENCODING 7776
SWIDTH 497 0
DWIDTH 7 0
BBX 7 13 0 -2
BITMAP
00
30
00
78
84
80
78
04
04
84
78
00
00
ENDCHAR

STARTCHAR uni1E61
ENCODING 7777
SWIDTH 497 0
DWIDTH 7 0
BBX 7 13 0 -2
BITMAP
00
00
00
30
00
78
84
60
18
84
78
00
00
ENDCHAR

STARTCHAR uni1E62
ENCODING 7778
SWIDTH 497 0
DWIDTH 7 0
BBX 7 13 0 -2
BITMAP
00
00
78
84
80
80
78
04
04
84
78
00
30
ENDCHAR

STARTCHAR uni1E63
ENCODING 7779
SWIDTH 497 0
DWIDTH 7 0
BBX 7 13 0 -2
BITMAP
00
00
00
00
00
78
84
60
18
84
78
00
30
ENDCHAR

STARTCHAR uni1E64
ENCODING 7780
SWIDTH 497 0
DWIDTH 7 0
BBX 7 13 0 -2
BITMAP
20
08
10
00
78
84
80
78
04
84
78
00
00
ENDCHAR

STARTCHAR uni1E65
ENCODING 7781
SWIDTH 497 0
DWIDTH 7 0
BBX 7 13 0 -2
BITMAP
00
20
08
10
00
78
84
60
18
84
78
00
00
ENDCHAR

STARTCHAR uni1E66
ENCODING 7782
SWIDTH 497 0
DWIDTH 7 0
BBX 7 13 0 -2
BITMAP
30
00
48
30
78
84
80
78
04
84
78
00
00
ENDCHAR

STARTCHAR uni1E67
ENCODING 7783
SWIDTH 497 0
DWIDTH 7 0
BBX 7 13 0 -2
BITMAP
30
00
48
30
00
78
84
60
18
84
78
00
00
ENDCHAR

STARTCHAR uni1E68
ENCODING 7784
SWIDTH 497 0
DWIDTH 7 0
BBX 7 13 0 -2
BITMAP
00
30
00
78
84
80
78
04
04
84
78
00
30
ENDCHAR

STARTCHAR uni1E69
ENCODING 7785
SWIDTH 497 0
DWIDTH 7 0
BBX 7 13 0 -2
BITMAP
00
00
00
30
00
78
84
60
18
84
78
00
30
ENDCHAR

STARTCHAR uni1E6A
ENCODING 7786
SWIDTH 497 0
DWIDTH 7 0
BBX 7 13 0 -2
BITMAP
00
30
00
7C
10
10
10
10
10
10
10
00
00
ENDCHAR

STARTCHAR uni1E6B
ENCODING 7787
SWIDTH 497 0
DWIDTH 7 0
BBX 7 13 0 -2
BITMAP
00
60
00
40
40
F0
40
40
40
44
38
00
00
ENDCHAR

STARTCHAR uni1E6C
ENCODING 7788
SWIDTH 497 0
DWIDTH 7 0
BBX 7 13 0 -2
BITMAP
00
00
7C
10
10
10
10
10
10
10
10
00
30
ENDCHAR

STARTCHAR uni1E6D
ENCODING 7789
SWIDTH 497 0
DWIDTH 7 0
BBX 7 13 0 -2
BITMAP
00
00
00
40
40
F0
40
40
40
44
38
00
30
ENDCHAR

STARTCHAR uni1E6E
ENCODING 7790
SWIDTH 497 0
DWIDTH 7 0
BBX 7 13 0 -2
BITMAP
00
00
7C
10
10
10
10
10
10
10
10
00
7C
ENDCHAR

STARTCHAR uni1E6F
ENCODING 7791
SWIDTH 497 0
DWIDTH 7 0
BBX 7 13 0 -2
BITMAP
00
00
00
40
40
F0
40
40
40
44
38
00
78
ENDCHAR

STARTCHAR uni1E70
ENCODING 7792
SWIDTH 497 0
DWIDTH 7 0
BBX 7 13 0 -2
BITMAP
00
00
7C
10
10
10
10
10
10
10
00
18
24
ENDCHAR

STARTCHAR uni1E71
ENCODING 7793
SWIDTH 497 0
DWIDTH 7 0
BBX 7 13 0 -2
BITMAP
00
00
00
40
40
F0
40
40
44
38
00
30
48
ENDCHAR

STARTCHAR uni1E72
ENCODING 7794
SWIDTH 497 0
DWIDTH 7 0
BBX 7 13 0 -2
BITMAP
00
00
84
84
84
84
84
84
84
84
78
00
48
ENDCHAR

STARTCHAR uni1E73
ENCODING 7795
SWIDTH 497 0
DWIDTH 7 0
BBX 7 13 0 -2
BITMAP
00
00
00
00
00
84
84
84
84
8C
74
00
48
ENDCHAR

STARTCHAR uni1E74
ENCODING 7796
SWIDTH 497 0
DWIDTH 7 0
BBX 7 13 0 -2
BITMAP
00
00
84
84
84
84
84
84
84
78
00
64
98
ENDCHAR

STARTCHAR uni1E75
ENCODING 7797
SWIDTH 497 0
DWIDTH 7 0
BBX 7 13 0 -2
BITMAP
00
00
00
00
00
84
84
84
8C
74
00
64
98
ENDCHAR

STARTCHAR uni1E76
ENCODING 7798
SWIDTH 497 0
DWIDTH 7 0
BBX 7 13 0 -2
BITMAP
00
00
84
84
84
84
84
84
84
78
00
30
48
ENDCHAR

STARTCHAR uni1E77
ENCODING 7799
SWIDTH 497 0
DWIDTH 7 0
BBX 7 13 0 -2
BITMAP
00
00
00
00
00
84
84
84
8C
74
00
30
48
ENDCHAR

STARTCHAR uni1E78
ENCODING 7800
SWIDTH 497 0
DWIDTH 7 0
BBX 7 13 0 -2
BITMAP
08
10
64
98
00
84
84
84
84
84
78
00
00
ENDCHAR

STARTCHAR uni1E79
ENCODING 7801
SWIDTH 497 0
DWIDTH 7 0
BBX 7 13 0 -2
BITMAP
08
10
64
98
00
84
84
84
84
8C
74
00
00
ENDCHAR

STARTCHAR uni1E7A
ENCODING 7802
SWIDTH 497 0
DWIDTH 7 0
BBX 7 13 0 -2
BITMAP
48
00
78
00
84
84
84
84
84
84
78
00
00
ENDCHAR

STARTCHAR uni1E7B
ENCODING 7803
SWIDTH 497 0
DWIDTH 7 0
BBX 7 13 0 -2
BITMAP
00
48
00
78
00
84
84
84
84
8C
74
00
00
ENDCHAR

STARTCHAR uni1E7C
ENCODING 7804
SWIDTH 497 0
DWIDTH 7 0
BBX 7 13 0 -2
BITMAP
00
64
98
00
84
84
48
48
48
30
30
00
00
ENDCHAR

STARTCHAR uni1E7D
ENCODING 7805
SWIDTH 497 0
DWIDTH 7 0
BBX 7 13 0 -2
BITMAP
00
00
64
98
00
88
88
88
50
50
20
00
00
ENDCHAR

STARTCHAR uni1E7E
ENCODING 7806
SWIDTH 497 0
DWIDTH 7 0
BBX 7 13 0 -2
BITMAP
00
00
84
84
84
48
48
48
30
30
30
00
30
ENDCHAR

STARTCHAR uni1E7F
ENCODING 7807
SWIDTH 497 0
DWIDTH 7 0
BBX 7 13 0 -2
BITMAP
00
00
00
00
00
88
88
88
50
50
20
00
20
ENDCHAR

STARTCHAR Wgrave
ENCODING 7808
SWIDTH 497 0
DWIDTH 7 0
BBX 7 13 0 -2
BITMAP
00
20
10
84
84
84
B4
B4
CC
CC
84
00
00
ENDCHAR

STARTCHAR wgrave
ENCODING 7809
SWIDTH 497 0
DWIDTH 7 0
BBX 7 13 0 -2
BITMAP
00
00
20
10
00
44
44
54
54
54
28
00
00
ENDCHAR

STARTCHAR Wacute
ENCODING 7810
SWIDTH 497 0
DWIDTH 7 0
BBX 7 13 0 -2
BITMAP
00
10
20
84
84
84
B4
B4
CC
CC
84
00
00
ENDCHAR

STARTCHAR wacute
ENCODING 7811
SWIDTH 497 0
DWIDTH 7 0
BBX 7 13 0 -2
BITMAP
00
00
08
10
00
44
44
54
54
54
28
00
00
ENDCHAR

STARTCHAR Wdieresis
ENCODING 7812
SWIDTH 497 0
DWIDTH 7 0
BBX 7 13 0 -2
BITMAP
00
48
00
84
84
84
B4
B4
CC
CC
84
00
00
ENDCHAR

STARTCHAR wdieresis
ENCODING 7813
SWIDTH 497 0
DWIDTH 7 0
BBX 7 13 0 -2
BITMAP
00
00
00
28
00
44
44
54
54
54
28
00
00
ENDCHAR

STARTCHAR uni1E86
ENCODING 7814
SWIDTH 497 0
DWIDTH 7 0
BBX 7 13 0 -2
BITMAP
00
30
00
84
84
84
B4
B4
CC
CC
84
00
00
ENDCHAR

STARTCHAR uni1E87
ENCODING 7815
SWIDTH 497 0
DWIDTH 7 0
BBX 7 13 0 -2
BITMAP
00
00
00
30
00
44
44
54
54
54
28
00
30
ENDCHAR

STARTCHAR uni1E88
ENCODING 7816
SWIDTH 497 0
DWIDTH 7 0
BBX 7 13 0 -2
BITMAP
00
00
84
84
84
84
B4
B4
CC
CC
84
00
30
ENDCHAR

STARTCHAR uni1E89
ENCODING 7817
SWIDTH 497 0
DWIDTH 7 0
BBX 7 13 0 -2
BITMAP
00
00
00
00
00
44
44
54
54
54
28
00
30
ENDCHAR

STARTCHAR uni1E8A
ENCODING 7818
SWIDTH 497 0
DWIDTH 7 0
BBX 7 13 0 -2
BITMAP
00
30
00
84
84
48
30
48
48
84
84
00
00
ENDCHAR

STARTCHAR uni1E8B
ENCODING 7819
SWIDTH 497 0
DWIDTH 7 0
BBX 7 13 0 -2
BITMAP
00
00
00
30
00
84
48
30
30
48
84
00
00
ENDCHAR

STARTCHAR uni1E8C
ENCODING 7820
SWIDTH 497 0
DWIDTH 7 0
BBX 7 13 0 -2
BITMAP
00
48
48
00
84
48
48
30
48
48
84
00
00
ENDCHAR

STARTCHAR uni1E8D
ENCODING 7821
SWIDTH 497 0
DWIDTH 7 0
BBX 7 13 0 -2
BITMAP
00
00
48
48
00
84
48
30
30
48
84
00
00
ENDCHAR

STARTCHAR uni1E8E
ENCODING 7822
SWIDTH 497 0
DWIDTH 7 0
BBX 7 13 0 -2
BITMAP
00
10
00
44
44
28
28
10
10
10
10
00
00
ENDCHAR

STARTCHAR uni1E8F
ENCODING 7823
SWIDTH 497 0
DWIDTH 7 0
BBX 7 13 0 -2
BITMAP
00
00
00
30
00
84
84
84
8C
74
04
84
78
ENDCHAR

STARTCHAR uni1E90
ENCODING 7824
SWIDTH 497 0
DWIDTH 7 0
BBX 7 13 0 -2
BITMAP
00
30
48
00
FC
08
10
20
40
80
FC
00
00
ENDCHAR

STARTCHAR uni1E91
ENCODING 7825
SWIDTH 497 0
DWIDTH 7 0
BBX 7 13 0 -2
BITMAP
00
00
30
48
00
FC
08
10
20
40
FC
00
00
ENDCHAR

STARTCHAR uni1E92
ENCODING 7826
SWIDTH 497 0
DWIDTH 7 0
BBX 7 13 0 -2
BITMAP
00
00
FC
04
08
10
30
20
40
80
FC
00
30
ENDCHAR

STARTCHAR uni1E93
ENCODING 7827
SWIDTH 497 0
DWIDTH 7 0
BBX 7 13 0 -2
BITMAP
00
00
00
00
00
FC
08
10
20
40
FC
00
30
ENDCHAR

STARTCHAR uni1E94
ENCODING 7828
SWIDTH 497 0
DWIDTH 7 0
BBX 7 13 0 -2
BITMAP
00
00
FC
04
08
10
30
20
40
80
FC
00
78
ENDCHAR

STARTCHAR uni1E95
ENCODING 7829
SWIDTH 497 0
DWIDTH 7 0
BBX 7 13 0 -2
BITMAP
00
00
00
00
00
FC
08
10
20
40
FC
00
78
ENDCHAR

STARTCHAR uni1E96
ENCODING 7830
SWIDTH 497 0
DWIDTH 7 0
BBX 7 13 0 -2
BITMAP
00
00
80
80
80
B8
C4
84
84
84
84
00
78
ENDCHAR

STARTCHAR uni1E97
ENCODING 7831
SWIDTH 497 0
DWIDTH 7 0
BBX 7 13 0 -2
BITMAP
00
00
50
00
40
40
F0
40
40
44
38
00
00
ENDCHAR

STARTCHAR uni1E98
ENCODING 7832
SWIDTH 497 0
DWIDTH 7 0
BBX 7 13 0 -2
BITMAP
00
30
48
30
00
44
44
54
54
54
28
00
00
ENDCHAR

STARTCHAR uni1E99
ENCODING 7833
SWIDTH 497 0
DWIDTH 7 0
BBX 7 13 0 -2
BITMAP
00
30
48
30
00
84
84
84
8C
74
04
84
78
ENDCHAR

STARTCHAR uni1E9A
ENCODING 7834
SWIDTH 497 0
DWIDTH 7 0
BBX 7 13 0 -2
BITMAP
08
04
04
08
00
78
04
7C
84
8C
74
00
00
ENDCHAR

STARTCHAR uni1E9B
ENCODING 7835
SWIDTH 497 0
DWIDTH 7 0
BBX 7 13 0 -2
BITMAP
00
18
00
18
24
20
20
60
20
20
20
00
00
ENDCHAR

STARTCHAR uni1EA0
ENCODING 7840
SWIDTH 497 0
DWIDTH 7 0
BBX 7 13 0 -2
BITMAP
00
00
30
48
84
84
84
FC
84
84
84
00
30
ENDCHAR

STARTCHAR uni1EA1
ENCODING 7841
SWIDTH 497 0
DWIDTH 7 0
BBX 7 13 0 -2
BITMAP
00
00
00
00
00
78
04
7C
84
8C
74
00
30
ENDCHAR

STARTCHAR uni1EA2
ENCODING 7842
SWIDTH 497 0
DWIDTH 7 0
BBX 7 13 0 -2
BITMAP
30
48
08
10
30
48
84
84
FC
84
84
00
00
ENDCHAR

STARTCHAR uni1EA3
ENCODING 7843
SWIDTH 497 0
DWIDTH 7 0
BBX 7 13 0 -2
BITMAP
00
30
48
08
10
78
04
7C
84
8C
74
00
00
ENDCHAR

STARTCHAR uni1EA4
ENCODING 7844
SWIDTH 497 0
DWIDTH 7 0
BBX 7 13 0 -2
BITMAP
00
44
A8
00
30
48
84
84
FC
84
84
00
00
ENDCHAR

STARTCHAR uni1EA5
ENCODING 7845
SWIDTH 497 0
DWIDTH 7 0
BBX 7 13 0 -2
BITMAP
00
00
44
A8
00
78
04
7C
84
8C
74
00
00
ENDCHAR

STARTCHAR uni1EA6
ENCODING 7846
SWIDTH 497 0
DWIDTH 7 0
BBX 7 13 0 -2
BITMAP
00
88
54
00
30
48
84
84
FC
84
84
00
00
ENDCHAR

STARTCHAR uni1EA7
ENCODING 7847
SWIDTH 497 0
DWIDTH 7 0
BBX 7 13 0 -2
BITMAP
00
00
88
54
00
78
04
7C
84
8C
74
00
00
ENDCHAR

STARTCHAR uni1EA8
ENCODING 7848
SWIDTH 497 0
DWIDTH 7 0
BBX 7 13 0 -2
BITMAP
08
94
44
08
38
48
84
84
FC
84
84
00
00
ENDCHAR

STARTCHAR uni1EA9
ENCODING 7849
SWIDTH 497 0
DWIDTH 7 0
BBX 7 13 0 -2
BITMAP
00
08
94
44
08
78
04
7C
84
8C
74
00
00
ENDCHAR

STARTCHAR uni1EAA
ENCODING 7850
SWIDTH 497 0
DWIDTH 7 0
BBX 7 13 0 -2
BITMAP
64
98
20
50
00
30
48
84
84
FC
84
00
00
ENDCHAR

STARTCHAR uni1EAB
ENCODING 7851
SWIDTH 497 0
DWIDTH 7 0
BBX 7 13 0 -2
BITMAP
64
98
20
50
00
78
04
7C
84
8C
74
00
00
ENDCHAR

STARTCHAR uni1EAC
ENCODING 7852
SWIDTH 497 0
DWIDTH 7 0
BBX 7 13 0 -2
BITMAP
00
30
48
00
30
48
84
84
FC
84
84
00
30
ENDCHAR

STARTCHAR uni1EAD
ENCODING 7853
SWIDTH 497 0
DWIDTH 7 0
BBX 7 13 0 -2
BITMAP
00
00
30
48
00
78
04
7C
84
8C
74
00
30
ENDCHAR

STARTCHAR uni1EAE
ENCODING 7854
SWIDTH 497 0
DWIDTH 7 0
BBX 7 13 0 -2
BITMAP
10
A4
78
00
30
48
84
84
FC
84
84
00
00
ENDCHAR

STARTCHAR uni1EAF
ENCODING 7855
SWIDTH 497 0
DWIDTH 7 0
BBX 7 13 0 -2
BITMAP
08
10
84
78
00
78
04
7C
84
8C
74
00
00
ENDCHAR

STARTCHAR uni1EB0
ENCODING 7856
SWIDTH 497 0
DWIDTH 7 0
BBX 7 13 0 -2
BITMAP
40
20
84
78
00
30
48
84
FC
84
84
00
00
ENDCHAR

STARTCHAR uni1EB1
ENCODING 7857
SWIDTH 497 0
DWIDTH 7 0
BBX 7 13 0 -2
BITMAP
40
20
84
78
00
78
04
7C
84
8C
74
00
00
ENDCHAR

STARTCHAR uni1EB2
ENCODING 7858
SWIDTH 497 0
DWIDTH 7 0
BBX 7 13 0 -2
BITMAP
30
10
A4
78
00
30
48
84
FC
84
84
00
00
ENDCHAR

STARTCHAR uni1EB3
ENCODING 7859
SWIDTH 497 0
DWIDTH 7 0
BBX 7 13 0 -2
BITMAP
30
10
A4
78
00
78
04
7C
84
8C
74
00
00
ENDCHAR

STARTCHAR uni1EB4
ENCODING 7860
SWIDTH 497 0
DWIDTH 7 0
BBX 7 13 0 -2
BITMAP
64
98
84
78
00
30
48
84
FC
84
84
00
00
ENDCHAR

STARTCHAR uni1EB5
ENCODING 7861
SWIDTH 497 0
DWIDTH 7 0
BBX 7 13 0 -2
BITMAP
64
98
84
78
00
78
04
7C
84
8C
74
00
00
ENDCHAR

STARTCHAR uni1EB6
ENCODING 7862
SWIDTH 497 0
DWIDTH 7 0
BBX 7 13 0 -2
BITMAP
00
84
78
00
30
48
84
84
FC
84
84
00
30
ENDCHAR

STARTCHAR uni1EB7
ENCODING 7863
SWIDTH 497 0
DWIDTH 7 0
BBX 7 13 0 -2
BITMAP
00
00
84
78
00
78
04
7C
84
8C
74
00
30
ENDCHAR

STARTCHAR uni1EB8
ENCODING 7864
SWIDTH 497 0
DWIDTH 7 0
BBX 7 13 0 -2
BITMAP
00
00
FC
80
80
80
F0
80
80
80
FC
00
30
ENDCHAR

STARTCHAR uni1EB9
ENCODING 7865
SWIDTH 497 0
DWIDTH 7 0
BBX 7 13 0 -2
BITMAP
00
00
00
00
00
78
84
FC
80
84
78
00
30
ENDCHAR

STARTCHAR uni1EBA
ENCODING 7866
SWIDTH 497 0
DWIDTH 7 0
BBX 7 13 0 -2
BITMAP
30
48
08
10
FC
80
80
F0
80
80
FC
00
00
ENDCHAR

STARTCHAR uni1EBB
ENCODING 7867
SWIDTH 497 0
DWIDTH 7 0
BBX 7 13 0 -2
BITMAP
00
30
48
08
10
78
84
FC
80
84
78
00
00
ENDCHAR

STARTCHAR uni1EBC
ENCODING 7868
SWIDTH 497 0
DWIDTH 7 0
BBX 7 13 0 -2
BITMAP
00
64
98
00
FC
80
80
F0
80
80
FC
00
00
ENDCHAR

STARTCHAR uni1EBD
ENCODING 7869
SWIDTH 497 0
DWIDTH 7 0
BBX 7 13 0 -2
BITMAP
00
00
64
98
00
78
84
FC
80
84
78
00
00
ENDCHAR

STARTCHAR uni1EBE
ENCODING 7870
SWIDTH 497 0
DWIDTH 7 0
BBX 7 13 0 -2
BITMAP
00
44
A8
00
FC
80
80
F0
80
80
FC
00
00
ENDCHAR

STARTCHAR uni1EBF
ENCODING 7871
SWIDTH 497 0
DWIDTH 7 0
BBX 7 13 0 -2
BITMAP
00
00
44
A8
00
78
84
FC
80
84
78
00
00
ENDCHAR

STARTCHAR uni1EC0
ENCODING 7872
SWIDTH 497 0
DWIDTH 7 0
BBX 7 13 0 -2
BITMAP
00
88
54
00
FC
80
80
F0
80
80
FC
00
00
ENDCHAR

STARTCHAR uni1EC1
ENCODING 7873
SWIDTH 497 0
DWIDTH 7 0
BBX 7 13 0 -2
BITMAP
00
00
88
54
00
78
84
FC
80
84
78
00
00
ENDCHAR

STARTCHAR uni1EC2
ENCODING 7874
SWIDTH 497 0
DWIDTH 7 0
BBX 7 13 0 -2
BITMAP
08
54
A4
08
FC
80
80
F0
80
80
FC
00
00
ENDCHAR

STARTCHAR uni1EC3
ENCODING 7875
SWIDTH 497 0
DWIDTH 7 0
BBX 7 13 0 -2
BITMAP
08
14
44
A8
08
78
84
FC
80
84
78
00
00
ENDCHAR

STARTCHAR uni1EC4
ENCODING 7876
SWIDTH 497 0
DWIDTH 7 0
BBX 7 13 0 -2
BITMAP
64
98
20
50
00
FC
80
F0
80
80
FC
00
00
ENDCHAR

STARTCHAR uni1EC5
ENCODING 7877
SWIDTH 497 0
DWIDTH 7 0
BBX 7 13 0 -2
BITMAP
64
98
20
50
00
78
84
FC
80
84
78
00
00
ENDCHAR

STARTCHAR uni1EC6
ENCODING 7878
SWIDTH 497 0
DWIDTH 7 0
BBX 7 13 0 -2
BITMAP
00
30
48
00
FC
80
80
F0
80
80
FC
00
30
ENDCHAR

STARTCHAR uni1EC7
ENCODING 7879
SWIDTH 497 0
DWIDTH 7 0
BBX 7 13 0 -2
BITMAP
00
00
30
48
00
78
84
FC
80
84
78
00
30
ENDCHAR

STARTCHAR uni1EC8
ENCODING 7880
SWIDTH 497 0
DWIDTH 7 0
BBX 7 13 0 -2
BITMAP
10
28
08
10
7C
10
10
10
10
10
7C
00
00
ENDCHAR

STARTCHAR uni1EC9
ENCODING 7881
SWIDTH 497 0
DWIDTH 7 0
BBX 7 13 0 -2
BITMAP
10
28
08
10
00
30
10
10
10
10
7C
00
00
ENDCHAR

STARTCHAR uni1ECA
ENCODING 7882
SWIDTH 497 0
DWIDTH 7 0
BBX 7 13 0 -2
BITMAP
00
00
7C
10
10
10
10
10
10
10
7C
00
30
ENDCHAR

STARTCHAR uni1ECB
ENCODING 7883
SWIDTH 497 0
DWIDTH 7 0
BBX 7 13 0 -2
BITMAP
00
00
00
10
00
30
10
10
10
10
7C
00
30
ENDCHAR

STARTCHAR uni1ECC
ENCODING 7884
SWIDTH 497 0
DWIDTH 7 0
BBX 7 13 0 -2
BITMAP
00
00
78
84
84
84
84
84
84
84
78
00
30
ENDCHAR

STARTCHAR uni1ECD
ENCODING 7885
SWIDTH 497 0
DWIDTH 7 0
BBX 7 13 0 -2
BITMAP
00
00
00
00
00
78
84
84
84
84
78
00
30
ENDCHAR

STARTCHAR uni1ECE
ENCODING 7886
SWIDTH 497 0
DWIDTH 7 0
BBX 7 13 0 -2
BITMAP
30
48
08
10
78
84
84
84
84
84
78
00
00
ENDCHAR

STARTCHAR uni1ECF
ENCODING 7887
SWIDTH 497 0
DWIDTH 7 0
BBX 7 13 0 -2
BITMAP
00
30
48
08
10
38
44
44
44
44
38
00
00
ENDCHAR

STARTCHAR uni1ED0
ENCODING 7888
SWIDTH 497 0
DWIDTH 7 0
BBX 7 13 0 -2
BITMAP
00
44
A8
00
78
84
84
84
84
84
78
00
00
ENDCHAR

STARTCHAR uni1ED1
ENCODING 7889
SWIDTH 497 0
DWIDTH 7 0
BBX 7 13 0 -2
BITMAP
00
00
44
A8
00
38
44
44
44
44
38
00
00
ENDCHAR

STARTCHAR uni1ED2
ENCODING 7890
SWIDTH 497 0
DWIDTH 7 0
BBX 7 13 0 -2
BITMAP
00
88
54
00
78
84
84
84
84
84
78
00
00
ENDCHAR

STARTCHAR uni1ED3
ENCODING 7891
SWIDTH 497 0
DWIDTH 7 0
BBX 7 13 0 -2
BITMAP
00
00
88
54
00
38
44
44
44
44
38
00
00
ENDCHAR

STARTCHAR uni1ED4
ENCODING 7892
SWIDTH 497 0
DWIDTH 7 0
BBX 7 13 0 -2
BITMAP
08
54
A4
08
78
84
84
84
84
84
78
00
00
ENDCHAR

STARTCHAR uni1ED5
ENCODING 7893
SWIDTH 497 0
DWIDTH 7 0
BBX 7 13 0 -2
BITMAP
08
14
44
A8
08
38
44
44
44
44
38
00
00
ENDCHAR

STARTCHAR uni1ED6
ENCODING 7894
SWIDTH 497 0
DWIDTH 7 0
BBX 7 13 0 -2
BITMAP
64
98
20
50
00
78
84
84
84
84
78
00
00
ENDCHAR

STARTCHAR uni1ED7
ENCODING 7895
SWIDTH 497 0
DWIDTH 7 0
BBX 7 13 0 -2
BITMAP
64
98
00
30
48
00
78
84
84
84
78
00
00
ENDCHAR

STARTCHAR uni1ED8
ENCODING 7896
SWIDTH 497 0
DWIDTH 7 0
BBX 7 13 0 -2
BITMAP
00
30
48
00
78
84
84
84
84
84
78
00
30
ENDCHAR

STARTCHAR uni1ED9
ENCODING 7897
SWIDTH 497 0
DWIDTH 7 0
BBX 7 13 0 -2
BITMAP
00
00
30
48
00
78
84
84
84
84
78
00
30
ENDCHAR

STARTCHAR uni1EDA
ENCODING 7898
SWIDTH 497 0
DWIDTH 7 0
BBX 7 13 0 -2
BITMAP
00
10
20
04
74
88
88
88
88
88
70
00
00
ENDCHAR

STARTCHAR uni1EDB
ENCODING 7899
SWIDTH 497 0
DWIDTH 7 0
BBX 7 13 0 -2
BITMAP
00
00
10
20
04
74
88
88
88
88
70
00
00
ENDCHAR

STARTCHAR uni1EDC
ENCODING 7900
SWIDTH 497 0
DWIDTH 7 0
BBX 7 13 0 -2
BITMAP
00
40
20
04
74
88
88
88
88
88
70
00
00
ENDCHAR

STARTCHAR uni1EDD
ENCODING 7901
SWIDTH 497 0
DWIDTH 7 0
BBX 7 13 0 -2
BITMAP
00
00
40
20
04
74
88
88
88
88
70
00
00
ENDCHAR

STARTCHAR uni1EDE
ENCODING 7902
SWIDTH 497 0
DWIDTH 7 0
BBX 7 13 0 -2
BITMAP
20
50
10
24
74
88
88
88
88
88
70
00
00
ENDCHAR

STARTCHAR uni1EDF
ENCODING 7903
SWIDTH 497 0
DWIDTH 7 0
BBX 7 13 0 -2
BITMAP
00
20
50
10
24
74
88
88
88
88
70
00
00
ENDCHAR

STARTCHAR uni1EE0
ENCODING 7904
SWIDTH 497 0
DWIDTH 7 0
BBX 7 13 0 -2
BITMAP
64
98
00
04
74
88
88
88
88
88
70
00
00
ENDCHAR

STARTCHAR uni1EE1
ENCODING 7905
SWIDTH 497 0
DWIDTH 7 0
BBX 7 13 0 -2
BITMAP
00
64
98
00
04
74
88
88
88
88
70
00
00
ENDCHAR

STARTCHAR uni1EE2
ENCODING 7906
SWIDTH 497 0
DWIDTH 7 0
BBX 7 13 0 -2
BITMAP
00
04
74
88
88
88
88
88
88
88
70
00
30
ENDCHAR

STARTCHAR uni1EE3
ENCODING 7907
SWIDTH 497 0
DWIDTH 7 0
BBX 7 13 0 -2
BITMAP
00
00
00
00
04
74
88
88
88
88
70
00
30
ENDCHAR

STARTCHAR uni1EE4
ENCODING 7908
SWIDTH 497 0
DWIDTH 7 0
BBX 7 13 0 -2
BITMAP
00
00
84
84
84
84
84
84
84
84
78
00
30
ENDCHAR

STARTCHAR uni1EE5
ENCODING 7909
SWIDTH 497 0
DWIDTH 7 0
BBX 7 13 0 -2
BITMAP
00
00
00
00
00
84
84
84
84
8C
74
00
30
ENDCHAR

STARTCHAR uni1EE6
ENCODING 7910
SWIDTH 497 0
DWIDTH 7 0
BBX 7 13 0 -2
BITMAP
30
48
08
10
94
84
84
84
84
84
78
00
00
ENDCHAR

STARTCHAR uni1EE7
ENCODING 7911
SWIDTH 497 0
DWIDTH 7 0
BBX 7 13 0 -2
BITMAP
00
30
48
08
10
94
84
84
84
8C
74
00
00
ENDCHAR

STARTCHAR uni1EE8
ENCODING 7912
SWIDTH 497 0
DWIDTH 7 0
BBX 7 13 0 -2
BITMAP
00
10
24
04
88
88
88
88
88
88
70
00
00
ENDCHAR

STARTCHAR uni1EE9
ENCODING 7913
SWIDTH 497 0
DWIDTH 7 0
BBX 7 13 0 -2
BITMAP
00
00
10
24
04
88
88
88
88
98
68
00
00
ENDCHAR

STARTCHAR uni1EEA
ENCODING 7914
SWIDTH 497 0
DWIDTH 7 0
BBX 7 13 0 -2
BITMAP
00
40
24
04
88
88
88
88
88
88
70
00
00
ENDCHAR

STARTCHAR uni1EEB
ENCODING 7915
SWIDTH 497 0
DWIDTH 7 0
BBX 7 13 0 -2
BITMAP
00
00
40
24
04
88
88
88
88
98
68
00
00
ENDCHAR

STARTCHAR uni1EEC
ENCODING 7916
SWIDTH 497 0
DWIDTH 7 0
BBX 7 13 0 -2
BITMAP
20
50
14
24
A8
88
88
88
88
88
70
00
00
ENDCHAR

STARTCHAR uni1EED
ENCODING 7917
SWIDTH 497 0
DWIDTH 7 0
BBX 7 13 0 -2
BITMAP
20
50
10
24
24
88
88
88
88
98
68
00
00
ENDCHAR

STARTCHAR uni1EEE
ENCODING 7918
SWIDTH 497 0
DWIDTH 7 0
BBX 7 13 0 -2
BITMAP
48
B0
04
04
88
88
88
88
88
88
70
00
00
ENDCHAR

ENDFONT
